<svg width="384" height="54" viewBox="0 0 384 54" fill="none" xmlns="http://www.w3.org/2000/svg">
<path fill-rule="evenodd" clip-rule="evenodd" d="M182.379 1.00578C158.573 2.10102 112.862 12.1692 69.8642 25.788C66.3968 26.8864 61.8289 28.3342 59.7132 29.0054C31.1844 38.0575 15.8413 43.766 5.10162 49.3245C0.91025 51.4939 0.55016 51.7569 0.661072 52.5675C0.823059 53.7503 1.50499 53.5676 9.28231 50.2578C17.3302 46.833 24.5435 44.3461 44.3265 38.1763C110.445 17.5554 141.328 9.99573 175.968 5.95228C182.756 5.15982 193.599 5.29783 193.599 6.17654C193.599 7.3503 186.798 11.3533 171.053 19.4477C151.683 29.406 139.891 36.0117 138.846 37.4898C137.062 40.0153 139.024 41.8378 143.271 41.5989C145.698 41.4625 146.249 41.3592 157.376 38.9559C189.321 32.0558 209.738 28.5538 237.408 25.228C279.545 20.1632 306.393 18.2948 356.868 16.9138C375.005 16.4177 375.943 16.3484 379.291 15.2623C380.581 14.8436 382.123 14.4344 382.716 14.3528C384.107 14.1619 384.09 13.9178 382.673 13.7377C382.056 13.6592 380.638 13.2846 379.521 12.905C376.768 11.9693 374.943 11.9204 359.219 12.3609C306.508 13.8377 278.773 15.7263 238.583 20.5753C217.447 23.1254 208.028 24.511 192.637 27.3349C182.115 29.2653 154.343 34.8853 150.452 35.871C148.329 36.4089 157.544 31.3348 173.728 23.0535C194.201 12.5779 198.276 9.73277 198.295 5.90539C198.317 1.58945 194.596 0.444002 182.379 1.00578Z" fill="#00634B"/>
</svg>
