<svg width="408" height="111" viewBox="0 0 408 111" fill="none" xmlns="http://www.w3.org/2000/svg">
<path d="M11.0393 70.5866C15.1928 73.5163 29.8037 77.5212 33.5493 77.447C60.4108 77.5271 114.832 77.6305 117.624 77.4041C121.115 77.1211 134.936 72.8285 139.465 70.2341C143.993 67.6397 150.314 58.8187 147.861 53.5827C143.069 43.7334 130.392 46.1139 124.653 48.5354C123.238 46.5227 120.125 42.1012 118.992 40.5163C125.549 31.0821 123.811 20.338 119.287 17.2972C111.039 11.7494 101.734 19.9301 98.112 24.7139C95.5285 23.8733 89.8274 22.0068 87.6914 21.2651C87.8768 7.21034 79.4588 1.12859 74.7492 1.3511C64.1581 2.35977 61.8564 15.0474 62.0294 21.2651L52.091 24.4543C52.2022 24.8251 51.4161 24.4691 47.3814 20.0784C42.338 14.59 32.1028 14.6642 29.8036 17.5196C22.9802 26.0044 27.5044 36.1604 30.6195 40.1778L25.1311 48.5216C24.9951 48.4599 23.5142 47.9951 18.6785 46.6305C12.6339 44.9246 3.25169 48.6329 1.95375 53.1942C-0.160022 61.4268 6.8859 67.6569 11.0393 70.5866Z" fill="#E3E3E3"/>
<rect x="1.05426" y="85.8528" width="147.597" height="8.43411" rx="2.10853" fill="white" stroke="#474849" stroke-width="2.10853"/>
<rect x="1.05426" y="77.4188" width="147.597" height="8.43411" rx="2.10853" fill="white" stroke="#474849" stroke-width="2.10853"/>
<mask id="path-4-inside-1_388_1727" fill="white">
<path d="M100.159 78.4686C100.159 75.1456 99.5043 71.8551 98.2326 68.785C96.961 65.715 95.0971 62.9255 92.7474 60.5758C90.3976 58.226 87.6081 56.3621 84.5381 55.0905C81.468 53.8188 78.1776 53.1643 74.8545 53.1643C71.5315 53.1643 68.2411 53.8188 65.171 55.0905C62.101 56.3621 59.3115 58.226 56.9617 60.5758C54.612 62.9255 52.7481 65.715 51.4765 68.785C50.2048 71.8551 49.5503 75.1456 49.5503 78.4686L74.8545 78.4686H100.159Z"/>
</mask>
<path d="M100.159 78.4686C100.159 75.1456 99.5043 71.8551 98.2326 68.785C96.961 65.715 95.0971 62.9255 92.7474 60.5758C90.3976 58.226 87.6081 56.3621 84.5381 55.0905C81.468 53.8188 78.1776 53.1643 74.8545 53.1643C71.5315 53.1643 68.2411 53.8188 65.171 55.0905C62.101 56.3621 59.3115 58.226 56.9617 60.5758C54.612 62.9255 52.7481 65.715 51.4765 68.785C50.2048 71.8551 49.5503 75.1456 49.5503 78.4686L74.8545 78.4686H100.159Z" fill="white" stroke="#474849" stroke-width="4.21705" mask="url(#path-4-inside-1_388_1727)"/>
<mask id="path-5-inside-2_388_1727" fill="white">
<path d="M108.589 78.473C108.589 74.0427 107.716 69.6557 106.021 65.5626C104.326 61.4695 101.841 57.7505 98.7079 54.6177C95.5752 51.485 91.8561 49 87.763 47.3046C83.6699 45.6092 79.283 44.7366 74.8526 44.7366C70.4223 44.7366 66.0354 45.6092 61.9423 47.3046C57.8492 49 54.1301 51.485 50.9974 54.6177C47.8647 57.7505 45.3797 61.4695 43.6842 65.5626C41.9888 69.6557 41.1162 74.0427 41.1162 78.473L74.8526 78.473H108.589Z"/>
</mask>
<path d="M108.589 78.473C108.589 74.0427 107.716 69.6557 106.021 65.5626C104.326 61.4695 101.841 57.7505 98.7079 54.6177C95.5752 51.485 91.8561 49 87.763 47.3046C83.6699 45.6092 79.283 44.7366 74.8526 44.7366C70.4223 44.7366 66.0354 45.6092 61.9423 47.3046C57.8492 49 54.1301 51.485 50.9974 54.6177C47.8647 57.7505 45.3797 61.4695 43.6842 65.5626C41.9888 69.6557 41.1162 74.0427 41.1162 78.473L74.8526 78.473H108.589Z" stroke="#474849" stroke-width="4.21705" mask="url(#path-5-inside-2_388_1727)"/>
<path d="M74.8528 20.4885C73.7986 20.4885 71.1629 21.2265 69.0544 24.1784C66.4187 27.8684 64.873 32.3276 64.873 40.2346C63.2805 41.0596 61.6113 41.6927 59.8653 42.134C57.5479 38.9421 53.5109 34.2994 49.5505 32.0854C45.4466 29.7912 41.6591 30.3974 40.0777 31.4517C38.4963 32.506 36.7201 36.0898 37.4264 40.5195C38.516 47.3537 41.8869 50.9228 43.591 54.0856C42.8481 55.6236 41.7859 57.092 40.3325 58.3069C35.8555 57.0704 31.7863 56.1067 27.9551 56.3894C25.7733 56.5503 20.5426 57.9639 19.2567 61.7592C18.1383 65.0601 20.2105 67.9638 22.3027 70.238C24.8118 72.9653 28.6776 75.3567 35.3179 77.4188" stroke="#474849" stroke-width="2.10853"/>
<path d="M74.8527 20.4885C75.907 20.4885 78.5426 21.2265 80.6512 24.1784C83.2868 27.8684 84.8325 32.3276 84.8325 40.2346C86.425 41.0596 88.0943 41.6927 89.8403 42.134C92.1577 38.9421 96.1946 34.2994 100.155 32.0854C104.259 29.7912 108.046 30.3974 109.628 31.4517C111.209 32.506 112.985 36.0898 112.279 40.5195C111.19 47.3537 107.819 50.9228 106.115 54.0856C106.857 55.6236 107.92 57.092 109.373 58.3069C113.85 57.0704 117.919 56.1067 121.75 56.3894C123.932 56.5503 129.163 57.9639 130.449 61.7592C131.567 65.0601 129.495 67.9638 127.403 70.238C124.894 72.9653 121.028 75.3567 114.388 77.4188" stroke="#474849" stroke-width="2.10853"/>
<path d="M71.6899 21.5427V2.56592" stroke="#474849" stroke-width="2.10853"/>
<path d="M74.8532 1.51172C68.1446 1.51172 61.964 10.4512 61.9639 19.2139C61.9637 28.6027 63.7634 36.3783 64.5458 39.9923" stroke="#474849" stroke-width="2.10853"/>
<path d="M60.4721 42.8977C58.5812 37.166 54.9845 28.3444 48.9496 21.7437C43.277 15.5393 34.5644 13.9552 30.2948 17.3705C26.4212 20.4689 24.6048 28.1844 28.3272 36.2797C31.4635 43.1002 39.7907 50.993 43.8679 54.4793" stroke="#474849" stroke-width="2.10853"/>
<path d="M41.1183 58.4736C34.0396 52.4889 26.2154 48.9317 21.6126 47.3722C15.4419 45.2815 4.27679 46.5371 1.99251 53.3898C-0.400614 60.5691 5.91803 68.1264 13.1253 71.7301C17.321 73.828 26.3385 76.2984 33.6104 77.328" stroke="#474849" stroke-width="2.10853"/>
<path d="M18.9766 63.7132C18.9766 63.7132 2.63553 58.4419 2.1084 58.4419" stroke="#474849" stroke-width="2.10853"/>
<path d="M20.5578 58.9693L4.19727 50.2" stroke="#474849" stroke-width="2.10853"/>
<path d="M25.3022 47.8994L30.5736 40.5195" stroke="#474849" stroke-width="2.10853"/>
<path d="M38.4807 34.1939L26.8838 21.0156" stroke="#474849" stroke-width="2.10853"/>
<path d="M43.7518 30.5041L33.7363 15.7444" stroke="#474849" stroke-width="2.10853"/>
<path d="M51.8115 24.3922L61.7758 21.3159" stroke="#474849" stroke-width="2.10853"/>
<path d="M78.0156 21.5427V2.56592" stroke="#474849" stroke-width="2.10853"/>
<path d="M74.8524 1.51172C81.561 1.51172 87.7416 10.4512 87.7417 19.2139C87.7419 28.6027 85.9422 36.3783 85.1598 39.9923" stroke="#474849" stroke-width="2.10853"/>
<path d="M89.2325 42.8977C91.1234 37.166 94.7201 28.3444 100.755 21.7437C106.428 15.5393 115.14 13.9552 119.41 17.3705C123.283 20.4689 125.1 28.1844 121.377 36.2797C118.241 43.1002 109.914 50.993 105.837 54.4793" stroke="#474849" stroke-width="2.10853"/>
<path d="M108.587 58.4739C115.665 52.4891 123.49 48.9319 128.092 47.3724C134.263 45.2817 145.428 46.5373 147.713 53.3901C150.106 60.5694 143.787 68.1266 136.58 71.7303C132.384 73.8282 123.253 76.2098 115.981 77.2394" stroke="#474849" stroke-width="2.10853"/>
<path d="M130.728 63.7132C130.728 63.7132 147.07 58.4419 147.597 58.4419" stroke="#474849" stroke-width="2.10853"/>
<path d="M129.147 58.9691L145.507 50.1997" stroke="#474849" stroke-width="2.10853"/>
<path d="M124.403 47.8994L119.132 40.5195" stroke="#474849" stroke-width="2.10853"/>
<path d="M111.225 34.1939L122.822 21.0156" stroke="#474849" stroke-width="2.10853"/>
<path d="M105.953 30.5041L115.969 15.7444" stroke="#474849" stroke-width="2.10853"/>
<path d="M97.894 24.3922L87.9298 21.3159" stroke="#474849" stroke-width="2.10853"/>
<rect x="214.015" y="17.1592" width="21.0853" height="45.3333" fill="#232176"/>
<ellipse cx="224.558" cy="7.83724" rx="7.37985" ry="5.27132" fill="#232176"/>
<rect x="240.371" y="41.407" width="23.1938" height="10.5426" fill="#232176"/>
<rect x="161.579" y="17.1589" width="20.0782" height="45.8605" fill="#232176"/>
<path d="M187.247 63.0194C193.328 63.0194 199.16 60.6036 203.461 56.3033C207.761 52.0031 210.177 46.1707 210.177 40.0892C210.177 34.0077 207.761 28.1753 203.461 23.8751C199.16 19.5748 193.328 17.1589 187.247 17.1589L187.247 40.0892L187.247 63.0194Z" fill="#232176"/>
<path d="M306.046 33.5295V17.8459H290.596L306.046 33.5295Z" fill="#232176"/>
<path d="M270.523 44.4046V62.4922H288.341L270.523 44.4046Z" fill="#232176"/>
<path d="M292.513 55.7381L273.509 36.4457C269.163 32.0339 269.163 24.9506 273.509 20.5389C275.639 18.3765 278.548 17.1589 281.583 17.1589H284.394C282.955 18.6195 282.955 20.9644 284.394 22.4249L305.186 43.5318C309.291 47.6991 309.291 54.3899 305.186 58.5571C302.922 60.855 299.832 62.1489 296.606 62.1489H292.513C294.265 60.3708 294.265 57.5161 292.513 55.7381Z" fill="#232176"/>
<path d="M324.185 26.6475L312.061 62.4924H332.619L324.185 26.6475Z" fill="#232176"/>
<rect x="326.822" y="43.5156" width="11.5969" height="4.21706" fill="#232176"/>
<path d="M347.906 18.2134H327.875L338.418 63.5467H358.449L347.906 18.2134Z" fill="#232176"/>
<path d="M363.194 63.5467V30.8645L381.643 63.5467H363.194Z" fill="#232176"/>
<path d="M384.805 18.2134H362.666L387.968 63.5467H407.999L384.805 18.2134Z" fill="#232176"/>
<path d="M408 18.2134H390.077L408 50.8956V18.2134Z" fill="#232176"/>
<rect x="247.752" y="73.2017" width="160.248" height="22.1395" fill="#232176"/>
<path d="M261.144 81.8442C261.05 81.5184 260.918 81.2305 260.749 80.9805C260.579 80.7261 260.371 80.5118 260.126 80.3378C259.885 80.1592 259.608 80.0231 259.296 79.9293C258.988 79.8356 258.646 79.7887 258.271 79.7887C257.57 79.7887 256.954 79.9628 256.423 80.311C255.897 80.6591 255.486 81.1658 255.191 81.8308C254.897 82.4915 254.749 83.2994 254.749 84.2546C254.749 85.2098 254.894 86.0222 255.185 86.6918C255.475 87.3613 255.885 87.8724 256.417 88.225C256.948 88.5732 257.575 88.7473 258.298 88.7473C258.954 88.7473 259.514 88.6312 259.979 88.3991C260.447 88.1625 260.804 87.83 261.05 87.4015C261.3 86.973 261.425 86.4663 261.425 85.8816L262.014 85.9686H258.479V83.7859H264.217V85.5133C264.217 86.7185 263.962 87.7541 263.453 88.62C262.945 89.4815 262.244 90.1466 261.351 90.6153C260.458 91.0795 259.436 91.3116 258.285 91.3116C256.999 91.3116 255.87 91.0282 254.897 90.4613C253.924 89.89 253.165 89.0798 252.62 88.0308C252.08 86.9774 251.81 85.7276 251.81 84.2814C251.81 83.1699 251.971 82.179 252.292 81.3086C252.618 80.4337 253.073 79.6928 253.658 79.0857C254.243 78.4786 254.923 78.0167 255.7 77.6997C256.477 77.3828 257.318 77.2244 258.224 77.2244C259.001 77.2244 259.724 77.3382 260.394 77.5658C261.063 77.789 261.657 78.1059 262.175 78.5166C262.697 78.9272 263.123 79.416 263.453 79.9829C263.784 80.5453 263.996 81.1658 264.09 81.8442H261.144Z" fill="white"/>
<path d="M266.394 91.1241V77.4118H275.634V79.8021H269.294V83.0695H275.159V85.4598H269.294V88.7339H275.661V91.1241H266.394Z" fill="white"/>
<path d="M280.303 91.1241H277.196L281.93 77.4118H285.666L290.393 91.1241H287.286L283.851 80.5453H283.744L280.303 91.1241ZM280.108 85.7343H287.447V87.9974H280.108V85.7343Z" fill="white"/>
<path d="M292.043 91.1241V77.4118H297.453C298.489 77.4118 299.372 77.5971 300.104 77.9676C300.841 78.3336 301.401 78.8536 301.785 79.5276C302.173 80.1972 302.367 80.985 302.367 81.8911C302.367 82.8017 302.171 83.5851 301.778 84.2412C301.385 84.8929 300.816 85.3928 300.071 85.741C299.33 86.0892 298.433 86.2632 297.379 86.2632H293.757V83.9332H296.911C297.464 83.9332 297.924 83.8573 298.29 83.7056C298.656 83.5538 298.928 83.3262 299.107 83.0226C299.29 82.7191 299.381 82.3419 299.381 81.8911C299.381 81.4358 299.29 81.0519 299.107 80.7395C298.928 80.427 298.654 80.1905 298.283 80.0298C297.917 79.8646 297.455 79.782 296.897 79.782H294.942V91.1241H292.043ZM299.448 84.884L302.856 91.1241H299.656L296.321 84.884H299.448Z" fill="white"/>
<path d="M311.679 77.4118V91.1241H308.78V77.4118H311.679Z" fill="white"/>
<path d="M325.534 77.4118V91.1241H323.03L317.064 82.4937H316.964V91.1241H314.064V77.4118H316.609L322.528 86.0356H322.648V77.4118H325.534Z" fill="white"/>
<path d="M332.79 91.1241H327.929V77.4118H332.83C334.209 77.4118 335.397 77.6864 336.392 78.2354C337.388 78.7799 338.153 79.5633 338.689 80.5855C339.229 81.6077 339.499 82.8307 339.499 84.2546C339.499 85.683 339.229 86.9105 338.689 87.9371C338.153 88.9637 337.383 89.7516 336.379 90.3006C335.379 90.8496 334.183 91.1241 332.79 91.1241ZM330.828 88.6401H332.669C333.527 88.6401 334.247 88.4884 334.832 88.1848C335.421 87.8768 335.863 87.4015 336.158 86.7587C336.457 86.1115 336.606 85.2768 336.606 84.2546C336.606 83.2414 336.457 82.4133 336.158 81.7706C335.863 81.1278 335.424 80.6547 334.839 80.3511C334.254 80.0476 333.533 79.8959 332.676 79.8959H330.828V88.6401Z" fill="white"/>
<path d="M350.116 77.4118H353.015V86.3168C353.015 87.3167 352.777 88.1915 352.299 88.9414C351.826 89.6913 351.163 90.2761 350.31 90.6956C349.458 91.1108 348.465 91.3183 347.331 91.3183C346.193 91.3183 345.197 91.1108 344.345 90.6956C343.492 90.2761 342.829 89.6913 342.356 88.9414C341.883 88.1915 341.646 87.3167 341.646 86.3168V77.4118H344.546V86.0691C344.546 86.5913 344.659 87.0555 344.887 87.4617C345.119 87.8679 345.445 88.1871 345.865 88.4192C346.284 88.6513 346.773 88.7673 347.331 88.7673C347.893 88.7673 348.382 88.6513 348.797 88.4192C349.217 88.1871 349.54 87.8679 349.768 87.4617C350 87.0555 350.116 86.5913 350.116 86.0691V77.4118Z" fill="white"/>
<path d="M362.839 81.3555C362.786 80.8154 362.556 80.3958 362.15 80.0967C361.743 79.7977 361.192 79.6481 360.496 79.6481C360.023 79.6481 359.623 79.7151 359.297 79.849C358.971 79.9784 358.722 80.1592 358.547 80.3913C358.378 80.6234 358.293 80.8868 358.293 81.1814C358.284 81.4269 358.335 81.6411 358.447 81.8241C358.563 82.0072 358.722 82.1656 358.922 82.2995C359.123 82.429 359.355 82.5428 359.619 82.641C359.882 82.7347 360.163 82.8151 360.462 82.882L361.694 83.1766C362.292 83.3105 362.841 83.4891 363.341 83.7123C363.841 83.9355 364.274 84.21 364.64 84.5358C365.006 84.8617 365.29 85.2455 365.491 85.6874C365.696 86.1293 365.801 86.636 365.805 87.2073C365.801 88.0465 365.587 88.774 365.163 89.39C364.743 90.0015 364.136 90.4769 363.341 90.8162C362.551 91.1509 361.598 91.3183 360.482 91.3183C359.375 91.3183 358.411 91.1487 357.59 90.8095C356.773 90.4702 356.135 89.9681 355.675 89.303C355.22 88.6334 354.981 87.8054 354.959 86.819H357.764C357.795 87.2787 357.927 87.6626 358.159 87.9706C358.396 88.2741 358.71 88.504 359.103 88.6602C359.5 88.812 359.949 88.8879 360.449 88.8879C360.94 88.8879 361.366 88.8164 361.728 88.6736C362.094 88.5308 362.377 88.3321 362.578 88.0777C362.779 87.8233 362.879 87.5309 362.879 87.2006C362.879 86.8926 362.788 86.6337 362.605 86.4239C362.426 86.2141 362.163 86.0356 361.815 85.8883C361.471 85.741 361.049 85.6071 360.549 85.4866L359.056 85.1116C357.9 84.8304 356.987 84.3907 356.318 83.7926C355.648 83.1945 355.316 82.3888 355.32 81.3756C355.316 80.5453 355.537 79.82 355.983 79.1995C356.434 78.5791 357.052 78.0948 357.838 77.7466C358.623 77.3984 359.516 77.2244 360.516 77.2244C361.534 77.2244 362.422 77.3984 363.181 77.7466C363.944 78.0948 364.538 78.5791 364.962 79.1995C365.386 79.82 365.604 80.5386 365.618 81.3555H362.839Z" fill="white"/>
<path d="M367.233 79.8021V77.4118H378.495V79.8021H374.297V91.1241H371.431V79.8021H367.233Z" fill="white"/>
<path d="M380.35 91.1241V77.4118H385.759C386.795 77.4118 387.679 77.5971 388.411 77.9676C389.147 78.3336 389.708 78.8536 390.091 79.5276C390.48 80.1972 390.674 80.985 390.674 81.8911C390.674 82.8017 390.478 83.5851 390.085 84.2412C389.692 84.8929 389.123 85.3928 388.377 85.741C387.636 86.0892 386.739 86.2632 385.686 86.2632H382.064V83.9332H385.217C385.771 83.9332 386.23 83.8573 386.596 83.7056C386.962 83.5538 387.235 83.3262 387.413 83.0226C387.596 82.7191 387.688 82.3419 387.688 81.8911C387.688 81.4358 387.596 81.0519 387.413 80.7395C387.235 80.427 386.96 80.1905 386.59 80.0298C386.224 79.8646 385.762 79.782 385.204 79.782H383.249V91.1241H380.35ZM387.755 84.884L391.163 91.1241H387.962L384.628 84.884H387.755Z" fill="white"/>
<path d="M391.348 77.4118H394.596L397.723 83.3172H397.856L400.983 77.4118H404.231L399.229 86.2766V91.1241H396.35V86.2766L391.348 77.4118Z" fill="white"/>
<path fill-rule="evenodd" clip-rule="evenodd" d="M161.83 79.5273H173.426C176.062 79.5273 181.333 81.6359 181.333 86.9072C181.333 92.1785 176.062 94.8142 173.426 94.8142H161.83V79.5273ZM168.682 82.463V91.9297C172.138 91.9297 176.593 91.2634 176.593 87.0464C176.593 82.8293 172.096 82.463 168.682 82.463Z" fill="#232176"/>
<rect x="183.442" y="79.5273" width="6.32558" height="14.7597" fill="#232176"/>
<rect x="232.049" y="79.5273" width="6.32558" height="14.7597" fill="#232176"/>
<rect x="185.55" y="73.2017" width="2.10853" height="4.21706" fill="#232176"/>
<rect x="234.158" y="73.2017" width="2.10853" height="4.21706" fill="#232176"/>
<path d="M210.492 83.5761H206.871C206.066 82.5702 204.256 81.7074 200.379 81.7074C196.12 81.7074 197.364 84.3505 201.707 85.4538C203.886 86.0073 210.492 86.733 210.895 90.2152C211.286 93.5998 207.293 95.7092 204.265 95.7092C205.136 96.8269 205.131 99.6083 203.129 100.378C201.127 101.148 198.689 99.9366 198.689 98.598C202.981 98.6651 202.522 96.8058 202.119 95.8669C196.188 95.8669 193.302 91.7353 192.654 90.2152C193.436 90.1482 195.283 90.0543 196.409 90.2152C197.662 91.4608 200.409 92.2426 202.576 92.2426C206.298 92.2426 207.138 89.6656 200.903 88.1363C197.348 87.2645 193.194 85.0578 193.194 82.8986C193.194 80.9628 195.336 78.3452 201.707 78.3452C206.804 78.3452 209.866 81.8324 210.492 83.5761Z" fill="#232176"/>
<path d="M219.211 79.5522H213.443V94.3731H229.941V91.4894H219.211V79.5522Z" fill="#232176"/>
</svg>
