<svg width="320" height="80" viewBox="0 0 320 80" fill="none" xmlns="http://www.w3.org/2000/svg">
<path d="M0 1H320V60L284.035 64.4957C201.665 74.7918 118.335 74.7918 35.9652 64.4957L0 60L0 1Z" fill="white"/>
<path d="M0 0H320V59L284.035 63.4957C201.665 73.7918 118.335 73.7918 35.9652 63.4957L0 59L0 0Z" fill="#232176"/>
<path d="M317 51.5833V42.75H316.5V33.9167H317V25.0833H316.5V16.25H317V7.41667H316.5V3.5H313.075V3H305.225V3.5H297.375V3H289.525V3.5H281.675V3H273.825V3.5H265.975V3H258.125V3.5H250.275V3H242.425V3.5H234.575V3H226.725V3.5H218.875V3H211.025V3.5H203.175V3H195.325V3.5H187.475V3H179.625V3.5H171.775V3H163.925V3.5H156.075V3H148.225V3.5H140.375V3H132.525V3.5H124.675V3H116.825V3.5H108.975V3H101.125V3.5H93.275V3H85.425V3.5H77.575V3H69.725V3.5H61.875V3H54.025V3.5H46.175V3H38.325V3.5H30.475V3H22.625V3.5H14.775V3H6.925V3.5H3.5V7.41667H3V16.25H3.5V25.0833H3V33.9167H3.5V42.75H3V51.5833H3.5V55.5597L6.89227 55.9918L6.82909 56.4878L14.4873 57.4633L14.5504 56.9674L22.2086 57.9429L22.1454 58.4389L29.8036 59.4145L29.8668 58.9185L33.6959 59.4063C35.0046 59.573 36.3136 59.7371 37.6229 59.8986L37.5617 60.3949C40.1818 60.7181 42.8029 61.0309 45.4249 61.3333L45.4822 60.8366C48.1035 61.1389 50.7257 61.4309 53.3488 61.7124L53.2954 62.2095C55.9203 62.4912 58.5461 62.7625 61.1726 63.0233L61.222 62.5258C63.8477 62.7865 66.4742 63.0369 69.1014 63.2768L69.056 63.7747C71.685 64.0148 74.3147 64.2445 76.945 64.4637L76.9865 63.9654C79.616 64.1846 82.2462 64.3933 84.8769 64.5916L84.8393 65.0902C87.4717 65.2886 90.1048 65.4766 92.7383 65.6541L92.7719 65.1552C95.4045 65.3327 98.0376 65.4997 100.671 65.6563L100.642 66.1555C103.277 66.3122 105.912 66.4584 108.548 66.5942L108.574 66.0949C111.209 66.2306 113.845 66.356 116.48 66.4708L116.459 66.9704C119.096 67.0853 121.734 67.1898 124.372 67.2838L124.389 66.7842C127.026 66.8782 129.663 66.9617 132.3 67.0348L132.287 67.5346C134.925 67.6078 137.564 67.6705 140.203 67.7228L140.213 67.2229C142.851 67.2751 145.489 67.3169 148.128 67.3482L148.122 67.8482C150.761 67.8795 153.401 67.9004 156.04 67.9109L156.042 67.4109C158.681 67.4213 161.319 67.4213 163.958 67.4109L163.96 67.9109C166.599 67.9004 169.239 67.8795 171.878 67.8482L171.872 67.3482C174.511 67.3169 177.149 67.2751 179.787 67.2229L179.796 67.7228C182.436 67.6705 185.075 67.6078 187.713 67.5346L187.7 67.0348C190.337 66.9617 192.974 66.8782 195.611 66.7842L195.628 67.2838C198.266 67.1898 200.904 67.0853 203.541 66.9704L203.52 66.4708C206.155 66.356 208.791 66.2306 211.426 66.0949L211.452 66.5942C214.088 66.4584 216.723 66.3122 219.358 66.1555L219.329 65.6563C221.962 65.4997 224.595 65.3327 227.228 65.1552L227.262 65.6541C229.895 65.4766 232.528 65.2886 235.161 65.0902L235.123 64.5916C237.754 64.3933 240.384 64.1846 243.013 63.9654L243.055 64.4637C245.685 64.2445 248.315 64.0148 250.944 63.7747L250.899 63.2768C253.526 63.0369 256.152 62.7865 258.778 62.5258L258.827 63.0233C261.454 62.7625 264.08 62.4912 266.705 62.2095L266.651 61.7124C269.274 61.4309 271.896 61.139 274.518 60.8366L274.575 61.3333C277.197 61.0309 279.818 60.7181 282.438 60.3949L282.377 59.8986C283.686 59.7371 284.995 59.573 286.304 59.4063L290.133 58.9185L290.196 59.4145L297.855 58.4389L297.791 57.9429L305.45 56.9674L305.513 57.4633L313.171 56.4878L313.108 55.9918L316.5 55.5597V51.5833H317Z" stroke="white" stroke-opacity="0.5" stroke-dasharray="8 8"/>
<path d="M36.1645 25.058C36.1645 24.022 36.3512 23.126 36.7245 22.37C37.1072 21.614 37.6532 21.0307 38.3625 20.62C39.0719 20.2 39.9165 19.99 40.8965 19.99C41.8672 19.99 42.7072 20.2 43.4165 20.62C44.1259 21.0307 44.6719 21.614 45.0545 22.37C45.4465 23.126 45.6425 24.0173 45.6425 25.044C45.6425 26.08 45.4465 26.9807 45.0545 27.746C44.6719 28.502 44.1259 29.09 43.4165 29.51C42.7072 29.93 41.8672 30.14 40.8965 30.14C39.9165 30.14 39.0719 29.93 38.3625 29.51C37.6625 29.09 37.1212 28.502 36.7385 27.746C36.3559 26.9807 36.1645 26.0847 36.1645 25.058ZM38.0545 25.058C38.0545 26.1687 38.2925 27.0367 38.7685 27.662C39.2445 28.2873 39.9539 28.6 40.8965 28.6C41.8112 28.6 42.5159 28.2873 43.0105 27.662C43.5052 27.0367 43.7525 26.1687 43.7525 25.058C43.7525 23.938 43.5052 23.07 43.0105 22.454C42.5252 21.838 41.8205 21.53 40.8965 21.53C39.9539 21.53 39.2445 21.838 38.7685 22.454C38.2925 23.07 38.0545 23.938 38.0545 25.058ZM51.8601 30.35V28.894L52.3081 29.23H51.9161C50.9361 29.23 50.0914 29.062 49.3821 28.726C48.6727 28.39 48.1267 27.9093 47.7441 27.284C47.3707 26.6493 47.1841 25.884 47.1841 24.988C47.1841 23.6253 47.5947 22.58 48.4161 21.852C49.2467 21.1147 50.4134 20.746 51.9161 20.746H52.3081L51.8601 21.082V19.71H53.6521V21.082L53.2041 20.746H53.5961C55.0987 20.746 56.2654 21.1147 57.0961 21.852C57.9267 22.58 58.3421 23.6253 58.3421 24.988C58.3421 25.884 58.1507 26.6493 57.7681 27.284C57.3854 27.9093 56.8394 28.39 56.1301 28.726C55.4301 29.062 54.5854 29.23 53.5961 29.23H53.2041L53.6521 28.894V30.35H51.8601ZM51.8741 28.18V21.796L52.2521 22.104H51.7341C50.9127 22.104 50.2501 22.3467 49.7461 22.832C49.2514 23.308 49.0041 24.0267 49.0041 24.988C49.0041 25.6133 49.1207 26.1407 49.3541 26.57C49.5874 26.9993 49.9094 27.326 50.3201 27.55C50.7307 27.7647 51.2021 27.872 51.7341 27.872H52.2521L51.8741 28.18ZM53.6521 28.18L53.2601 27.872H53.7921C54.3241 27.872 54.7954 27.7647 55.2061 27.55C55.6167 27.326 55.9341 26.9993 56.1581 26.57C56.3914 26.1407 56.5081 25.6133 56.5081 24.988C56.5081 24.0267 56.2607 23.308 55.7661 22.832C55.2714 22.3467 54.6134 22.104 53.7921 22.104H53.2601L53.6521 21.796V28.18ZM60.2072 30V20.13H61.8732V27.578H61.5372L67.2492 20.13H68.6072V30H66.9272V22.552H67.2632L61.5372 30H60.2072ZM79.2736 32.31V30H70.7756V20.13H72.5536V28.516H77.6216V20.13H79.4136V28.516H80.8556V32.31H79.2736ZM82.2736 30V20.13H83.9396V27.578H83.6036L89.3156 20.13H90.6736V30H88.9936V22.552H89.3296L83.6036 30H82.2736ZM91.75 30L96.216 20.13H97.728L102.25 30H100.416L99.212 27.228L99.94 27.718H94.018L94.774 27.228L93.57 30H91.75ZM96.958 22.062L94.984 26.738L94.62 26.304H99.324L99.03 26.738L97.014 22.062H96.958ZM103.328 30.238L102.446 28.908C102.838 28.6933 103.183 28.4413 103.482 28.152C103.781 27.8627 104.028 27.5033 104.224 27.074C104.42 26.6353 104.565 26.0987 104.658 25.464C104.761 24.82 104.812 24.0453 104.812 23.14V20.13H111.98V30H110.188V21.6H106.478V23.588C106.478 24.5307 106.408 25.3613 106.268 26.08C106.128 26.7987 105.923 27.4287 105.652 27.97C105.381 28.502 105.05 28.9547 104.658 29.328C104.275 29.692 103.832 29.9953 103.328 30.238ZM114.156 30V20.13H115.948V24.26H118.748C119.831 24.26 120.676 24.5027 121.282 24.988C121.889 25.464 122.192 26.1733 122.192 27.116C122.192 28.0493 121.889 28.7633 121.282 29.258C120.676 29.7527 119.831 30 118.748 30H114.156ZM115.948 28.614H118.538C119.201 28.614 119.686 28.4927 119.994 28.25C120.302 27.998 120.456 27.62 120.456 27.116C120.456 26.6213 120.302 26.2527 119.994 26.01C119.686 25.7673 119.201 25.646 118.538 25.646H115.948V28.614ZM123.809 30V20.13H125.615V24.246H130.669V20.13H132.475V30H130.669V25.744H125.615V30H123.809ZM134.651 30V20.13H136.443V24.26H138.809C139.891 24.26 140.736 24.5027 141.343 24.988C141.949 25.464 142.253 26.1733 142.253 27.116C142.253 28.0493 141.949 28.7633 141.343 29.258C140.736 29.7527 139.891 30 138.809 30H134.651ZM136.443 28.614H138.599C139.261 28.614 139.747 28.4927 140.055 28.25C140.363 27.998 140.517 27.62 140.517 27.116C140.517 26.6213 140.363 26.2527 140.055 26.01C139.747 25.758 139.261 25.632 138.599 25.632H136.443V28.614ZM143.555 30V20.13H145.347V30H143.555ZM147.516 30V20.13H154.166V21.544H149.252V24.274H153.844V25.702H149.252V28.572H154.166V30H147.516ZM159.684 30V20.13H168.322V30H166.53V21.6H161.462V30H159.684ZM170.498 30V20.13H174.88C175.963 20.13 176.789 20.3913 177.358 20.914C177.928 21.4367 178.212 22.1553 178.212 23.07C178.212 23.9753 177.928 24.694 177.358 25.226C176.789 25.758 175.963 26.024 174.88 26.024H172.304V30H170.498ZM172.304 24.596H174.67C175.268 24.596 175.716 24.4653 176.014 24.204C176.313 23.9333 176.462 23.5553 176.462 23.07C176.462 22.5847 176.313 22.2113 176.014 21.95C175.716 21.6793 175.268 21.544 174.67 21.544H172.304V24.596ZM179.822 30V20.13H186.472V21.544H181.558V24.274H186.15V25.702H181.558V28.572H186.472V30H179.822ZM187.253 32.31V28.586H188.275C188.741 28.026 189.087 27.2607 189.311 26.29C189.535 25.3193 189.647 24.1247 189.647 22.706V20.13H196.801V28.586H198.243V32.31H196.675V30H188.835V32.31H187.253ZM190.081 28.586H195.009V21.53H191.299V22.874C191.299 24.2273 191.196 25.366 190.991 26.29C190.795 27.214 190.491 27.9793 190.081 28.586ZM204.252 30.14C203.226 30.14 202.344 29.9347 201.606 29.524C200.878 29.104 200.318 28.516 199.926 27.76C199.534 26.9947 199.338 26.094 199.338 25.058C199.338 24.022 199.534 23.126 199.926 22.37C200.318 21.614 200.878 21.0307 201.606 20.62C202.344 20.2 203.226 19.99 204.252 19.99C204.943 19.99 205.564 20.088 206.114 20.284C206.674 20.48 207.155 20.7693 207.556 21.152L206.968 22.58C206.53 22.2253 206.105 21.9733 205.694 21.824C205.293 21.6653 204.831 21.586 204.308 21.586C203.31 21.586 202.544 21.8893 202.012 22.496C201.49 23.0933 201.228 23.9473 201.228 25.058C201.228 26.1687 201.49 27.0273 202.012 27.634C202.544 28.2407 203.31 28.544 204.308 28.544C204.831 28.544 205.293 28.4693 205.694 28.32C206.105 28.1613 206.53 27.9 206.968 27.536L207.556 28.964C207.155 29.3373 206.674 29.6267 206.114 29.832C205.564 30.0373 204.943 30.14 204.252 30.14ZM211.432 30V21.614H208.17V20.13H216.5V21.614H213.238V30H211.432ZM215.494 30L219.96 20.13H221.472L225.994 30H224.16L222.956 27.228L223.684 27.718H217.762L218.518 27.228L217.314 30H215.494ZM220.702 22.062L218.728 26.738L218.364 26.304H223.068L222.774 26.738L220.758 22.062H220.702ZM227.086 30V20.13H231.412C232.485 20.13 233.311 20.3587 233.89 20.816C234.469 21.264 234.758 21.8893 234.758 22.692C234.758 23.2893 234.581 23.7933 234.226 24.204C233.871 24.6147 233.381 24.89 232.756 25.03V24.82C233.475 24.9227 234.03 25.184 234.422 25.604C234.823 26.0147 235.024 26.5607 235.024 27.242C235.024 28.1193 234.721 28.8007 234.114 29.286C233.507 29.762 232.663 30 231.58 30H227.086ZM228.822 28.628H231.37C231.977 28.628 232.448 28.516 232.784 28.292C233.12 28.0587 233.288 27.6807 233.288 27.158C233.288 26.626 233.12 26.248 232.784 26.024C232.448 25.7907 231.977 25.674 231.37 25.674H228.822V28.628ZM228.822 24.316H231.104C231.748 24.316 232.224 24.1993 232.532 23.966C232.849 23.7233 233.008 23.3687 233.008 22.902C233.008 22.4353 232.849 22.0853 232.532 21.852C232.224 21.6093 231.748 21.488 231.104 21.488H228.822V24.316ZM236.752 30V20.13H238.418V27.578H238.082L243.794 20.13H245.152V30H243.472V22.552H243.808L238.082 30H236.752ZM249.645 30V21.614H246.383V20.13H254.713V21.614H251.451V30H249.645ZM255.988 30V20.13H262.638V21.544H257.724V24.274H262.316V25.702H257.724V28.572H262.638V30H255.988ZM264.301 30.238L263.419 28.908C263.811 28.6933 264.156 28.4413 264.455 28.152C264.753 27.8627 265.001 27.5033 265.197 27.074C265.393 26.6353 265.537 26.0987 265.631 25.464C265.733 24.82 265.785 24.0453 265.785 23.14V20.13H272.953V30H271.161V21.6H267.451V23.588C267.451 24.5307 267.381 25.3613 267.241 26.08C267.101 26.7987 266.895 27.4287 266.625 27.97C266.354 28.502 266.023 28.9547 265.631 29.328C265.248 29.692 264.805 29.9953 264.301 30.238ZM275.129 30V20.13H276.795V27.578H276.459L282.171 20.13H283.529V30H281.849V22.552H282.185L276.459 30H275.129ZM86.1496 48V38.13H89.7336C90.863 38.13 91.815 38.326 92.5896 38.718C93.3736 39.1007 93.9663 39.6607 94.3676 40.398C94.769 41.126 94.9696 42.0127 94.9696 43.058C94.9696 44.094 94.769 44.9807 94.3676 45.718C93.9663 46.4553 93.3736 47.02 92.5896 47.412C91.815 47.804 90.863 48 89.7336 48H86.1496ZM87.9556 46.502H89.6216C90.8163 46.502 91.703 46.2173 92.2816 45.648C92.8603 45.0787 93.1496 44.2153 93.1496 43.058C93.1496 41.8913 92.8603 41.028 92.2816 40.468C91.703 39.8987 90.8163 39.614 89.6216 39.614H87.9556V46.502ZM96.8137 48V38.13H98.6197V48H96.8137ZM100.638 44.836V43.45H104.894V44.836H100.638ZM110.101 48.14C109.308 48.14 108.575 48.042 107.903 47.846C107.241 47.6407 106.671 47.3607 106.195 47.006L106.755 45.592C107.073 45.816 107.404 46.0073 107.749 46.166C108.095 46.3153 108.463 46.432 108.855 46.516C109.247 46.5907 109.663 46.628 110.101 46.628C110.839 46.628 111.371 46.5067 111.697 46.264C112.024 46.0213 112.187 45.704 112.187 45.312C112.187 44.9667 112.075 44.7053 111.851 44.528C111.627 44.3413 111.226 44.1873 110.647 44.066L109.065 43.744C108.16 43.5573 107.483 43.2447 107.035 42.806C106.587 42.3673 106.363 41.7793 106.363 41.042C106.363 40.426 106.527 39.8893 106.853 39.432C107.18 38.9747 107.637 38.62 108.225 38.368C108.813 38.116 109.499 37.99 110.283 37.99C110.983 37.99 111.632 38.0927 112.229 38.298C112.827 38.494 113.326 38.7787 113.727 39.152L113.167 40.496C112.766 40.16 112.327 39.9127 111.851 39.754C111.375 39.586 110.843 39.502 110.255 39.502C109.593 39.502 109.075 39.6327 108.701 39.894C108.337 40.146 108.155 40.496 108.155 40.944C108.155 41.2893 108.267 41.5647 108.491 41.77C108.725 41.9753 109.117 42.134 109.667 42.246L111.235 42.554C112.169 42.7407 112.859 43.0487 113.307 43.478C113.755 43.898 113.979 44.4673 113.979 45.186C113.979 45.774 113.821 46.292 113.503 46.74C113.186 47.1787 112.738 47.524 112.159 47.776C111.581 48.0187 110.895 48.14 110.101 48.14ZM114.521 48L118.987 38.13H120.499L125.021 48H123.187L121.983 45.228L122.711 45.718H116.789L117.545 45.228L116.341 48H114.521ZM119.729 40.062L117.755 44.738L117.391 44.304H122.095L121.801 44.738L119.785 40.062H119.729ZM126.113 48V38.13H127.471L133.197 45.536H132.833V38.13H134.513V48H133.155L127.443 40.594H127.793V48H126.113ZM140.523 48V38.13H144.107C145.236 38.13 146.188 38.326 146.963 38.718C147.747 39.1007 148.339 39.6607 148.741 40.398C149.142 41.126 149.343 42.0127 149.343 43.058C149.343 44.094 149.142 44.9807 148.741 45.718C148.339 46.4553 147.747 47.02 146.963 47.412C146.188 47.804 145.236 48 144.107 48H140.523ZM142.329 46.502H143.995C145.189 46.502 146.076 46.2173 146.655 45.648C147.233 45.0787 147.523 44.2153 147.523 43.058C147.523 41.8913 147.233 41.028 146.655 40.468C146.076 39.8987 145.189 39.614 143.995 39.614H142.329V46.502ZM151.187 48V38.13H152.993V48H151.187ZM158.609 48.14C157.816 48.14 157.083 48.042 156.411 47.846C155.749 47.6407 155.179 47.3607 154.703 47.006L155.263 45.592C155.581 45.816 155.912 46.0073 156.257 46.166C156.603 46.3153 156.971 46.432 157.363 46.516C157.755 46.5907 158.171 46.628 158.609 46.628C159.347 46.628 159.879 46.5067 160.205 46.264C160.532 46.0213 160.695 45.704 160.695 45.312C160.695 44.9667 160.583 44.7053 160.359 44.528C160.135 44.3413 159.734 44.1873 159.155 44.066L157.573 43.744C156.668 43.5573 155.991 43.2447 155.543 42.806C155.095 42.3673 154.871 41.7793 154.871 41.042C154.871 40.426 155.035 39.8893 155.361 39.432C155.688 38.9747 156.145 38.62 156.733 38.368C157.321 38.116 158.007 37.99 158.791 37.99C159.491 37.99 160.14 38.0927 160.737 38.298C161.335 38.494 161.834 38.7787 162.235 39.152L161.675 40.496C161.274 40.16 160.835 39.9127 160.359 39.754C159.883 39.586 159.351 39.502 158.763 39.502C158.101 39.502 157.583 39.6327 157.209 39.894C156.845 40.146 156.663 40.496 156.663 40.944C156.663 41.2893 156.775 41.5647 156.999 41.77C157.233 41.9753 157.625 42.134 158.175 42.246L159.743 42.554C160.677 42.7407 161.367 43.0487 161.815 43.478C162.263 43.898 162.487 44.4673 162.487 45.186C162.487 45.774 162.329 46.292 162.011 46.74C161.694 47.1787 161.246 47.524 160.667 47.776C160.089 48.0187 159.403 48.14 158.609 48.14ZM158.707 50.73C158.427 50.73 158.161 50.702 157.909 50.646C157.667 50.5993 157.452 50.5293 157.265 50.436L157.517 49.652C157.685 49.7267 157.853 49.7827 158.021 49.82C158.189 49.8667 158.367 49.89 158.553 49.89C158.805 49.89 158.997 49.8527 159.127 49.778C159.258 49.7127 159.323 49.61 159.323 49.47C159.323 49.2553 159.151 49.148 158.805 49.148C158.712 49.148 158.619 49.1527 158.525 49.162C158.441 49.1713 158.339 49.1947 158.217 49.232L157.951 48.98L158.147 47.72H159.085L158.903 48.784L158.455 48.63C158.558 48.5927 158.665 48.5647 158.777 48.546C158.899 48.5273 159.006 48.518 159.099 48.518C159.482 48.518 159.79 48.6067 160.023 48.784C160.257 48.9613 160.373 49.2087 160.373 49.526C160.373 49.89 160.219 50.1793 159.911 50.394C159.603 50.618 159.202 50.73 158.707 50.73ZM164.189 48V38.13H165.995V46.474H170.643V48H164.189ZM172.023 48V38.13H173.829V48H172.023ZM183.287 48.14C182.494 48.14 181.761 48.042 181.089 47.846C180.426 47.6407 179.857 47.3607 179.381 47.006L179.941 45.592C180.258 45.816 180.59 46.0073 180.935 46.166C181.28 46.3153 181.649 46.432 182.041 46.516C182.433 46.5907 182.848 46.628 183.287 46.628C184.024 46.628 184.556 46.5067 184.883 46.264C185.21 46.0213 185.373 45.704 185.373 45.312C185.373 44.9667 185.261 44.7053 185.037 44.528C184.813 44.3413 184.412 44.1873 183.833 44.066L182.251 43.744C181.346 43.5573 180.669 43.2447 180.221 42.806C179.773 42.3673 179.549 41.7793 179.549 41.042C179.549 40.426 179.712 39.8893 180.039 39.432C180.366 38.9747 180.823 38.62 181.411 38.368C181.999 38.116 182.685 37.99 183.469 37.99C184.169 37.99 184.818 38.0927 185.415 38.298C186.012 38.494 186.512 38.7787 186.913 39.152L186.353 40.496C185.952 40.16 185.513 39.9127 185.037 39.754C184.561 39.586 184.029 39.502 183.441 39.502C182.778 39.502 182.26 39.6327 181.887 39.894C181.523 40.146 181.341 40.496 181.341 40.944C181.341 41.2893 181.453 41.5647 181.677 41.77C181.91 41.9753 182.302 42.134 182.853 42.246L184.421 42.554C185.354 42.7407 186.045 43.0487 186.493 43.478C186.941 43.898 187.165 44.4673 187.165 45.186C187.165 45.774 187.006 46.292 186.689 46.74C186.372 47.1787 185.924 47.524 185.345 47.776C184.766 48.0187 184.08 48.14 183.287 48.14ZM187.706 48L192.172 38.13H193.684L198.206 48H196.372L195.168 45.228L195.896 45.718H189.974L190.73 45.228L189.526 48H187.706ZM192.914 40.062L190.94 44.738L190.576 44.304H195.28L194.986 44.738L192.97 40.062H192.914ZM199.298 48V38.13H200.656L206.382 45.536H206.018V38.13H207.698V48H206.34L200.628 40.594H200.978V48H199.298ZM209.53 48V46.054H211.49V48H209.53ZM217.398 48.14C216.371 48.14 215.489 47.9347 214.752 47.524C214.024 47.104 213.464 46.516 213.072 45.76C212.68 44.9947 212.484 44.094 212.484 43.058C212.484 42.022 212.68 41.126 213.072 40.37C213.464 39.614 214.024 39.0307 214.752 38.62C215.489 38.2 216.371 37.99 217.398 37.99C218.089 37.99 218.709 38.088 219.26 38.284C219.82 38.48 220.301 38.7693 220.702 39.152L220.114 40.58C219.675 40.2253 219.251 39.9733 218.84 39.824C218.439 39.6653 217.977 39.586 217.454 39.586C216.455 39.586 215.69 39.8893 215.158 40.496C214.635 41.0933 214.374 41.9473 214.374 43.058C214.374 44.1687 214.635 45.0273 215.158 45.634C215.69 46.2407 216.455 46.544 217.454 46.544C217.977 46.544 218.439 46.4693 218.84 46.32C219.251 46.1613 219.675 45.9 220.114 45.536L220.702 46.964C220.301 47.3373 219.82 47.6267 219.26 47.832C218.709 48.0373 218.089 48.14 217.398 48.14ZM221.753 43.058C221.753 42.022 221.94 41.126 222.313 40.37C222.696 39.614 223.242 39.0307 223.951 38.62C224.661 38.2 225.505 37.99 226.485 37.99C227.456 37.99 228.296 38.2 229.005 38.62C229.715 39.0307 230.261 39.614 230.643 40.37C231.035 41.126 231.231 42.0173 231.231 43.044C231.231 44.08 231.035 44.9807 230.643 45.746C230.261 46.502 229.715 47.09 229.005 47.51C228.296 47.93 227.456 48.14 226.485 48.14C225.505 48.14 224.661 47.93 223.951 47.51C223.251 47.09 222.71 46.502 222.327 45.746C221.945 44.9807 221.753 44.0847 221.753 43.058ZM223.643 43.058C223.643 44.1687 223.881 45.0367 224.357 45.662C224.833 46.2873 225.543 46.6 226.485 46.6C227.4 46.6 228.105 46.2873 228.599 45.662C229.094 45.0367 229.341 44.1687 229.341 43.058C229.341 41.938 229.094 41.07 228.599 40.454C228.114 39.838 227.409 39.53 226.485 39.53C225.543 39.53 224.833 39.838 224.357 40.454C223.881 41.07 223.643 41.938 223.643 43.058ZM232.226 48V46.054H234.186V48H232.226Z" fill="white"/>
</svg>
