<svg width="1841" height="503" viewBox="0 0 1841 503" fill="none" xmlns="http://www.w3.org/2000/svg">
<path d="M1062.93 502.83C1137.9 502.83 1198.68 442.073 1198.68 367.125C1198.68 292.177 1137.9 231.419 1062.93 231.419C987.959 231.419 927.182 292.177 927.182 367.125C927.182 442.073 987.959 502.83 1062.93 502.83Z" fill="url(#paint0_linear_836_12)"/>
<path d="M1494.95 129.25C1525.78 130.184 1557.22 121.157 1582.44 103.416C1609.53 84.4298 1638.49 54.5498 1669.62 65.7548C1680.21 69.801 1688.92 78.2048 1699.51 82.5623C1734.38 97.1911 1770.19 63.576 1807.86 59.2185C1817.2 58.2848 1828.41 60.1523 1832.77 68.556C1839.31 81.0061 1829.66 109.952 1852.39 111.197C1857.99 111.509 1863.28 109.019 1868.58 107.462C1873.87 105.906 1880.41 105.595 1884.45 109.33C1887.26 111.82 1888.19 115.866 1890.06 119.601C1894.11 127.694 1901.89 133.296 1910.3 136.72C1918.7 139.832 1933.65 146.369 1942.68 147.302C1797.9 145.124 1584 149.481 1439.22 147.302C1454.16 134.852 1475.65 128.627 1494.95 129.25Z" fill="url(#paint1_linear_836_12)"/>
<path d="M0.903365 165.123C1.83743 152.985 4.01691 140.535 8.68722 129.33C24.5663 88.867 71.5807 58.3644 115.482 69.2582C142.569 76.1057 166.232 94.7808 178.998 119.681C186.47 133.998 191.763 152.051 207.02 157.653C234.419 168.236 258.393 129.018 287.66 130.575C306.653 131.82 319.73 149.561 331.561 164.501C343.393 179.441 360.517 191.58 378.264 184.732C383.869 182.554 388.539 178.507 393.521 175.706C410.645 166.368 439.601 168.547 455.48 179.441C471.671 190.646 481.634 221.149 498.447 227.062C516.817 233.599 542.659 224.261 558.538 224.572C593.41 224.884 618.941 228.619 649.142 243.559C649.142 243.559 136.031 243.559 94.9323 243.559C34.841 243.559 14.2916 222.705 4.32828 197.182C-0.342032 187.222 -0.0306967 175.706 0.903365 165.123Z" fill="url(#paint2_linear_836_12)"/>
<path d="M511.952 72.6531C512.575 72.0306 513.198 71.4081 513.82 70.7856C516.934 68.2956 521.293 67.6731 525.341 67.0506C533.436 65.8056 541.842 63.6268 547.758 58.0243C553.674 52.1105 555.853 43.7068 558.967 35.9255C563.637 23.4755 571.732 11.3367 583.564 4.80042C595.395 -1.73585 611.274 -2.0471 621.549 6.66792C633.692 16.9392 634.626 34.6805 639.919 49.3093C640.853 51.7993 643.032 54.9118 645.523 53.9781C646.769 53.6668 647.703 52.4218 648.014 51.488C650.505 46.8193 650.816 41.528 653.93 37.4818C660.468 28.7667 675.413 31.2567 682.886 39.3493C690.358 47.4418 693.16 58.6468 697.208 68.9181C698.765 72.3418 700.321 76.0768 703.746 78.2556C706.86 80.1231 710.908 80.4344 714.644 80.1231C723.05 79.8119 731.768 79.5006 740.175 78.5669C750.138 77.6331 753.874 86.9706 761.97 86.9706C699.076 86.9706 636.494 86.9706 573.6 86.9706C555.853 86.9706 537.795 88.2156 520.359 86.0369C516.934 85.7256 512.886 84.7919 511.018 81.6794C509.15 78.8781 510.084 75.1431 511.952 72.6531Z" fill="url(#paint3_linear_836_12)"/>
<defs>
<linearGradient id="paint0_linear_836_12" x1="1062.99" y1="503.016" x2="1062.99" y2="231.446" gradientUnits="userSpaceOnUse">
<stop offset="0.0911791" stop-color="#FFDCB9" stop-opacity="0.5"/>
<stop offset="0.3913" stop-color="#FEE0B8" stop-opacity="0.6651"/>
<stop offset="0.7177" stop-color="#FCEDB6" stop-opacity="0.8447"/>
<stop offset="1" stop-color="#F9FFB3"/>
</linearGradient>
<linearGradient id="paint1_linear_836_12" x1="1690.92" y1="147.557" x2="1690.92" y2="59.0576" gradientUnits="userSpaceOnUse">
<stop stop-color="#FFFFDD" stop-opacity="0.5"/>
<stop offset="1" stop-color="white"/>
</linearGradient>
<linearGradient id="paint2_linear_836_12" x1="324.512" y1="243.633" x2="324.512" y2="66.8267" gradientUnits="userSpaceOnUse">
<stop stop-color="#FFFFDD" stop-opacity="0.5"/>
<stop offset="1" stop-color="white"/>
</linearGradient>
<linearGradient id="paint3_linear_836_12" x1="635.99" y1="87.0821" x2="635.99" y2="-0.0466928" gradientUnits="userSpaceOnUse">
<stop stop-color="#FFFFDD" stop-opacity="0.5"/>
<stop offset="1" stop-color="white" stop-opacity="0.5"/>
</linearGradient>
</defs>
</svg>
