<svg width="1920" height="495" viewBox="0 0 1920 495" fill="none" xmlns="http://www.w3.org/2000/svg">
<path d="M2068.52 469.893C2060.43 437.523 2047.66 405.153 2030.85 374.028C2025.24 363.445 2018.39 352.551 2004.38 345.704C1990.37 338.856 1972.62 338.234 1955.19 338.856C1949.9 330.141 1944.91 321.737 1939.62 313.022C1935.26 305.864 1930.59 298.705 1926.54 291.546C1924.36 287.811 1922.5 284.076 1920.32 280.341C1919.07 277.54 1917.52 271.315 1915.02 269.447C1920.32 273.494 1926.23 276.917 1932.77 278.785C1918.14 252.017 1905.68 229.296 1898.52 201.283C1901.95 205.641 1906.93 208.753 1912.53 210.31C1905.37 199.105 1900.39 186.966 1897.59 174.205C1898.52 177.628 1902.26 180.118 1906 180.43C1893.54 151.794 1880.46 115.067 1880.46 111.021C1881.71 112.266 1883.27 113.199 1885.13 113.511C1881.4 110.087 1878.28 105.729 1876.73 101.061C1879.22 103.239 1880.15 105.107 1882.64 105.107C1874.86 84.8756 1873.3 76.4718 1871.75 64.6443C1873.3 66.2005 1873.93 66.823 1874.86 66.823C1870.5 56.2405 1868.01 51.883 1864.9 37.5654C1866.14 39.7442 1866.45 38.4992 1867.7 39.7442C1863.65 31.963 1858.67 8.61916 1858.67 0.837891C1857.42 11.7317 1854.93 23.8704 1848.71 33.5192C1850.57 32.5855 1851.51 31.3405 1853.06 29.1617C1846.22 59.6643 1845.28 85.1868 1826.6 107.286C1828.78 106.663 1831.27 106.041 1833.45 105.418C1832.52 111.021 1830.34 116.312 1827.53 120.981C1829.71 120.047 1832.2 118.802 1834.38 117.868C1826.91 139.033 1822.55 148.682 1808.23 167.046C1812.9 165.178 1817.26 162.377 1820.37 158.953C1816.01 167.046 1811.34 175.138 1806.98 183.231C1812.9 183.231 1815.39 181.052 1820.06 177.94C1811.97 200.972 1798.27 231.475 1784.88 251.706C1788.61 251.395 1791.73 250.772 1796.71 247.037C1793.6 254.819 1791.42 258.865 1787.99 264.156C1783.32 252.951 1779.27 241.746 1776.16 229.607C1779.59 233.965 1784.57 237.388 1790.17 238.945C1783.01 227.428 1778.03 214.667 1775.23 201.906C1776.16 205.33 1779.9 208.131 1783.63 208.131C1771.18 178.562 1758.1 140.589 1758.1 136.543C1759.35 137.788 1760.9 138.722 1762.77 139.033C1759.04 135.298 1755.92 130.941 1754.37 126.272C1756.86 128.451 1757.79 130.318 1760.28 130.318C1752.5 109.153 1750.94 100.749 1749.38 88.2994C1750.94 89.8556 1751.56 90.4781 1752.5 90.4781C1748.14 79.5843 1745.65 74.9156 1742.53 59.9755C1743.78 62.1543 1744.09 60.9092 1745.34 62.1542C1741.29 54.0617 1736.31 30.0954 1736.31 22.0029C1735.06 33.5192 1732.57 45.658 1726.34 55.618C1728.21 54.373 1729.15 53.4393 1730.7 50.9493C1723.85 82.3856 1722.92 108.531 1704.24 131.563C1706.42 130.941 1708.91 130.318 1711.09 129.384C1710.15 134.987 1707.97 140.589 1705.17 145.569C1707.35 144.636 1709.84 143.391 1712.02 142.457C1704.55 164.245 1700.19 174.205 1685.87 193.191C1690.54 191.323 1694.9 188.522 1698.01 184.787C1693.65 193.191 1688.98 201.283 1684.62 209.687C1690.54 209.687 1693.03 207.508 1697.7 204.085C1691.78 221.826 1682.44 244.236 1672.48 262.911C1666.56 243.925 1661.58 225.561 1661.58 223.071C1662.52 224.005 1663.76 224.938 1665.32 225.25C1662.52 222.137 1660.34 218.402 1659.09 214.667C1660.96 216.535 1661.58 218.091 1663.76 218.402C1658.47 201.595 1658.16 194.747 1657.53 185.098C1658.78 186.343 1659.09 186.966 1660.03 186.966C1657.22 178.251 1655.36 174.516 1653.8 162.688C1654.73 164.556 1655.04 163.622 1655.98 164.556C1653.18 158.02 1650.68 139.033 1651 132.808C1649.44 141.523 1646.64 151.172 1641.03 158.331C1642.59 157.708 1643.21 156.775 1644.77 154.907C1637.61 178.873 1635.43 199.416 1618.93 216.223C1620.79 215.912 1622.66 215.29 1624.53 214.978C1623.29 219.336 1621.42 223.382 1618.93 227.117C1620.79 226.495 1622.66 225.872 1624.53 224.938C1617.06 241.435 1613.32 248.905 1600.56 262.911C1604.29 261.666 1608.03 259.798 1610.83 256.997C1606.78 263.222 1602.74 269.447 1598.69 275.672C1603.36 275.984 1605.54 274.427 1609.59 272.248C1603.36 286.255 1594.33 303.685 1585.3 318.002C1579.07 304.93 1574.09 291.546 1573.78 289.99C1574.71 290.612 1575.65 291.235 1576.58 291.235C1574.09 289.367 1572.22 286.877 1571.29 284.387C1572.85 285.632 1573.47 286.566 1575.03 286.566C1570.04 275.361 1569.11 270.692 1568.18 264.156C1569.11 265.09 1569.42 265.401 1570.04 265.401C1567.24 259.487 1565.68 257.308 1563.82 249.216C1564.75 250.461 1564.75 249.838 1565.68 250.461C1563.19 246.103 1560.08 233.342 1560.08 228.985C1559.15 234.898 1557.59 241.746 1553.85 247.037C1555.1 246.415 1555.72 245.792 1556.66 244.547C1552.3 261.355 1551.67 275.361 1539.84 287.5C1541.4 287.189 1542.64 286.877 1544.2 286.566C1543.58 289.679 1542.33 292.48 1540.47 295.281C1542.02 294.659 1543.27 294.036 1544.82 293.725C1540.15 305.241 1537.35 310.532 1528.32 320.804C1531.44 319.87 1533.93 318.314 1535.79 316.446C1532.99 320.804 1530.19 325.161 1527.39 329.83C1531.12 329.83 1532.68 328.585 1535.48 327.029C1531.44 336.989 1525.52 349.127 1518.98 359.399C1514.31 350.684 1510.89 342.902 1510.58 341.657C1511.51 342.28 1512.44 342.591 1513.38 342.902C1510.89 341.346 1509.02 339.167 1508.08 337.3C1509.64 338.234 1510.26 339.167 1511.82 339.167C1506.84 329.83 1505.9 326.095 1504.97 320.492C1505.9 321.115 1506.22 321.426 1506.84 321.426C1504.04 316.446 1502.48 314.579 1500.61 308.042C1501.55 308.976 1501.55 308.354 1502.48 308.976C1499.99 305.241 1496.88 294.659 1496.88 291.235C1495.94 296.215 1494.38 301.817 1490.65 306.175C1491.89 305.552 1492.52 305.241 1493.45 303.996C1489.09 318.002 1488.47 329.519 1476.64 339.79C1478.19 339.479 1479.44 339.167 1481 338.856C1480.37 341.346 1479.13 343.836 1477.26 346.015C1478.82 345.704 1480.06 345.081 1481.62 344.77C1476.95 354.419 1474.15 358.776 1465.12 367.18C1468.23 366.246 1470.72 365.001 1472.59 363.445C1469.79 367.18 1466.99 370.915 1464.18 374.339C1467.92 374.339 1469.48 373.405 1472.28 371.849C1468.85 379.008 1463.87 385.233 1460.45 392.391C1457.96 397.371 1456.09 404.219 1449.86 405.775C1452.97 404.841 1456.4 404.219 1459.51 403.285C1456.71 406.709 1453.91 409.51 1450.48 412.311C1452.35 412.311 1454.22 411.689 1455.78 410.444C1453.29 414.49 1449.55 417.603 1445.19 419.47C1446.44 417.914 1447.06 415.735 1447.06 413.556C1444.88 416.046 1443.01 418.536 1440.83 421.026C1442.08 418.536 1442.39 416.046 1442.08 413.245C1440.83 416.669 1438.34 419.781 1434.92 421.649C1436.78 417.914 1436.47 413.556 1434.6 409.821C1433.98 414.179 1432.43 418.225 1429.62 421.649C1429.93 419.781 1430.25 417.603 1429.93 415.735C1428.38 418.225 1426.51 420.404 1424.95 422.894C1424.33 420.715 1424.33 418.536 1424.33 416.358C1423.4 417.603 1422.46 419.159 1421.84 420.715C1421.84 418.225 1422.15 416.046 1422.15 413.556C1419.04 416.046 1417.48 420.404 1417.79 424.45C1415.3 420.715 1412.5 417.291 1410.32 413.245C1409.07 411.066 1408.45 407.331 1406.58 405.153C1407.52 406.086 1409.07 407.02 1410.63 407.02C1407.83 402.663 1406.58 400.795 1405.03 395.815C1407.21 397.683 1408.76 397.994 1410.32 397.994C1404.09 388.034 1398.18 373.405 1394.44 362.511C1396.62 364.067 1397.55 365.001 1400.36 365.001C1398.18 361.266 1396.31 357.22 1394.13 353.485C1395.69 355.041 1397.55 356.598 1399.73 357.531C1393.19 348.505 1391.33 343.836 1387.9 333.876C1388.84 334.499 1390.08 334.81 1391.02 335.432C1389.77 332.942 1388.84 330.452 1388.21 327.962C1389.15 328.274 1390.39 328.585 1391.33 328.896C1382.92 318.314 1382.3 305.864 1379.5 291.235C1380.43 292.48 1380.74 292.791 1381.67 293.414C1378.87 288.745 1377.63 283.142 1377 277.851C1377 281.586 1374.83 292.791 1372.96 296.526C1373.58 295.904 1373.58 296.526 1374.2 295.592C1372.96 302.44 1371.71 304.619 1369.84 309.91C1370.15 309.91 1370.47 309.599 1371.4 308.976C1370.78 314.89 1370.15 318.625 1366.42 328.585C1367.66 328.585 1367.98 327.651 1369.22 326.717C1368.29 328.896 1367.04 331.075 1365.48 332.631C1366.42 332.32 1367.04 332.009 1367.66 331.386C1367.66 333.254 1361.75 350.995 1356.14 364.69C1358.01 364.69 1359.57 363.445 1359.88 361.889C1358.63 367.803 1356.14 373.716 1353.03 379.319C1355.52 378.385 1357.7 376.829 1359.26 374.961C1356.14 388.345 1350.23 399.239 1343.69 412.311C1346.8 411.378 1349.61 409.821 1351.78 407.954C1350.85 408.888 1349.92 412 1349.29 413.245C1348.36 415.113 1347.43 416.98 1346.49 418.536C1344.31 422.271 1342.44 426.94 1339.95 430.675C1339.02 431.92 1337.77 432.854 1336.53 433.788C1336.22 434.099 1335.91 434.099 1335.59 433.788C1335.59 433.788 1335.59 433.476 1335.59 433.165C1335.59 431.92 1335.91 430.364 1335.91 429.119C1334.35 430.053 1333.41 431.609 1332.17 433.165C1330.92 434.41 1329.37 435.655 1327.5 435.966C1327.81 433.476 1329.99 431.298 1329.68 429.119C1327.5 431.92 1325.32 435.033 1322.83 437.523C1322.52 437.834 1321.89 438.145 1321.58 437.834C1322.21 435.033 1322.21 432.543 1322.21 429.741C1320.96 432.543 1319.09 435.344 1316.6 437.523C1316.91 435.966 1316.91 434.41 1316.29 432.854C1315.05 435.033 1313.8 436.9 1312.55 439.079C1312.24 439.701 1311.62 440.324 1311 439.701C1310.69 439.39 1310.69 439.079 1310.69 438.768C1310.69 436.278 1311.31 433.788 1312.24 431.298C1310.69 434.41 1308.82 437.523 1306.95 440.324C1306.64 440.635 1306.33 440.946 1306.02 440.946C1305.39 440.946 1305.08 440.324 1305.08 439.701C1304.46 436.9 1304.46 433.788 1304.46 430.675C1303.21 433.788 1302.28 437.211 1301.66 440.635C1298.85 437.523 1298.23 433.165 1297.61 429.119C1296.99 433.476 1296.68 437.523 1296.05 441.88C1295.12 438.456 1294.5 435.344 1294.5 431.92C1293.25 435.966 1292 439.701 1290.76 443.748C1290.14 444.059 1289.83 442.814 1289.83 442.191C1289.83 440.324 1289.83 438.456 1289.83 436.278C1288.27 438.768 1287.02 441.258 1285.47 443.748C1285.15 440.635 1285.16 437.211 1285.78 434.099C1282.98 436.589 1281.42 440.635 1281.73 444.37C1280.17 441.569 1278.62 438.768 1277.06 435.966C1277.68 439.39 1277.37 442.814 1276.13 445.926C1275.81 446.549 1275.81 446.86 1275.19 447.171C1274.26 447.171 1273.95 446.238 1273.95 445.615C1273.95 443.748 1273.95 442.191 1274.57 440.324C1271.46 442.191 1268.96 445.304 1267.41 448.416C1267.1 445.926 1268.03 443.436 1269.28 441.258C1266.47 443.436 1263.98 446.238 1262.43 449.35C1262.11 446.549 1262.11 443.748 1262.74 440.946C1259.94 443.125 1257.76 445.615 1256.2 448.728C1254.95 446.238 1254.33 443.748 1253.71 440.946C1253.09 444.059 1251.84 447.171 1249.66 449.661C1248.73 446.86 1248.73 443.436 1249.97 440.635C1247.79 442.503 1245.92 444.993 1244.68 447.483C1244.68 445.615 1244.99 443.436 1245.61 441.569C1243.12 444.059 1241.25 447.171 1240.01 450.284C1239.07 448.105 1239.07 445.926 1239.39 443.748C1238.14 445.615 1237.21 447.794 1236.58 449.973C1235.96 447.794 1235.03 445.304 1234.4 443.125C1234.72 445.615 1233.47 447.794 1231.6 449.661C1231.91 448.105 1231.91 446.549 1231.6 444.993C1230.05 447.483 1228.49 449.973 1226.93 452.463C1226.31 452.463 1226.31 451.529 1226.31 450.907C1226.62 448.728 1226.62 446.86 1226.93 444.681C1225.06 446.86 1223.51 449.35 1222.26 452.151C1221.64 451.84 1221.33 450.906 1221.33 450.284C1221.33 448.416 1221.33 446.549 1221.33 444.681C1219.77 446.86 1218.21 449.35 1217.28 451.84C1216.03 449.039 1214.79 446.238 1213.54 443.748C1213.23 446.86 1212.61 450.284 1211.05 452.774C1210.43 452.774 1210.12 451.84 1209.81 451.218C1209.5 449.35 1209.5 447.483 1209.5 445.615C1207.01 448.105 1204.83 450.906 1202.33 453.396C1202.96 451.218 1203.89 449.039 1204.51 446.86C1201.71 449.039 1199.53 451.84 1197.66 454.641C1197.66 452.151 1198.29 449.661 1198.91 447.171C1196.42 449.35 1194.55 452.152 1193.31 455.575C1192.68 452.152 1191.75 449.039 1190.5 445.926C1190.19 448.105 1189.88 449.973 1188.95 451.84C1188.01 453.708 1186.46 455.264 1184.59 456.198C1184.9 454.33 1185.52 452.463 1186.14 450.595C1183.97 452.463 1181.79 454.33 1179.61 456.198C1179.61 454.019 1180.54 451.84 1182.1 449.973C1179.92 451.218 1177.74 452.774 1176.18 454.641C1176.8 453.396 1176.8 451.84 1176.8 450.284C1176.8 449.661 1176.49 448.728 1176.49 448.105C1173.69 451.529 1170.89 454.953 1168.4 458.377C1168.4 456.198 1168.4 454.019 1168.4 451.84C1166.84 453.708 1165.6 456.198 1164.97 458.377C1164.35 458.377 1164.04 457.131 1164.35 456.509C1165.28 454.019 1165.91 451.529 1166.84 449.039C1164.04 451.529 1162.17 454.641 1160.92 458.065C1159.99 456.198 1159.37 454.019 1159.06 451.529C1158.75 453.708 1158.12 455.575 1157.81 457.754C1156.88 455.264 1155.94 452.774 1154.7 450.284C1154.7 453.396 1153.76 456.198 1151.9 458.688C1151.58 459.31 1150.65 459.621 1150.34 459.31C1150.65 458.065 1150.96 456.82 1151.27 455.264C1148.16 457.443 1144.73 459.31 1141 460.244C1143.18 458.377 1145.67 456.198 1145.98 453.085C1143.18 455.886 1139.75 458.065 1136.33 460.244C1137.57 458.065 1138.82 455.886 1138.2 453.396C1136.02 456.198 1133.21 458.999 1130.41 461.178C1130.1 459.31 1130.72 457.443 1131.97 455.886C1130.1 457.131 1128.54 458.688 1127.3 460.555C1127.61 458.065 1128.23 455.886 1129.17 453.708C1126.68 455.886 1124.5 458.065 1122.32 460.555C1122.32 457.754 1123.25 454.953 1124.81 452.774C1122.01 454.953 1119.83 457.443 1118.27 460.244C1118.27 457.443 1118.89 454.642 1120.14 452.463C1117.02 454.33 1115.78 458.376 1113.29 461.178C1112.66 458.688 1113.29 455.575 1115.16 453.708C1112.98 454.953 1110.8 457.131 1109.55 459.31C1109.24 457.443 1108.93 455.887 1108.31 454.019C1106.75 456.198 1105.5 458.688 1103.95 460.866C1103.32 461.489 1102.7 462.423 1101.77 462.111C1101.46 461.8 1101.14 461.178 1101.14 460.866C1101.14 459.933 1100.83 459.31 1100.83 458.377C1100.21 459.622 1099.9 461.178 1099.28 462.423C1097.72 460.555 1098.03 458.065 1098.34 455.886C1095.85 457.754 1093.98 460.244 1093.05 462.734C1092.12 461.178 1092.12 459.31 1092.12 457.754C1091.18 459.621 1090.56 461.178 1089.62 463.045C1088.38 462.112 1088.38 460.244 1088.69 458.688C1088.69 457.754 1089 456.509 1089 455.575C1085.89 457.132 1084.64 460.555 1083.4 463.668C1083.09 461.8 1083.09 459.621 1083.71 457.754C1082.15 459.31 1080.6 461.489 1079.66 463.668C1079.04 461.489 1079.66 458.999 1080.28 456.509C1078.1 458.688 1076.55 461.489 1076.24 464.602C1075.61 462.112 1074.68 459.31 1073.12 457.132C1073.12 459.933 1072.19 462.734 1070.32 464.602C1070.01 464.913 1069.7 465.224 1069.39 464.913C1069.08 464.602 1069.08 464.29 1069.39 463.668C1070.01 462.734 1070.32 461.489 1070.94 460.555C1069.39 461.8 1067.83 463.357 1066.27 464.602C1066.58 463.045 1067.21 461.8 1067.83 460.555C1065.96 461.8 1064.09 463.357 1062.54 464.913C1062.85 462.734 1063.78 460.866 1065.03 459.31C1063.16 460.244 1061.29 461.489 1059.73 463.045C1059.73 461.8 1059.73 460.244 1059.73 458.999C1057.56 460.866 1055.38 462.423 1052.88 464.29C1052.57 464.602 1051.95 464.913 1051.64 464.29C1051.33 463.979 1051.64 463.668 1051.95 463.357C1052.88 461.8 1054.13 460.244 1055.06 458.377C1052.26 459.31 1049.77 461.8 1047.59 463.979C1047.59 462.423 1047.9 460.866 1048.84 459.621C1047.28 461.178 1046.04 462.734 1044.79 464.29C1044.79 462.111 1044.79 459.621 1044.17 457.443C1043.23 459.933 1041.68 462.111 1039.81 463.668C1039.5 463.979 1039.19 464.29 1038.87 464.29C1039.81 462.734 1040.43 460.867 1040.74 458.688C1038.25 460.244 1036.07 462.112 1034.2 464.602C1034.51 462.423 1035.45 460.555 1036.38 458.688C1034.83 459.622 1033.27 460.866 1031.71 462.111C1032.02 460.866 1032.34 459.31 1032.34 458.065C1030.78 460.866 1028.6 463.668 1025.8 465.224C1025.49 465.535 1025.17 465.535 1024.86 465.535C1025.49 463.979 1025.8 462.734 1026.42 461.178C1024.55 462.111 1022.68 463.668 1021.44 465.224C1020.82 465.846 1020.5 466.158 1019.57 466.158C1019.57 464.29 1020.82 462.734 1022.06 461.178C1020.19 462.111 1018.64 463.357 1017.7 464.913C1017.39 465.535 1016.77 465.847 1016.15 466.158C1015.83 464.29 1016.77 462.112 1017.7 460.244C1015.83 461.8 1013.97 463.979 1012.72 466.158C1012.72 463.979 1012.41 461.489 1012.41 459.31C1011.47 461.489 1010.85 463.668 1009.61 465.535C1009.61 463.045 1009.3 460.867 1008.98 458.377C1007.43 461.178 1005.25 463.668 1002.76 465.535C1002.45 465.846 1002.13 465.847 1002.13 465.847C1001.82 465.847 1001.82 465.224 1001.82 464.602C1002.45 463.357 1002.76 462.111 1003.38 460.866C1001.51 461.489 1000.27 463.668 998.709 465.224C998.398 465.535 998.087 465.535 998.087 465.535C998.709 463.668 999.332 462.111 1000.27 460.555C998.087 462.111 995.907 463.979 994.35 466.158C994.662 463.668 995.596 460.866 997.464 458.999C995.284 460.555 993.416 462.423 991.859 464.602C991.859 463.045 991.548 461.178 991.237 459.621C989.68 461.489 988.123 463.668 986.255 465.535C985.944 465.846 985.944 465.847 985.632 465.847C985.321 465.847 985.321 465.535 985.321 465.224C985.01 464.29 985.01 463.356 984.698 462.423C984.076 463.979 983.142 465.224 982.208 466.78C982.208 464.913 981.896 463.045 981.896 461.178C980.651 463.979 978.783 466.158 975.98 467.403C975.669 464.913 976.292 462.423 977.537 460.555C975.358 461.8 973.49 463.668 972.556 466.158C972.244 466.78 971.933 467.403 971.621 467.403C971.621 465.224 971.933 463.357 972.867 461.489C970.065 463.045 967.574 465.535 966.328 468.336C965.706 467.714 965.394 466.78 965.394 465.847C965.394 464.913 965.706 463.979 966.328 463.357C964.772 464.29 963.526 465.535 962.904 467.403C962.904 467.714 962.592 468.025 962.281 468.025C961.969 468.025 961.97 467.403 961.97 467.091C962.281 465.846 962.592 464.602 962.904 463.045C960.724 463.979 960.413 467.091 958.856 468.648C958.545 466.158 957.922 463.356 956.677 461.178C956.054 463.979 955.12 467.092 952.94 468.959C952.629 467.403 952.94 465.847 953.874 464.602C952.006 465.535 950.449 467.092 949.515 468.959C949.515 466.469 950.138 463.979 951.695 462.111C950.138 463.356 948.581 464.602 947.336 466.158C947.025 466.469 946.713 466.78 946.402 467.091C946.091 465.535 945.779 463.979 945.468 462.423C944.222 464.601 942.666 466.469 940.797 468.336C940.486 468.648 940.175 468.959 939.552 468.959C939.241 468.959 939.241 468.648 939.241 468.648C938.618 467.714 938.929 466.78 938.929 465.535C938.929 464.913 939.241 464.29 939.241 463.668C937.373 465.224 935.504 467.092 934.259 469.27C933.948 467.403 934.57 465.224 935.193 463.357C933.325 464.913 931.768 466.78 930.834 468.959C930.523 468.959 930.211 468.648 930.211 468.025C930.211 466.469 930.523 464.913 930.834 463.668C928.966 464.913 927.721 466.78 926.786 468.959C926.164 468.025 925.852 467.092 926.164 465.847C926.475 464.602 926.787 463.668 927.409 462.734C926.164 463.356 925.23 464.29 924.607 465.224C923.984 466.469 923.362 467.714 923.05 468.648C922.116 466.78 921.182 464.602 920.248 462.734C920.248 464.602 919.937 466.469 919.003 468.025C918.691 468.337 918.38 468.648 918.38 468.336L918.069 468.025C918.069 466.469 918.38 464.602 917.446 463.045C916.2 464.913 914.644 466.469 913.087 468.025C913.398 466.78 913.71 465.535 913.71 464.29C912.153 465.847 910.596 467.403 909.039 468.959C909.039 466.78 909.662 464.602 910.907 463.045C909.351 464.29 907.794 465.535 906.548 467.091C905.926 465.535 905.303 464.29 904.68 463.045C903.124 464.602 901.878 466.158 900.321 467.714C900.01 468.025 899.699 468.336 899.387 468.336C899.076 468.336 898.453 468.337 898.453 468.025C898.453 467.714 898.453 467.403 898.453 467.091C898.765 465.846 898.765 464.602 899.076 463.357C897.208 464.602 895.651 466.158 894.717 468.025C894.717 468.337 894.406 468.336 894.406 468.648C893.783 468.959 893.472 468.025 893.783 467.403C894.094 465.847 894.406 464.602 895.34 463.357C893.16 464.602 891.292 466.158 890.047 468.336C889.735 466.469 890.047 464.29 890.669 462.734C888.179 464.29 886.311 466.78 885.376 469.582C883.82 468.025 884.131 465.535 884.754 463.668C883.197 465.224 881.951 467.403 881.329 469.582C880.706 469.582 880.395 468.959 880.395 468.648C880.083 466.469 880.395 464.29 881.329 462.423C879.149 463.979 877.904 466.469 876.97 468.959C876.347 466.469 875.102 463.979 873.856 461.8C873.856 464.29 873.856 466.78 872.922 468.648C872.922 468.959 872.611 468.959 872.611 469.27C871.988 469.582 871.366 468.959 871.366 468.648C871.054 468.025 871.366 467.403 871.366 467.091C871.366 466.469 871.365 465.846 871.054 465.535C870.12 467.091 868.875 468.648 867.629 470.204C867.629 468.648 867.941 466.78 868.563 465.224C866.384 466.469 864.516 468.337 863.27 470.515C862.959 467.714 863.893 464.913 865.761 463.045C863.893 464.29 862.336 465.847 860.779 467.714C860.468 466.469 860.468 464.913 859.845 463.668C859.223 464.913 858.6 465.846 857.977 467.091C857.666 467.403 857.666 467.714 857.043 468.025C856.109 468.337 855.486 467.403 855.486 466.469C855.486 465.535 855.486 464.601 855.175 463.979C854.241 465.846 853.307 467.714 852.996 469.582C851.75 468.959 852.062 467.403 852.062 466.158C852.373 464.913 852.684 463.668 852.996 462.111C850.193 463.045 849.259 466.158 848.325 468.959C847.703 466.158 847.703 463.045 848.325 460.244C845.834 462.423 844.589 465.535 844.9 468.648C843.655 466.158 842.098 463.668 840.23 461.489C840.541 464.29 839.919 467.092 838.362 469.582C837.739 468.025 837.428 466.469 837.739 464.913C835.871 465.847 834.314 467.403 833.069 469.27C832.446 467.714 832.758 465.847 833.38 464.602C830.889 465.224 828.71 466.78 827.465 468.959C826.531 466.78 827.153 464.29 828.71 462.423C825.596 463.045 823.106 466.158 822.794 469.27C821.237 467.092 819.681 464.913 818.124 462.734C818.435 464.29 818.747 466.158 818.435 468.025C817.501 465.847 816.567 463.979 815.322 462.111C815.322 464.29 814.699 466.158 813.765 468.025C813.765 465.224 813.142 462.734 812.52 459.933C811.586 463.045 809.406 465.847 806.604 467.714C807.538 466.469 808.472 465.224 809.406 463.668C807.227 464.913 805.047 466.158 802.868 467.714C804.113 466.158 805.047 464.913 806.293 463.357C804.424 464.29 802.556 465.535 800.999 467.091C800.999 467.091 800.999 467.091 800.999 466.78C801.311 465.535 801.622 464.29 801.311 463.045C798.509 463.979 796.329 467.092 793.527 468.025C793.216 468.025 792.593 468.337 792.593 467.714C792.593 467.403 792.593 467.403 792.593 467.091C793.216 465.224 794.15 463.357 795.706 461.8C792.593 463.045 789.791 464.601 786.989 466.78C787.3 464.601 788.545 462.734 789.791 461.178C786.366 462.423 783.564 464.913 780.761 467.091C781.384 464.601 782.007 462.111 781.384 459.621C779.827 462.423 777.337 464.913 774.534 466.469C774.846 464.913 775.78 463.045 777.025 461.8C774.223 462.734 771.732 464.29 769.241 465.847C770.175 463.979 771.109 462.112 772.355 460.244C769.553 461.8 766.439 463.356 763.948 465.224C765.816 463.356 766.439 460.244 765.505 457.754C763.948 460.866 761.146 463.668 758.033 464.913C758.655 462.734 759.901 460.555 761.769 458.999C758.967 460.244 756.476 461.8 754.296 464.29C754.608 462.423 755.542 460.555 757.099 459.31C754.296 460.866 751.806 462.423 749.626 464.602C749.626 462.112 750.56 459.933 752.428 458.377C750.249 459.933 747.758 461.489 746.201 463.357C746.512 461.489 746.512 459.621 746.201 457.754C744.644 459.621 742.776 461.178 740.597 462.423C740.908 461.178 741.531 459.933 741.842 458.688C739.663 459.622 737.795 461.178 735.926 463.045C736.238 460.867 736.861 458.688 738.417 456.82C735.304 458.065 732.502 460.244 730.945 463.357C730.945 463.357 730.945 463.357 730.633 463.357C730.633 460.867 730.322 458.376 730.322 455.886C728.765 459.31 725.34 461.8 721.604 461.8C723.472 459.622 724.718 456.82 725.34 453.708C722.538 455.264 720.047 456.82 717.245 458.377C716.311 458.999 715.377 459.31 714.443 458.999C715.066 457.754 716 456.509 717.245 455.886C713.509 457.131 710.084 458.688 706.348 460.244C707.282 458.377 708.839 456.509 710.395 454.641C707.905 455.575 705.414 457.443 703.546 459.31C704.48 457.131 704.791 454.641 704.168 452.151C702.923 455.575 699.809 458.376 696.384 459.31C697.63 457.754 698.564 456.198 699.498 454.33C697.007 456.198 694.516 457.754 691.403 458.065C693.582 456.509 695.45 454.33 696.384 451.84C693.894 454.019 691.091 455.886 688.289 457.443C689.223 455.264 689.846 453.396 690.157 451.218C689.535 452.463 688.601 453.085 687.667 454.019C686.11 455.264 684.242 456.509 682.685 457.754C682.374 455.575 683.619 453.708 685.487 452.774C683.308 453.708 681.44 454.953 679.571 456.198C679.883 455.264 679.883 454.019 679.883 453.085C678.949 454.33 677.703 455.575 676.146 456.509C675.835 454.33 676.769 452.151 678.015 449.973C675.835 451.218 673.656 453.085 672.099 455.264C671.788 455.575 671.165 456.198 670.854 455.886C670.542 455.575 670.542 455.264 670.542 454.953C670.853 452.774 671.476 450.906 672.41 448.728C669.297 449.661 667.74 453.396 664.938 454.33C665.249 451.529 665.872 448.728 667.429 446.549C664.315 448.416 661.824 451.218 660.267 454.33C660.267 451.84 659.645 449.35 658.399 447.171C657.777 449.973 656.22 452.463 654.352 454.33C653.729 450.595 654.663 446.238 656.843 443.125C652.795 444.993 649.37 448.416 648.436 452.774C647.502 452.151 647.813 451.218 647.813 450.284C648.125 449.039 648.436 447.483 648.747 446.238C646.568 447.794 644.7 449.973 643.766 452.151C643.454 449.973 643.143 447.794 643.454 445.304C641.898 447.483 640.029 449.35 637.85 450.595C637.539 450.906 637.227 450.906 636.916 450.595V450.284C636.916 449.661 637.227 448.728 637.539 448.105C638.473 446.549 639.407 445.304 640.341 443.748C637.85 445.615 635.048 447.483 632.557 449.35C631.934 449.662 631 450.284 630.377 449.661C632.246 448.416 633.18 445.926 633.18 443.748C631.623 446.238 629.132 448.105 626.33 449.35C626.018 449.662 625.396 449.661 625.084 449.039C625.084 448.728 625.084 448.416 625.084 448.416C625.707 446.86 626.641 445.615 627.575 444.37C625.084 445.615 622.905 447.483 621.037 449.35H620.725C620.414 446.86 621.037 444.059 622.594 441.88C621.037 443.436 619.169 445.304 618.235 447.171C615.744 441.258 625.084 423.516 626.641 418.536C627.575 415.735 628.509 412.311 626.641 409.821C625.084 407.954 622.594 407.331 620.414 406.398C615.744 403.908 612.942 398.616 612.942 393.014C612.942 387.723 615.432 382.431 618.857 378.385C620.414 380.253 622.594 382.743 626.018 383.676C627.887 379.008 625.084 373.094 623.216 371.226C622.594 370.915 622.282 370.293 621.971 369.981C621.66 369.359 621.348 368.736 621.348 367.803C620.103 361.889 616.989 357.22 612.008 353.796C603.912 347.882 593.326 346.949 583.674 345.392C576.825 344.459 569.975 343.836 563.436 341.657C550.359 337.3 537.283 336.677 528.876 334.499C527.319 334.187 525.763 333.565 524.517 332.631C523.583 331.697 522.96 330.764 522.026 329.83C520.469 327.651 519.224 325.161 518.29 322.36C517.045 317.691 517.356 309.91 520.158 305.552C521.403 303.685 522.026 303.685 524.517 303.685C527.319 303.374 529.499 301.195 530.433 298.705C531.678 296.215 531.99 293.414 532.924 290.924C527.319 289.679 522.026 295.904 516.422 295.904C518.29 293.102 520.781 290.924 524.206 289.679C533.546 286.255 545.378 284.387 554.407 280.03C559.7 277.54 563.436 273.494 566.239 268.514C567.173 268.202 568.107 268.202 569.041 267.891C573.088 266.646 576.513 264.156 579.315 261.044C582.118 257.931 587.099 252.017 586.788 251.083C586.477 250.15 576.513 263.222 568.107 264.778C573.4 253.573 573.4 241.435 572.154 241.746C571.532 242.057 569.663 248.593 569.041 252.017C567.484 260.421 562.502 268.514 555.653 273.494C554.718 274.116 553.784 274.739 552.85 275.361C556.275 271.315 558.143 266.335 559.077 261.044C560.011 253.885 557.521 239.256 556.587 239.567C555.964 239.878 556.275 246.726 556.275 252.328C552.539 247.971 550.048 238.322 549.114 238.633C548.491 238.945 548.491 242.057 548.803 243.613C549.114 244.547 549.425 245.481 549.737 246.103C551.293 249.838 553.473 253.262 555.964 256.686C555.964 258.865 555.652 261.043 555.341 263.222C554.718 265.712 553.784 268.202 552.539 270.692C551.294 273.493 549.114 276.295 546.312 278.785C541.642 280.652 536.66 281.586 531.678 282.52C534.169 278.785 535.726 274.739 534.169 272.248C533.546 271.315 533.546 277.54 526.697 283.454C524.828 283.765 522.96 284.387 521.404 285.01C517.356 286.877 513.931 289.99 511.44 293.725C510.506 292.791 509.261 291.857 508.327 291.235C506.459 289.99 504.59 289.679 502.411 289.367C502.722 286.566 502.411 283.454 501.788 280.964C501.477 279.407 500.543 277.851 499.92 276.606C499.609 267.58 503.345 262.911 502.411 263.222C500.231 264.156 498.363 268.202 497.741 272.56C495.561 268.825 493.693 265.09 492.136 261.044C492.136 257.309 492.759 253.885 493.693 251.083C494.627 248.593 495.25 246.103 496.495 243.613C497.429 241.746 498.675 239.878 499.92 238.011C503.034 237.077 506.147 235.832 509.261 233.653C509.883 233.342 510.506 232.72 511.129 232.097C512.374 231.163 514.242 228.985 513.931 228.362C513.62 227.74 506.77 233.342 502.411 234.587C505.524 230.23 509.572 225.25 509.572 224.627C509.261 224.005 499.609 233.653 495.872 239.567C493.382 243.925 491.202 249.216 490.891 254.507C490.579 253.574 490.579 252.329 490.579 251.395C489.957 243.302 491.825 234.276 495.872 226.806C497.741 223.693 500.543 217.78 500.231 217.157C499.92 216.223 492.759 225.25 488.711 236.455C485.909 229.607 488.089 214.667 487.155 215.29C486.532 215.912 485.598 223.382 485.286 227.428C484.975 231.475 485.286 235.521 486.843 238.945C487.155 239.567 487.155 239.878 487.466 240.501C485.909 246.103 485.286 252.017 486.532 257.62C488.711 266.335 494.004 275.05 496.807 283.454C497.429 285.321 497.741 287.189 497.741 289.367C497.429 289.367 497.118 289.367 496.807 289.367C495.872 289.367 494.938 289.367 494.316 288.745C493.693 288.434 493.07 287.811 492.759 287.189C490.268 284.076 486.843 282.209 483.107 281.897C483.107 287.5 485.286 292.791 489.023 296.837C489.645 297.46 490.268 298.082 490.268 298.705C490.58 299.639 490.268 300.884 489.957 301.817C488.089 307.42 485.909 313.022 483.107 318.002C482.484 318.936 481.862 319.87 481.862 321.115C481.862 322.671 483.107 323.916 484.352 324.539C485.598 325.161 487.155 325.161 488.711 324.85C489.334 324.85 489.957 324.539 490.579 324.85C492.136 325.161 493.07 327.029 493.382 328.585C495.25 335.432 496.495 342.28 496.807 349.439C497.118 353.796 497.118 358.465 498.675 362.511C501.165 369.981 508.015 375.273 512.997 380.875L513.308 381.186C513.308 382.743 512.997 384.299 512.997 385.855C512.997 386.166 512.997 386.166 512.997 386.478C512.063 393.636 510.195 400.795 508.327 407.643C507.081 412 505.836 416.046 504.59 420.404C503.034 425.073 500.543 429.741 496.807 433.165C497.118 430.986 497.741 428.808 498.052 426.318C496.184 428.496 494.004 430.675 491.825 432.231C492.448 429.43 493.693 426.629 495.25 424.139C492.448 426.318 490.268 428.496 487.777 430.986C489.334 428.496 489.957 425.384 489.645 422.583C487.777 426.006 484.975 429.119 481.862 431.298C484.041 429.119 485.598 426.318 486.22 423.205C484.041 426.94 480.305 430.053 475.946 431.298C478.748 429.119 480.616 426.318 481.55 422.894C479.993 425.695 477.191 427.874 474.389 429.119C476.257 426.94 477.191 424.139 476.88 421.338C474.389 425.073 470.964 429.43 466.294 428.496C467.539 425.695 469.096 423.205 470.653 420.715C466.917 422.271 463.803 424.45 460.69 426.94C462.246 423.828 464.114 421.338 466.605 419.159C463.18 420.404 460.378 422.583 458.199 425.695C457.887 422.894 457.576 420.093 457.265 417.291C456.642 420.093 455.085 422.583 452.906 424.139C453.528 422.271 454.151 420.404 455.396 418.848C452.594 420.093 450.103 421.649 447.924 423.828C449.481 421.649 451.038 419.47 452.594 417.291C449.481 418.536 446.367 420.404 444.188 423.205C445.433 420.404 446.367 417.914 447.301 414.801C444.499 416.358 442.008 418.848 440.451 421.649C439.517 418.848 438.583 415.735 437.338 413.245C437.338 416.358 436.404 419.159 434.847 421.649C434.224 417.603 434.847 413.245 436.404 409.51C432.356 411.689 430.488 416.358 428.931 420.404C428.309 417.291 427.997 413.868 428.62 410.755C426.752 412.934 425.195 415.735 424.261 418.536C422.082 415.735 421.148 412.311 421.459 409.199C420.213 411.689 419.591 414.179 419.591 416.98C418.345 414.801 417.723 412 418.345 409.51C417.411 411.689 416.789 414.179 416.477 416.358C414.609 414.179 413.675 410.755 414.298 407.643C412.741 409.51 411.807 411.689 410.873 413.868C408.693 412.311 406.825 410.133 404.646 408.265C402.155 406.086 402.155 404.53 402.466 401.418C402.466 400.173 402.778 398.616 402.778 397.06C404.334 399.55 407.137 404.219 408.693 404.219C409.939 404.219 410.561 402.974 410.561 401.729C410.561 400.484 410.25 399.55 409.939 398.305C409.627 395.504 411.184 392.703 413.052 390.524C414.92 388.345 417.411 386.789 419.279 384.299C423.95 378.696 423.95 370.915 425.195 364.067C427.063 355.041 431.111 346.637 434.847 338.545C437.961 331.697 438.895 323.916 437.338 316.757C436.715 313.334 435.47 310.221 434.536 307.109C433.913 303.685 433.602 300.572 433.29 297.149C432.668 290.612 432.356 283.454 431.734 276.917C432.045 275.672 432.356 274.116 432.668 272.871C433.29 271.004 433.913 269.136 434.536 267.269C435.158 264.779 434.847 261.977 434.536 259.487C434.224 256.997 433.913 254.196 432.979 251.706C435.781 251.084 438.583 250.15 440.763 248.282C443.876 245.792 446.056 242.057 446.056 238.011C442.008 241.435 436.404 241.435 431.111 242.991C431.733 239.256 432.979 235.832 435.781 232.72C443.254 224.627 453.84 216.846 460.378 208.131C464.426 203.151 465.982 196.926 466.294 191.012C467.228 190.39 467.851 189.767 468.785 188.833C471.898 185.721 474.078 181.363 475.323 177.317C476.569 172.96 478.437 164.867 477.503 163.933C476.88 163.311 473.455 180.741 465.982 186.655C465.671 173.271 459.444 161.132 458.51 162.066C457.887 162.688 459.444 169.847 460.69 173.582C463.492 182.608 462.558 192.88 458.199 201.283C457.576 202.528 456.953 203.462 456.33 204.396C457.576 198.793 456.953 192.568 455.085 187.277C452.594 179.807 442.631 166.735 442.008 167.357C441.386 167.98 445.122 174.516 447.924 180.118C442.008 177.628 434.847 169.536 434.224 170.158C433.602 170.781 435.158 173.582 436.404 175.138C437.027 175.761 437.649 176.695 438.583 177.317C442.008 180.118 446.056 182.297 449.792 184.476C450.726 186.655 451.972 188.833 452.283 191.323C452.906 194.125 453.217 197.237 453.217 200.038C453.217 203.462 452.594 207.197 451.038 211.243C447.301 215.29 442.942 218.713 438.583 222.137C439.206 217.157 438.583 212.488 435.781 210.932C434.536 210.31 437.961 216.223 433.913 225.872C432.356 227.117 430.799 228.362 429.554 230.23C426.752 233.653 425.195 237.7 424.572 241.746C420.836 240.19 416.477 240.501 413.052 241.746H412.741C411.807 237.388 410.25 233.342 407.759 229.918C406.514 228.362 404.957 227.117 403.4 225.561C399.353 216.223 402.778 209.998 401.532 210.621C398.73 212.177 398.107 217.157 398.73 221.826C394.371 218.713 390.012 214.978 386.276 210.932C384.719 207.197 384.096 203.151 384.096 199.727C384.096 196.926 384.408 193.813 385.03 191.012C385.653 188.522 386.587 186.343 387.521 184.165C391.569 182.297 395.305 179.807 398.73 177.006C399.353 176.383 400.287 175.761 400.909 174.827C402.155 173.582 403.712 170.47 403.089 169.847C402.466 169.225 395.305 177.317 389.389 179.807C392.192 174.516 395.928 167.668 395.305 167.046C394.682 166.423 384.719 179.185 382.228 186.966C380.36 192.568 379.737 198.482 380.983 204.085C380.36 203.151 379.737 201.906 379.115 200.972C374.756 192.568 373.822 182.297 376.624 173.271C377.869 169.536 379.426 162.377 378.803 161.754C377.869 160.821 371.642 172.648 371.331 186.343C363.858 180.741 360.745 162.999 359.811 163.622C358.877 164.556 360.745 172.648 361.99 177.006C363.236 181.363 365.415 185.41 368.529 188.522C369.463 189.145 370.085 190.078 371.019 190.701C371.331 196.615 373.199 202.84 376.935 207.82C383.785 216.535 394.371 224.316 401.532 232.408C403.712 234.898 404.957 237.7 405.58 240.501C403.712 239.878 401.532 239.567 399.664 239.256C396.862 238.633 393.748 237.077 392.503 234.587C391.88 239.256 393.748 243.925 396.862 247.348C398.419 249.216 400.598 250.461 402.778 251.395C402.466 252.64 402.466 254.196 402.155 255.441C401.532 265.09 399.353 273.494 396.551 282.52C395.928 284.387 395.305 286.255 394.371 288.122C390.012 295.904 379.426 298.394 371.331 301.195C364.481 303.374 357.943 305.864 351.093 308.042C341.441 311.155 331.166 315.201 325.873 323.605C323.694 327.029 322.137 331.386 318.712 333.876C322.137 335.744 326.496 335.744 329.609 333.565C328.053 334.499 331.166 343.836 331.477 345.081C332.1 348.816 333.034 353.174 332.412 356.909C332.1 359.71 330.855 362.511 329.609 365.001C327.119 369.359 323.694 373.094 319.957 376.206C318.401 377.451 316.532 378.696 315.91 380.564C315.598 381.498 315.598 382.431 315.91 383.365C316.221 387.1 316.533 390.524 317.155 394.259C317.467 395.815 317.778 397.06 317.467 398.616C317.155 399.861 314.976 402.663 314.976 399.861C314.976 398.928 315.287 398.305 314.976 397.371C314.042 398.928 313.419 400.484 312.485 402.04C312.485 399.55 312.485 397.06 312.485 394.259C312.174 397.371 309.994 399.861 307.503 401.418C308.749 399.55 309.371 397.06 309.06 394.57C308.437 397.06 306.881 399.55 304.39 400.795C305.635 398.305 306.881 395.193 305.635 392.703C303.456 395.504 300.965 398.305 297.851 400.173C298.785 397.683 299.408 395.193 300.031 392.703C297.229 394.57 294.738 397.06 292.87 399.861C292.558 397.06 292.87 394.259 293.804 391.458C290.69 393.636 288.511 396.749 287.265 400.173C285.708 397.683 284.152 394.881 282.595 392.391C283.84 392.391 285.086 392.391 286.02 392.08C275.745 381.186 252.705 346.637 247.723 336.677C249.28 337.922 251.148 338.856 253.328 339.167C249.591 333.876 247.723 331.697 245.232 325.784C248.346 327.962 250.525 328.274 252.705 328.585C244.298 316.757 235.58 299.016 230.287 285.321C233.09 287.189 234.958 288.434 238.694 288.434C235.892 283.765 233.09 279.096 229.976 274.427C231.844 276.606 234.646 278.162 237.76 279.096C228.731 268.202 225.928 262.6 221.258 250.461C222.815 251.083 224.06 251.706 225.617 252.328C223.749 249.527 222.504 246.415 221.881 243.302C223.438 243.613 224.683 243.925 226.24 244.547C214.408 231.475 213.786 216.535 209.427 198.793C210.672 200.038 210.983 200.661 212.229 201.283C208.181 195.681 206.625 188.522 205.69 182.297C205.69 186.966 202.577 200.35 200.086 205.018C201.02 204.396 201.02 205.018 201.954 203.773C200.086 212.177 198.529 214.667 195.727 220.892C196.35 220.892 196.661 220.581 197.595 219.647C196.661 226.806 195.727 231.475 190.745 243.302C192.302 243.302 192.925 242.057 194.482 240.812C193.236 243.614 191.368 246.103 189.189 247.971C190.434 247.66 191.368 247.348 192.302 246.415C192.302 248.905 183.896 270.381 175.8 286.877C178.291 286.877 180.782 285.321 181.405 283.454C179.537 290.924 176.423 298.082 171.753 304.619C175.178 303.685 178.603 301.817 180.782 299.327C178.603 307.731 175.178 315.201 171.442 322.671C167.705 315.201 164.592 308.665 163.346 304.93C164.903 306.797 167.083 308.042 169.262 308.042C165.214 300.884 163.346 297.771 160.855 289.679C164.28 292.791 166.46 293.102 168.951 293.414C159.921 277.229 150.581 252.64 145.288 234.276C148.401 236.766 150.269 238.322 154.006 238.633C150.892 232.097 147.779 225.872 144.976 219.336C147.156 222.137 149.958 224.316 153.072 225.872C143.42 210.932 140.617 203.462 135.324 186.343C136.881 187.277 138.438 187.9 139.995 188.833C138.127 184.787 136.57 180.741 135.947 176.383C137.504 177.006 139.061 177.317 140.617 177.94C127.852 160.198 127.229 139.656 122.87 115.378C124.116 117.246 124.738 118.179 125.984 118.802C121.936 111.021 120.068 101.683 119.134 92.6569C119.134 98.8819 115.709 117.246 113.218 123.782C114.152 122.848 114.152 123.782 115.086 122.226C112.907 133.742 111.35 137.166 108.548 145.881C109.171 145.881 109.482 145.258 110.727 144.325C109.793 153.973 108.859 160.51 103.255 176.695C105.123 176.695 105.746 175.138 107.303 173.582C106.057 177.317 104.189 180.741 101.387 183.542C102.632 183.231 103.566 182.608 104.5 181.675C104.5 184.787 95.4711 214.356 87.0646 237.077C89.8668 237.077 92.3576 234.898 92.9803 232.097C91.1122 242.057 87.6873 252.017 82.7056 260.732C86.4419 259.487 89.8668 256.686 92.0462 253.573C89.8668 263.845 86.7532 273.182 83.3283 282.52C80.5261 276.606 78.3467 271.937 77.1012 268.514C78.9694 270.692 81.7715 272.249 84.5737 272.56C79.5921 263.533 77.1012 259.799 73.9877 249.527C78.3467 253.262 80.8375 253.885 84.2624 254.196C72.7423 233.653 61.2222 203.151 54.3724 179.807C58.42 183.231 60.5995 185.098 65.5812 185.098C61.8449 177.006 57.7973 168.913 54.0611 160.821C56.8632 164.245 60.2881 167.357 64.3357 168.913C52.1929 150.238 48.4567 140.59 41.9182 119.424C43.7863 120.358 45.9659 121.603 47.834 122.537C45.3431 117.557 43.7864 112.266 42.8523 106.663C44.7204 107.286 46.8999 107.908 48.768 108.531C32.8889 86.1206 31.9549 60.598 26.3505 29.7842C27.9073 32.2742 28.53 33.2079 30.0868 34.1417C24.7938 24.4929 22.6143 12.3541 21.6802 1.46034C21.6802 9.2416 17.6326 32.5854 14.2077 40.6779C15.4531 39.4329 15.4531 40.678 16.6986 38.4993C14.2077 53.128 12.0282 57.4855 8.292 68.0681C9.22606 68.0681 9.53742 67.4455 11.0942 65.8893C9.84877 78.0281 8.60336 86.1206 1.75357 106.663C3.93305 106.663 4.86711 104.796 6.73523 102.617C5.17846 107.286 2.68762 111.643 -0.425924 115.067C1.13085 114.756 2.37627 113.822 3.62169 112.577C3.31033 116.623 -7.58706 153.662 -18.1731 182.297C-14.7482 182.297 -11.6347 179.496 -11.012 176.072C-13.5028 188.833 -17.8618 200.972 -23.7775 212.177C-19.1072 210.621 -14.7482 207.197 -11.946 202.84C-17.8617 230.852 -28.7591 253.885 -41.2133 280.652C-35.6089 278.785 -30.3159 275.361 -25.9569 271.315C-28.1364 273.182 -29.3818 279.407 -30.3159 282.209C-31.8727 285.944 -33.7408 289.679 -35.6089 293.414C-39.0338 300.884 -42.7701 308.042 -46.8177 315.201C-54.2902 329.207 -60.5173 343.214 -68.6125 356.909C-66.1216 355.041 -63.6308 353.174 -60.8286 351.929C-62.3854 357.22 -65.8103 364.69 -68.3011 369.67C-84.1802 370.293 -100.682 370.915 -117.806 371.849C-112.202 444.059 -108.466 488.568 -102.55 561.089L-6.03028 575.407C487.155 608.711 1750.94 595.016 1886.38 589.413C1962.35 586.301 2049.84 570.738 2070.7 524.362C2076.31 506.932 2073.19 487.945 2068.52 469.893ZM401.221 358.776C402.155 355.975 403.4 353.174 404.957 350.684C405.268 350.684 405.58 350.684 406.202 350.684C407.759 350.995 408.071 351.929 408.382 353.485C409.316 356.909 409.627 360.644 409.627 364.067C409.627 367.491 409.939 371.226 409.939 374.65C409.939 375.584 409.939 376.829 409.939 377.763C409.627 379.008 409.005 379.941 408.382 381.186C406.514 383.988 404.646 386.478 402.155 388.656C401.221 389.59 399.975 390.524 399.041 391.769C399.041 385.855 398.73 366.558 401.221 358.776ZM-19.7299 363.756C-19.7299 364.068 -19.7299 364.067 -19.7299 364.379C-20.0412 363.756 -20.3526 363.134 -20.6639 362.511C-20.3526 362.2 -19.7299 362.2 -19.4185 361.889C-19.4185 362.2 -19.7299 363.134 -19.7299 363.756ZM-10.7006 365.313C-11.0119 365.001 -11.3233 365.001 -11.6347 364.69C-11.3233 364.69 -11.3233 364.379 -11.012 364.379L-10.7006 364.69C-10.7006 364.69 -10.7006 365.001 -10.7006 365.313ZM263.291 389.279C263.291 389.279 262.98 388.968 263.291 389.279C263.291 388.968 263.291 388.968 263.291 389.279C263.291 389.279 263.291 388.968 263.291 389.279ZM274.811 393.948C274.188 394.57 272.943 394.881 272.32 394.57C271.075 393.325 271.075 391.769 271.698 390.213C272.943 390.524 274.188 390.524 275.434 390.835C275.434 391.146 275.434 391.458 275.434 392.08C275.434 392.703 275.434 393.325 274.811 393.948ZM350.47 406.086C350.47 406.398 350.47 406.709 350.159 407.02C349.225 404.841 348.602 402.351 347.668 400.173C346.734 401.418 345.8 402.974 345.177 404.53C345.488 401.418 345.8 397.994 346.111 394.881C346.111 397.994 344.243 400.795 341.441 402.351C342.998 400.173 344.243 397.994 344.866 395.504C342.064 398.305 338.95 401.106 335.525 402.974C337.393 400.795 338.639 397.994 338.327 395.193C337.082 397.994 335.214 400.173 332.723 402.04C333.657 399.861 333.968 397.683 333.657 395.193C332.723 396.749 331.789 398.305 330.855 399.861C330.855 398.616 330.855 397.371 330.855 395.815C329.921 397.06 328.987 397.994 328.053 399.239C327.741 397.994 327.741 396.749 327.43 395.504C327.119 396.749 326.807 397.994 326.185 399.239C326.185 399.55 325.873 399.861 325.562 399.861C325.25 399.861 325.25 399.861 324.939 399.55C320.269 396.126 320.891 390.524 320.891 385.233C320.891 382.431 323.071 380.875 325.25 379.63C327.741 378.074 329.921 376.206 332.1 374.028C334.28 371.849 336.148 369.359 338.639 367.491C340.507 365.935 342.686 364.69 344.866 363.445C344.866 363.445 345.177 363.445 345.177 363.134C343.932 366.558 342.375 369.67 340.195 372.471C339.573 373.405 338.639 374.339 338.639 375.584C338.639 376.829 339.261 377.763 340.195 378.696C342.686 382.12 344.554 385.855 346.111 389.901C348.913 394.881 351.716 400.173 350.47 406.086ZM376.001 408.888C376.001 408.888 375.69 408.888 376.001 408.888C375.69 406.398 376.001 403.908 376.624 401.418C374.756 403.596 373.51 406.086 372.576 408.576C371.642 407.331 371.954 405.775 372.576 404.219C373.199 402.663 373.822 401.418 373.822 399.861C371.331 402.04 369.463 404.841 368.529 407.954C368.217 405.775 366.972 403.285 365.104 401.729C365.726 403.596 365.726 406.086 364.792 407.954C364.17 405.775 362.613 404.219 360.433 402.974C356.386 400.795 356.386 396.749 355.763 392.703C355.14 389.901 354.206 387.1 353.584 384.299C352.961 382.12 352.338 379.319 353.272 377.451C353.895 376.206 355.14 375.584 356.386 374.65C363.858 369.67 371.331 364.379 376.001 356.597C376.624 355.352 377.247 353.796 377.869 352.551C379.737 353.174 381.294 354.108 382.54 355.664C383.474 356.909 384.096 358.465 384.408 359.71C386.899 368.425 388.767 377.14 390.012 386.166C390.946 393.948 392.814 400.795 390.635 408.576C390.635 409.199 390.323 409.821 389.701 409.821C389.078 409.821 389.078 409.199 388.767 408.576C388.455 406.086 388.455 403.596 388.455 401.106C386.276 403.285 384.719 406.086 384.096 408.888C384.408 406.086 384.719 403.285 385.03 400.795C383.162 403.285 381.917 405.775 381.294 408.576C380.671 404.841 379.737 401.418 378.181 397.994C378.492 401.729 377.558 405.775 376.001 408.888ZM535.726 400.173C536.348 394.881 538.839 389.279 543.821 387.723C546.312 386.789 549.114 387.411 551.916 388.034C563.125 390.213 568.729 392.391 577.759 394.57C579.004 399.55 582.118 403.596 585.542 407.331C587.722 409.821 589.901 412.311 592.392 414.49C593.015 415.113 593.949 416.046 593.949 416.98C593.949 417.603 593.949 418.225 593.949 418.848C593.015 423.828 588.967 427.563 586.477 431.92C583.986 436.589 578.693 439.39 576.202 444.059C577.447 441.88 578.07 439.701 578.693 437.211C576.513 439.39 574.645 441.88 573.088 444.37C573.4 441.88 574.022 439.39 574.334 436.9C572.154 439.079 570.286 441.569 568.729 444.37C569.041 440.946 569.663 437.523 570.597 434.41C568.107 435.966 566.239 438.145 564.993 440.946C565.616 438.768 565.927 436.589 566.55 434.41C564.059 436.589 561.88 439.39 560.323 442.503C561.568 440.013 562.502 437.211 562.191 434.721C560.945 438.145 558.143 441.258 555.03 442.814C557.521 440.324 559.389 437.211 560.011 433.788C557.521 437.523 554.096 440.635 550.048 442.503C551.916 439.39 553.784 435.966 555.341 432.854C552.539 435.033 550.048 437.211 547.557 439.701C548.491 437.523 549.737 435.344 550.359 433.165C548.491 435.655 546.312 438.145 544.444 440.635C544.444 438.145 544.755 435.344 545.689 433.165C544.444 435.655 542.576 437.834 540.396 439.39C539.773 436.9 540.085 434.099 541.642 431.92C539.462 433.476 538.217 435.344 537.283 437.834C535.726 431.92 536.037 425.384 535.414 419.47C535.414 412.623 534.792 406.398 535.726 400.173ZM511.752 412C512.997 409.199 514.554 406.086 516.11 403.285C516.733 402.351 521.092 395.504 520.781 394.881C521.404 396.126 522.026 397.683 522.649 399.239C526.074 409.51 528.876 421.026 528.565 431.92C528.565 432.854 528.565 434.099 527.942 435.033C527.319 435.966 526.385 436.9 525.14 436.9C526.074 434.721 526.385 432.231 525.762 429.741C524.828 432.231 523.272 434.41 521.715 436.589C522.026 433.476 521.715 430.053 521.404 426.94C520.781 430.053 519.535 433.165 517.356 435.344C517.356 432.231 517.979 429.43 518.913 426.318C516.733 428.496 514.865 431.298 513.931 434.41C514.242 431.92 514.554 429.43 514.865 427.251C512.686 429.119 511.44 431.92 511.44 434.41C510.195 432.543 509.572 430.675 509.261 428.496C508.638 430.364 508.327 432.543 508.327 434.41C503.034 427.874 508.638 418.536 511.752 412ZM614.81 425.384C614.187 430.053 613.253 434.721 611.696 439.39C611.074 441.569 611.073 442.814 608.894 444.059C608.894 443.748 609.205 443.436 609.205 443.436C608.271 444.059 607.337 444.681 606.403 445.304C605.469 445.615 604.535 445.926 603.601 446.238C603.912 444.993 604.846 443.436 605.469 442.503C602.978 444.059 600.799 446.238 599.242 448.728C599.865 445.926 599.553 443.125 598.931 440.324C598.308 444.059 594.883 447.483 591.147 448.105C592.081 446.238 594.572 445.304 594.883 443.436C592.081 444.993 589.279 446.238 586.165 446.549C587.411 444.681 588.967 443.125 590.524 441.88C588.033 442.814 585.854 443.748 583.986 445.304C587.411 441.569 590.213 437.834 593.015 433.788C595.506 430.364 598.931 427.251 602.044 424.45C603.29 423.205 604.535 421.96 604.535 420.404C604.535 419.47 604.224 418.848 603.912 417.914C602.978 415.735 602.044 413.868 601.11 411.689C603.601 413.556 606.403 415.424 609.517 417.291C611.385 418.536 613.876 419.47 614.498 421.649C615.121 422.583 614.81 423.828 614.81 425.384ZM1586.86 329.519C1586.86 329.207 1586.55 328.585 1586.55 328.274C1586.86 327.962 1587.17 327.962 1587.48 327.651L1587.79 327.962C1587.48 328.585 1587.17 328.896 1586.86 329.519ZM1673.72 280.03C1673.41 279.096 1673.41 278.162 1673.1 277.229C1673.1 277.229 1673.41 277.229 1673.41 276.917C1673.72 277.229 1674.04 277.851 1674.35 278.162C1674.35 278.785 1674.04 279.407 1673.72 280.03ZM1791.42 270.07C1791.11 269.447 1790.79 268.514 1790.48 267.891C1791.73 267.269 1792.66 266.646 1793.6 265.712C1792.97 266.646 1792.35 268.202 1791.42 270.07Z" fill="url(#paint0_linear_3_5990)"/>
<defs>
<linearGradient id="paint0_linear_3_5990" x1="976.555" y1="596.742" x2="976.555" y2="0.336158" gradientUnits="userSpaceOnUse">
<stop offset="0.0481684" stop-color="#2A3950"/>
<stop offset="0.3854" stop-color="#2A3950"/>
<stop offset="0.9946" stop-color="#006270"/>
</linearGradient>
</defs>
</svg>
