<svg width="1920" height="866" viewBox="0 0 1920 866" fill="none" xmlns="http://www.w3.org/2000/svg">
<g opacity="0.5">
<path opacity="0.28" d="M116.648 723.334L139.197 733.846L102.016 812.949L30.0656 779.171L67.0737 700.068L87.041 709.374" stroke="white" stroke-width="1.7865" stroke-miterlimit="10" stroke-linecap="square"/>
<path opacity="0.28" d="M124.112 741.6L70.5179 716.392L56.7582 745.717L110.352 770.925L124.112 741.6Z" stroke="white" stroke-width="1.7865" stroke-miterlimit="10" stroke-linecap="square"/>
<path opacity="0.28" d="M46.5902 769.865C47.9672 766.935 51.4099 765.729 54.3361 767.107C57.2623 768.486 58.4672 771.933 57.0902 774.863C55.7131 777.792 52.2705 778.999 49.3443 777.62C46.5902 776.241 45.3853 772.795 46.5902 769.865Z" stroke="white" stroke-width="1.7865" stroke-miterlimit="10" stroke-linecap="square"/>
<path opacity="0.28" d="M89.4509 790.028C90.828 787.099 94.2706 785.892 97.1968 787.271C100.123 788.65 101.328 792.097 99.9509 795.026C98.5738 797.956 95.1312 799.162 92.205 797.784C89.2788 796.405 88.0739 792.958 89.4509 790.028Z" stroke="white" stroke-width="1.7865" stroke-miterlimit="10" stroke-linecap="square"/>
<path opacity="0.28" d="M37.6394 802.609L33.164 800.541C30.9263 799.507 29.8935 796.75 30.9263 794.509L36.7788 782.101L49.5165 788.133L43.664 800.541C42.6313 802.782 39.8772 803.816 37.6394 802.609Z" stroke="white" stroke-width="1.7865" stroke-miterlimit="10" stroke-linecap="square"/>
<path opacity="0.28" d="M81.877 823.462L77.4016 821.394C75.1639 820.36 74.1311 817.603 75.1639 815.362L81.0163 802.954L93.754 808.986L87.9016 821.394C86.8688 823.634 84.2868 824.496 81.877 823.462Z" stroke="white" stroke-width="1.7865" stroke-miterlimit="10" stroke-linecap="square"/>
<path opacity="0.28" d="M119.905 716.169L91.394 702.759L85.978 714.302L114.489 727.712L119.905 716.169Z" stroke="white" stroke-width="1.7865" stroke-miterlimit="10" stroke-linecap="square"/>
</g>
<g opacity="0.5">
<path opacity="0.26" d="M159.508 752.459C159.508 752.459 175.861 790.546 166.393 821.739C156.926 852.932 124.221 801.92 151.074 798.99C177.926 796.06 173.106 851.036 225.951 853.621C262.098 855.345 283.959 832.079 294.115 817.258" stroke="white" stroke-width="1.5111" stroke-miterlimit="10" stroke-linecap="round" stroke-dasharray="6.92 6.92"/>
<path opacity="0.26" d="M301 805.367C299.795 812.088 299.106 821.049 300.311 827.598L293.082 818.637L281.893 816.396C288.09 814.5 295.664 809.675 301 805.367Z" fill="white"/>
</g>
<g opacity="0.5">
<path opacity="0.27" d="M1680.69 102.047L1682.6 92.3391L1698.35 95.4841L1696.43 105.192L1738.87 113.807C1741.88 114.49 1743.94 117.362 1743.25 120.507L1734.22 165.22C1733.53 168.228 1730.66 170.279 1727.51 169.595L1662.48 156.469C1659.46 155.785 1657.41 152.913 1658.1 149.768L1667.13 105.329C1667.68 102.321 1670.55 100.407 1673.57 100.954L1680.69 102.047Z" stroke="white" stroke-width="1.3406" stroke-miterlimit="10" stroke-linecap="square"/>
<path opacity="0.27" d="M1685.28 109.716L1673.34 107.289L1672.41 111.845L1684.35 114.271L1685.28 109.716Z" fill="white"/>
<path opacity="0.27" d="M1735.65 119.993L1723.71 117.566L1722.78 122.122L1734.72 124.548L1735.65 119.993Z" fill="white"/>
<path opacity="0.27" d="M1719.02 138.146C1721.07 128.027 1714.5 118.046 1704.37 115.995C1694.24 113.943 1684.25 120.507 1682.19 130.625C1680.14 140.744 1686.71 150.726 1696.84 152.777C1706.97 154.964 1716.97 148.401 1719.02 138.146Z" stroke="white" stroke-width="1.3406" stroke-miterlimit="10" stroke-linecap="square"/>
<path opacity="0.27" d="M1714.37 137.189C1715.87 129.531 1710.94 122.148 1703.28 120.507C1695.61 119.003 1688.22 123.925 1686.57 131.582C1685.07 139.24 1690 146.624 1697.66 148.264C1705.33 149.768 1712.86 144.846 1714.37 137.189Z" stroke="white" stroke-width="1.3406" stroke-miterlimit="10" stroke-linecap="square"/>
</g>
<path opacity="0.5" d="M1774.61 71.6919C1774.61 69.6408 1776.25 68 1778.3 68C1780.36 68 1782 69.6408 1782 71.6919C1782 73.7429 1780.36 75.3838 1778.3 75.3838C1776.25 75.247 1774.61 73.6062 1774.61 71.6919Z" fill="white"/>
<path opacity="0.5" d="M1755.03 218C1753.93 218 1752.97 217.043 1752.97 215.949C1752.97 214.855 1753.93 213.898 1755.03 213.898" fill="white"/>
<g clip-path="url(#clip0_21_244)">
<path opacity="0.27" d="M189.449 216.518C192.132 215.799 193.722 213.032 193 210.337C192.277 207.642 189.517 206.04 186.834 206.759C184.151 207.478 182.561 210.245 183.284 212.94C184.006 215.635 186.766 217.237 189.449 216.518Z" fill="white"/>
<g opacity="0.27">
<path opacity="0.27" d="M55.955 253.334L54.398 252.705C53.2521 252.315 -55.5614 218.012 -71.9608 142.559C-80.5651 102.674 -50.8181 73.783 -19.6649 64.3895C9.86898 55.4298 48.2954 61.5214 62.0943 96.1786C85.4328 154.779 56.6402 250.71 56.5779 251.773L55.955 253.334ZM-47.8792 83.4558C-63.6619 97.0991 -73.8773 117.27 -68.635 142.016C-53.8295 210.226 40.0119 244.356 53.763 249.04C57.6004 236.157 80.2389 150.941 59.03 97.6971C45.667 64.6664 9.44522 59.0302 -18.7932 67.6427C-29.0697 70.7449 -39.3836 76.298 -47.8792 83.4558Z" fill="white"/>
<path opacity="0.27" d="M33.627 173.891C30.1765 176.559 26.7259 179.227 22.6901 181.006C-3.3564 193.912 -34.7947 182.81 -47.2987 156.871C-60.2138 130.694 -49.6364 98.9199 -23.5028 86.3386C-10.9218 80.1781 3.37785 79.1359 16.4813 83.9931C29.8214 88.4383 40.4083 98.1539 46.5732 110.798C57.2963 132.681 51.4152 158.664 33.627 173.891ZM-44.6455 155.115C-32.9011 179.513 -3.43085 189.748 20.7596 177.687C32.4562 172.112 41.226 162.092 45.4743 149.447C49.8099 137.128 49.0012 123.746 43.0107 111.752C37.4312 99.9977 27.4296 91.1712 14.8244 86.8779C2.54305 82.4977 -10.785 83.2795 -22.7183 89.2664C-34.4149 94.8413 -43.1846 104.862 -47.433 117.507C-51.0337 129.978 -50.2249 143.36 -44.6455 155.115Z" fill="white"/>
<path opacity="0.27" d="M23.1901 154.372L3.50889 163.83L-5.10944 145.916L-22.9346 154.527L-32.3127 135.073L-14.4875 126.462L-23.1058 108.548L-3.42461 99.0898L5.19372 117.004L23.0189 108.392L32.4841 128.171L14.6589 136.783L23.1901 154.372ZM5.05376 159.232L18.5192 152.485L9.90088 134.571L27.7261 125.96L21.063 112.752L3.23781 121.363L-5.38051 103.449L-18.846 110.196L-9.90377 128.023L-27.729 136.635L-20.9787 150.168L-3.15354 141.556L5.05376 159.232Z" fill="white"/>
</g>
</g>
<g clip-path="url(#clip1_21_244)">
<g opacity="0.27">
<path opacity="0.27" d="M1852 847C1826.03 847 1805 825.815 1805 799.987C1805 774.013 1826.03 752.973 1852 752.973C1877.96 752.973 1898.99 774.013 1898.99 799.987C1898.99 825.815 1877.81 847 1852 847ZM1852 754.715C1827.05 754.715 1806.74 775.029 1806.74 799.987C1806.74 824.944 1827.05 845.259 1852 845.259C1876.94 845.259 1897.25 824.944 1897.25 799.987C1897.25 775.029 1876.94 754.715 1852 754.715Z" fill="white"/>
<path opacity="0.27" d="M1852 825.38C1837.93 825.38 1826.61 813.917 1826.61 799.987C1826.61 786.057 1838.07 774.594 1852 774.594C1866.07 774.594 1877.38 786.057 1877.38 799.987C1877.38 813.917 1866.07 825.38 1852 825.38ZM1852 776.19C1838.94 776.19 1828.21 786.782 1828.21 799.987C1828.21 813.046 1838.8 823.784 1852 823.784C1865.05 823.784 1875.78 813.191 1875.78 799.987C1875.78 786.782 1865.05 776.19 1852 776.19Z" fill="white"/>
<path opacity="0.27" d="M1887.24 828.717L1887.1 827.846C1884.78 816.673 1873.17 813.481 1873.17 813.481L1872.3 813.336L1872.74 811.74L1873.61 811.885C1874.19 812.03 1886.23 815.368 1888.84 827.556L1888.98 828.427L1887.24 828.717Z" fill="white"/>
<path opacity="0.27" d="M1877.09 838.729L1876.8 837.859C1874.48 829.007 1865.34 821.897 1865.2 821.752L1864.61 821.317L1865.63 820.011L1866.36 820.591C1866.79 820.881 1876.07 828.137 1878.54 837.568L1878.83 838.439L1877.09 838.729Z" fill="white"/>
<path opacity="0.27" d="M1865.78 779.672L1864.18 779.382L1864.32 778.512C1864.32 778.366 1866.79 765.017 1878.97 762.405L1879.85 762.26L1880.14 763.856L1879.27 764.001C1868.24 766.323 1865.92 778.512 1865.92 778.657L1865.78 779.672Z" fill="white"/>
<path opacity="0.27" d="M1875.64 789.539L1874.19 788.669L1874.62 787.943C1874.91 787.508 1880.57 777.206 1890.14 774.594L1891.01 774.303L1891.45 775.9L1890.58 776.19C1881.73 778.657 1876.22 788.669 1876.07 788.814L1875.64 789.539Z" fill="white"/>
<path opacity="0.27" d="M1826.61 839.019L1826.32 837.423L1827.19 837.278C1838.36 835.392 1839.52 822.332 1839.52 822.187V821.317L1841.26 821.462V822.332C1841.26 822.478 1839.96 836.843 1827.48 838.874L1826.61 839.019Z" fill="white"/>
<path opacity="0.27" d="M1814.28 827.701L1813.85 826.105L1814.72 825.96C1823.57 823.929 1829.37 812.756 1829.37 812.611L1829.8 811.885L1831.25 812.611L1830.82 813.336C1830.53 813.771 1824.73 825.38 1815.01 827.556L1814.28 827.701Z" fill="white"/>
<path opacity="0.27" d="M1831.11 787.798L1830.38 787.508C1829.95 787.363 1818.78 782.719 1816.75 770.386L1816.6 769.515L1818.2 769.225L1818.34 770.095C1820.09 781.413 1830.82 785.912 1830.82 785.912L1831.54 786.202L1831.11 787.798Z" fill="white"/>
<path opacity="0.27" d="M1839.96 779.237L1839.38 778.657C1838.94 778.366 1829.51 770.386 1829.08 760.519V759.648H1830.82V760.519C1831.11 769.66 1840.39 777.351 1840.54 777.351L1841.12 777.931L1839.96 779.237Z" fill="white"/>
</g>
<path opacity="0.27" d="M1909 731.353C1907.84 731.353 1906.82 730.337 1906.82 729.177C1906.82 728.016 1907.84 727 1909 727" fill="white"/>
</g>
<defs>
<clipPath id="clip0_21_244">
<rect width="238.389" height="202.079" fill="white" transform="translate(-88 82.6997) rotate(-15)"/>
</clipPath>
<clipPath id="clip1_21_244">
<rect width="104" height="120" fill="white" transform="translate(1805 727)"/>
</clipPath>
</defs>
</svg>
