<svg width="1107" height="329" viewBox="0 0 1107 329" fill="none" xmlns="http://www.w3.org/2000/svg">
<g clip-path="url(#clip0_6_6513)">
<g opacity="0.1" filter="url(#filter0_d_6_6513)">
<path d="M925.316 99.2852L982.262 163.037L1016.89 140.671L934.077 93.8506C933.66 93.6416 933.242 93.6416 932.825 93.8506L925.733 96.7769C924.899 97.195 924.482 98.4491 925.316 99.2852Z" fill="#F4F4F4"/>
<path d="M925.942 96.7769C924.899 97.1949 924.482 98.449 925.316 99.2851L982.262 163.037L1016.89 140.671L1007.5 135.237C992.274 150.286 961.611 139.208 925.942 96.7769Z" fill="#EDEDED"/>
<path d="M1015.85 267.339L993.943 184.566L1031.7 167.844L1025.23 262.949C1025.23 263.367 1025.02 263.785 1024.61 264.203L1018.35 268.593C1017.31 268.802 1016.05 268.384 1015.85 267.339Z" fill="#F4F4F4"/>
<path d="M1018.35 268.175C1017.31 268.802 1016.05 268.384 1015.85 267.339L993.943 184.566L1031.7 167.844L1030.86 178.713C1010 183.103 1002.29 214.874 1018.35 268.175Z" fill="#EDEDED"/>
<path d="M921.144 203.587C963.071 175.369 1021.89 135.028 1036.7 127.921C1051.51 120.814 1069.45 123.114 1072.79 129.175C1076.13 135.446 1063.2 154.258 1052.14 159.692C1041.29 164.918 937.414 209.439 926.776 214.247C916.346 219.054 909.046 212.157 921.144 203.587Z" fill="white"/>
<path d="M1003.96 172.861C958.274 194.181 926.568 210.067 915.095 210.485C913.635 215.292 919.476 217.591 926.985 214.247C937.623 209.44 1041.5 164.918 1052.35 159.692C1063.2 154.467 1076.34 135.446 1073 129.175C1072.79 128.757 1072.58 128.548 1072.17 128.13C1066.95 140.671 1034.41 158.647 1003.96 172.861Z" fill="#EDEDED"/>
<path d="M903.622 177.041L921.77 204.841L937.206 194.599L908.211 175.16C908.003 175.16 907.794 174.951 907.586 175.16L904.04 176.205C903.622 176.205 903.414 176.623 903.622 177.041Z" fill="#F4F4F4"/>
<path d="M939.292 243.301L926.15 212.993L943.255 205.677L943.464 240.584C943.464 240.793 943.464 241.002 943.255 241.002L940.543 243.301C939.917 243.719 939.5 243.51 939.292 243.301Z" fill="#F4F4F4"/>
<path d="M1061.94 148.196C1064.03 145.27 1065.49 142.344 1066.12 139.626L1061.53 142.134C1061.94 144.016 1061.94 145.897 1061.94 148.196Z" fill="#8CD3F6"/>
<path d="M1060.9 140.253L1066.32 137.327C1066.32 135.655 1066.12 134.192 1065.49 132.938L1059.23 136.282C1059.86 137.327 1060.48 138.79 1060.9 140.253Z" fill="#8CD3F6"/>
<path d="M1050.47 126.667C1050.47 126.667 1052.35 127.712 1054.43 130.011L1059.02 127.503C1056.73 126.876 1053.81 126.458 1050.47 126.667Z" fill="#8CD3F6"/>
<path d="M1055.89 131.474C1056.73 132.31 1057.56 133.356 1058.19 134.61L1064.45 131.265C1063.61 130.22 1062.57 129.384 1061.32 128.757L1055.89 131.474Z" fill="#8CD3F6"/>
<path d="M1009.8 145.897L1011.67 149.241L1015.85 146.733L1013.97 143.18C1012.51 144.016 1011.05 145.061 1009.8 145.897Z" fill="#8CD3F6"/>
<path d="M1004.58 149.241L1006.46 152.586L1010.63 150.077L1008.75 146.733C1007.29 147.569 1005.83 148.405 1004.58 149.241Z" fill="#8CD3F6"/>
<path d="M963.28 177.041L964.323 179.131L968.495 176.623L967.243 174.533C965.991 175.16 964.74 175.996 963.28 177.041Z" fill="#8CD3F6"/>
<path d="M968.494 173.488L969.746 175.787L973.918 173.279L972.666 170.98C971.206 171.607 969.746 172.652 968.494 173.488Z" fill="#8CD3F6"/>
<path d="M983.93 163.037L985.391 165.754L989.562 163.246L988.102 160.319C986.642 161.155 985.182 162.201 983.93 163.037Z" fill="#8CD3F6"/>
<path d="M973.709 169.935L974.961 172.234L979.133 169.726L977.673 167.217C976.213 168.262 974.961 169.098 973.709 169.935Z" fill="#8CD3F6"/>
<path d="M989.145 159.483L990.814 162.41L994.986 159.901L993.317 156.766C991.857 157.811 990.397 158.647 989.145 159.483Z" fill="#8CD3F6"/>
<path d="M994.151 156.139L995.82 159.274L999.992 156.766L998.323 153.631C996.863 154.258 995.612 155.303 994.151 156.139Z" fill="#8CD3F6"/>
<path d="M999.366 152.795L1001.03 155.93L1005.21 153.422L1003.33 150.077C1002.08 150.913 1000.83 151.75 999.366 152.795Z" fill="#8CD3F6"/>
<path d="M978.716 166.59L980.176 169.098L984.348 166.59L982.888 163.873C981.427 164.709 980.176 165.545 978.716 166.59Z" fill="#8CD3F6"/>
<path d="M958.273 180.385L959.316 182.267L963.488 179.758L962.445 177.877C960.777 178.713 959.525 179.549 958.273 180.385Z" fill="#8CD3F6"/>
<path d="M1025.23 135.864L1027.11 139.417L1031.28 136.909L1029.4 133.356C1028.15 133.983 1026.9 134.819 1025.23 135.864Z" fill="#8CD3F6"/>
<path d="M1034.2 130.638C1033.16 131.056 1031.91 131.893 1030.66 132.729L1032.53 136.282L1036.08 133.983C1036.08 133.983 1035.04 132.102 1034.2 130.638Z" fill="#8CD3F6"/>
<path d="M1020.02 139.208L1021.89 142.762L1026.07 140.254L1024.19 136.7C1022.94 137.327 1021.48 138.163 1020.02 139.208Z" fill="#8CD3F6"/>
<path d="M953.059 183.939L953.893 185.611L958.065 183.103L957.022 181.431C955.562 182.267 954.31 183.103 953.059 183.939Z" fill="#8CD3F6"/>
<path d="M948.47 187.283L949.304 188.747L953.059 186.447L952.224 184.984C949.721 186.238 948.47 187.283 948.47 187.283Z" fill="#8CD3F6"/>
<path d="M1014.8 142.553L1016.68 146.106L1020.85 143.598L1018.97 140.044C1017.72 140.671 1016.26 141.508 1014.8 142.553Z" fill="#8CD3F6"/>
<path d="M1023.15 170.98L1021.27 167.635L1025.65 165.545L1027.53 169.098C1026.27 169.725 1024.81 170.352 1023.15 170.98Z" fill="#8CD3F6"/>
<path d="M1017.51 173.488L1015.64 170.143L1020.02 168.053L1021.89 171.398C1020.64 172.234 1018.97 172.861 1017.51 173.488Z" fill="#8CD3F6"/>
<path d="M971.832 192.718L970.789 190.628L975.17 188.537L976.421 190.628C974.752 191.464 973.292 192.091 971.832 192.718Z" fill="#8CD3F6"/>
<path d="M977.673 190.419L976.421 188.119L980.802 186.029L982.053 188.328C980.593 189.164 979.133 189.791 977.673 190.419Z" fill="#8CD3F6"/>
<path d="M994.777 183.103L993.317 180.386L997.698 178.295L999.158 181.222C997.698 181.849 996.238 182.476 994.777 183.103Z" fill="#8CD3F6"/>
<path d="M983.305 187.91L982.053 185.611L986.434 183.521L987.894 186.029C986.225 186.656 984.765 187.283 983.305 187.91Z" fill="#8CD3F6"/>
<path d="M1000.41 180.804L998.741 177.877L1003.12 175.787L1004.79 178.922C1003.54 179.549 1001.87 180.177 1000.41 180.804Z" fill="#8CD3F6"/>
<path d="M1006.25 178.295L1004.58 175.16L1008.96 173.07L1010.63 176.205C1009.17 177.041 1007.71 177.668 1006.25 178.295Z" fill="#8CD3F6"/>
<path d="M1011.88 175.996L1010.21 172.861L1014.59 170.771L1016.47 174.115C1014.8 174.533 1013.34 175.369 1011.88 175.996Z" fill="#8CD3F6"/>
<path d="M989.145 185.611L987.685 183.103L992.066 181.012L993.526 183.73C992.066 184.357 990.606 184.984 989.145 185.611Z" fill="#8CD3F6"/>
<path d="M966.2 195.226L965.157 193.345L969.538 191.255L970.581 193.136C969.12 193.972 967.452 194.599 966.2 195.226Z" fill="#8CD3F6"/>
<path d="M1040.25 163.455L1038.37 159.901L1042.75 157.811L1044.63 161.364C1043.17 161.991 1041.71 162.619 1040.25 163.455Z" fill="#8CD3F6"/>
<path d="M1049.43 158.856C1048.39 159.483 1047.13 160.11 1045.67 160.737L1043.8 157.184L1047.55 155.512C1047.55 155.512 1048.59 157.393 1049.43 158.856Z" fill="#8CD3F6"/>
<path d="M1034.62 165.963L1032.74 162.41L1037.12 160.32L1039 163.873C1037.54 164.5 1036.08 165.336 1034.62 165.963Z" fill="#8CD3F6"/>
<path d="M960.36 197.525L959.525 195.853L963.906 193.763L964.949 195.435C963.28 196.271 961.82 196.898 960.36 197.525Z" fill="#8CD3F6"/>
<path d="M955.145 199.616L954.519 198.152L958.482 196.271L959.317 197.734C956.605 198.989 955.145 199.616 955.145 199.616Z" fill="#8CD3F6"/>
<path d="M1028.99 168.471L1027.11 164.918L1031.49 162.828L1033.37 166.381C1031.91 167.217 1030.45 167.844 1028.99 168.471Z" fill="#8CD3F6"/>
<path d="M905.708 175.578L904.04 176.205C903.622 176.414 903.414 176.832 903.622 177.041L921.77 204.841L937.206 194.599L933.868 192.3C925.733 199.616 912.175 192.509 905.708 175.578Z" fill="#EDEDED"/>
<path d="M941.586 242.256L940.126 243.51C939.709 243.719 939.292 243.719 939.083 243.301L925.942 212.993L943.046 205.677V209.857C932.617 212.366 931.157 227.624 941.586 242.256Z" fill="#EDEDED"/>
</g>
<g opacity="0.2">
<path d="M1.04297 164.709C1.04297 166.172 1.25156 167.426 1.66875 168.472" stroke="#127E76" stroke-width="2" stroke-miterlimit="10" stroke-linecap="round"/>
<path d="M6.25781 174.951C12.0984 179.968 22.1108 182.058 30.4545 182.267C135.585 184.775 253.648 140.881 311.429 83.3997C352.521 42.6405 349.601 11.7053 338.337 3.55345C325.404 -5.85252 263.244 8.98801 232.789 68.3501C202.335 127.712 240.507 180.386 268.876 193.136C297.244 205.886 329.993 205.259 360.031 198.362C465.161 173.697 540.046 76.92 642.673 43.4766C660.612 37.624 680.22 33.8616 698.576 38.251C716.932 42.6405 734.037 57.272 736.54 76.0839C738.626 91.5515 730.908 106.392 722.773 119.56C688.564 174.533 639.544 220.1 612.636 278.835C607.63 289.704 603.458 302.663 608.881 313.323C616.599 328.373 637.25 329.418 653.937 326.91C741.129 314.16 805.793 276.745 891.316 228.252" stroke="#127E76" stroke-width="2" stroke-miterlimit="10" stroke-linecap="round" stroke-dasharray="3.76 3.76"/>
<path d="M894.862 226.37C895.905 225.743 897.156 225.116 898.199 224.489" stroke="#127E76" stroke-width="2" stroke-miterlimit="10" stroke-linecap="round"/>
</g>
</g>
<defs>
<filter id="filter0_d_6_6513" x="897.541" y="87.6938" width="181.987" height="186.951" filterUnits="userSpaceOnUse" color-interpolation-filters="sRGB">
<feFlood flood-opacity="0" result="BackgroundImageFix"/>
<feColorMatrix in="SourceAlpha" type="matrix" values="0 0 0 0 0 0 0 0 0 0 0 0 0 0 0 0 0 0 127 0" result="hardAlpha"/>
<feOffset/>
<feGaussianBlur stdDeviation="3"/>
<feColorMatrix type="matrix" values="0 0 0 0 0 0 0 0 0 0 0 0 0 0 0 0 0 0 0.24 0"/>
<feBlend mode="normal" in2="BackgroundImageFix" result="effect1_dropShadow_6_6513"/>
<feBlend mode="normal" in="SourceGraphic" in2="effect1_dropShadow_6_6513" result="shape"/>
</filter>
<clipPath id="clip0_6_6513">
<rect width="1107" height="329" fill="white"/>
</clipPath>
</defs>
</svg>
