<svg width="24" height="24" viewBox="0 0 24 24" fill="none" xmlns="http://www.w3.org/2000/svg">
<path d="M7 15V21" stroke="#151515" stroke-width="2" stroke-linecap="round"/>
<path d="M17 21V16C17 15.4477 16.5523 15 16 15H13C12.4477 15 12 15.4477 12 16V21" stroke="#151515" stroke-width="2" stroke-linecap="round"/>
<path d="M3 20V4H21V20H17C16.4477 20 16 20.4477 16 21C16 21.5523 16.4477 22 17 22H22C22.5523 22 23 21.5523 23 21V3C23 2.44772 22.5523 2 22 2H2C1.44772 2 1 2.44772 1 3V21C1 21.5523 1.44771 22 2 22H12C12.5523 22 13 21.5523 13 21C13 20.4477 12.5523 20 12 20H3Z" fill="#151515"/>
<path d="M6 7H15" stroke="#151515" stroke-width="2" stroke-linecap="round"/>
<path d="M6 11H17" stroke="#151515" stroke-width="2" stroke-linecap="round"/>
</svg>
