<svg width="24" height="24" viewBox="0 0 24 24" fill="none" xmlns="http://www.w3.org/2000/svg">
<path fill-rule="evenodd" clip-rule="evenodd" d="M2 6C2 5.44772 2.44772 5 3 5H21C21.5523 5 22 5.44772 22 6V8H2V6ZM2 11V18C2 18.5523 2.44772 19 3 19H21C21.5523 19 22 18.5523 22 18V11H2ZM3 3C1.34315 3 0 4.34315 0 6V18C0 19.6569 1.34315 21 3 21H21C22.6569 21 24 19.6569 24 18V6C24 4.34315 22.6569 3 21 3H3ZM19 15.5C19 16.3284 18.3284 17 17.5 17C17.1158 17 16.7654 16.8556 16.5 16.618C16.2346 16.8556 15.8842 17 15.5 17C14.6716 17 14 16.3284 14 15.5C14 14.6716 14.6716 14 15.5 14C15.8842 14 16.2346 14.1444 16.5 14.382C16.7654 14.1444 17.1158 14 17.5 14C18.3284 14 19 14.6716 19 15.5Z" fill="#151515"/>
</svg>
