<svg width="25" height="25" viewBox="0 0 25 25" fill="none" xmlns="http://www.w3.org/2000/svg">
<g clip-path="url(#clip0_215_2065)">
<path d="M17.9908 18.2402C16.2814 19.5432 14.1999 20.2651 12.0508 20.3002C5.05078 20.3002 1.05078 12.3002 1.05078 12.3002C2.29467 9.98209 4.01992 7.9568 6.11078 6.3602M9.95078 4.5402C10.6391 4.37908 11.3438 4.29853 12.0508 4.3002C19.0508 4.3002 23.0508 12.3002 23.0508 12.3002C22.4438 13.4358 21.7198 14.5049 20.8908 15.4902M14.1708 14.4202C13.8961 14.7149 13.5649 14.9514 13.1969 15.1153C12.8289 15.2793 12.4317 15.3675 12.0289 15.3746C11.6261 15.3817 11.2259 15.3076 10.8524 15.1567C10.4788 15.0058 10.1395 14.7812 9.85463 14.4963C9.56975 14.2115 9.34517 13.8721 9.19429 13.4986C9.04341 13.125 8.96931 12.7249 8.97641 12.3221C8.98352 11.9193 9.07169 11.522 9.23566 11.154C9.39963 10.786 9.63603 10.4548 9.93078 10.1802" stroke="#151515" stroke-width="2" stroke-linecap="round" stroke-linejoin="round"/>
<path d="M1.05078 1.30017L23.0508 23.3002" stroke="#151515" stroke-width="2" stroke-linecap="round" stroke-linejoin="round"/>
</g>
<defs>
<clipPath id="clip0_215_2065">
<rect width="24" height="24" fill="white" transform="translate(0.0507812 0.300171)"/>
</clipPath>
</defs>
</svg>
