<svg width="264" height="42" viewBox="0 0 264 42" fill="none" xmlns="http://www.w3.org/2000/svg">
<path fill-rule="evenodd" clip-rule="evenodd" d="M6.57927 7H0V3H9.55867L11.0529 8H44.7206L53.6861 18L44.7206 28H12.8551L6.57927 7ZM12.2483 12L15.8345 24H42.9346L48.3139 18L42.9346 12H12.2483Z" fill="#424888"/>
<path fill-rule="evenodd" clip-rule="evenodd" d="M34 30L42 5.5L46 6.5L38.1081 30H34Z" fill="#424888"/>
<path fill-rule="evenodd" clip-rule="evenodd" d="M18 30L26 5L30 6L22 30L18 30Z" fill="#424888"/>
<path fill-rule="evenodd" clip-rule="evenodd" d="M26 30L34 5L38 6L30 30H26Z" fill="#424888"/>
<path fill-rule="evenodd" clip-rule="evenodd" d="M12.0679 22.7351L18 5L22 6L15.8626 24L12.0679 22.7351Z" fill="#424888"/>
<ellipse cx="13.9328" cy="34.6402" rx="3" ry="4" transform="rotate(15 13.9328 34.6402)" fill="#424888"/>
<ellipse cx="43.9328" cy="34.6402" rx="3" ry="4" transform="rotate(15 43.9328 34.6402)" fill="#424888"/>
<path d="M67.28 29V7.7H82.64V11.27H71.39V16.4H77.18C79.56 16.4 81.35 16.96 82.55 18.08C83.75 19.2 84.35 20.7 84.35 22.58C84.35 23.84 84.09 24.95 83.57 25.91C83.05 26.87 82.28 27.63 81.26 28.19C80.24 28.73 78.95 29 77.39 29H67.28ZM71.39 25.43H76.82C77.62 25.43 78.26 25.29 78.74 25.01C79.22 24.71 79.57 24.34 79.79 23.9C80.01 23.44 80.12 22.96 80.12 22.46C80.12 21.96 80.02 21.5 79.82 21.08C79.64 20.64 79.31 20.29 78.83 20.03C78.35 19.75 77.66 19.61 76.76 19.61H71.39V25.43ZM89.2091 35.78C88.7891 35.78 88.3591 35.73 87.9191 35.63C87.4991 35.53 87.0091 35.38 86.4491 35.18L87.2291 32C87.5291 32.14 87.8091 32.24 88.0691 32.3C88.3491 32.36 88.5991 32.39 88.8191 32.39C89.3191 32.39 89.7591 32.21 90.1391 31.85C90.5391 31.49 90.8591 30.94 91.0991 30.2L91.5791 28.91L85.2191 13.28H89.3891L93.6191 24.89L97.3391 13.28H101.179L94.7591 31.25C94.4191 32.21 93.9691 33.02 93.4091 33.68C92.8491 34.36 92.2091 34.88 91.4891 35.24C90.7691 35.6 90.0091 35.78 89.2091 35.78ZM112.783 29.3C111.563 29.3 110.483 29.03 109.543 28.49C108.623 27.93 107.903 27.18 107.383 26.24V35.39H103.363V13.28H106.873V15.98C107.473 15.06 108.233 14.34 109.153 13.82C110.073 13.28 111.123 13.01 112.303 13.01C113.363 13.01 114.333 13.22 115.213 13.64C116.113 14.06 116.893 14.65 117.553 15.41C118.213 16.15 118.723 17.01 119.083 17.99C119.463 18.95 119.653 19.99 119.653 21.11C119.653 22.63 119.353 24.01 118.753 25.25C118.173 26.49 117.363 27.48 116.323 28.22C115.303 28.94 114.123 29.3 112.783 29.3ZM111.433 25.88C112.053 25.88 112.613 25.75 113.113 25.49C113.613 25.23 114.043 24.88 114.403 24.44C114.783 23.98 115.063 23.47 115.243 22.91C115.443 22.33 115.543 21.73 115.543 21.11C115.543 20.45 115.433 19.84 115.213 19.28C115.013 18.72 114.713 18.23 114.313 17.81C113.913 17.37 113.443 17.03 112.903 16.79C112.383 16.55 111.813 16.43 111.193 16.43C110.813 16.43 110.423 16.5 110.023 16.64C109.643 16.76 109.273 16.94 108.913 17.18C108.553 17.42 108.233 17.7 107.953 18.02C107.693 18.34 107.503 18.69 107.383 19.07V22.76C107.623 23.34 107.943 23.87 108.343 24.35C108.763 24.83 109.243 25.21 109.783 25.49C110.323 25.75 110.873 25.88 111.433 25.88ZM130.417 29.18C129.057 29.18 127.817 28.98 126.697 28.58C125.577 28.16 124.597 27.58 123.757 26.84C122.917 26.1 122.207 25.23 121.627 24.23L125.047 22.28C125.407 22.94 125.857 23.52 126.397 24.02C126.937 24.5 127.547 24.87 128.227 25.13C128.927 25.39 129.667 25.52 130.447 25.52C131.407 25.52 132.277 25.34 133.057 24.98C133.837 24.6 134.497 24.09 135.037 23.45C135.597 22.79 136.017 22.04 136.297 21.2C136.597 20.34 136.747 19.44 136.747 18.5L138.427 19.64H128.617V16.58H138.337L136.717 17.69C136.677 16.85 136.517 16.04 136.237 15.26C135.957 14.48 135.547 13.79 135.007 13.19C134.467 12.59 133.817 12.12 133.057 11.78C132.297 11.42 131.427 11.24 130.447 11.24C129.687 11.24 128.967 11.37 128.287 11.63C127.607 11.87 127.007 12.23 126.487 12.71C125.967 13.19 125.527 13.78 125.167 14.48L121.897 12.23C122.757 10.87 123.867 9.76 125.227 8.9C126.607 8.02 128.357 7.58 130.477 7.58C132.137 7.58 133.617 7.88 134.917 8.48C136.217 9.08 137.317 9.89 138.217 10.91C139.117 11.93 139.797 13.08 140.257 14.36C140.737 15.64 140.977 16.97 140.977 18.35C140.977 19.79 140.727 21.16 140.227 22.46C139.747 23.76 139.037 24.92 138.097 25.94C137.177 26.94 136.067 27.73 134.767 28.31C133.467 28.89 132.017 29.18 130.417 29.18ZM143.617 29V13.28H147.637V19.22H148.987L153.247 13.28H157.627L152.047 20.87L158.227 29H153.637L148.927 22.76H147.637V29H143.617ZM167.226 29.3C165.946 29.3 164.796 29.09 163.776 28.67C162.756 28.23 161.886 27.63 161.166 26.87C160.446 26.09 159.886 25.21 159.486 24.23C159.106 23.25 158.916 22.22 158.916 21.14C158.916 19.66 159.246 18.31 159.906 17.09C160.586 15.85 161.546 14.86 162.786 14.12C164.026 13.38 165.496 13.01 167.196 13.01C168.896 13.01 170.356 13.38 171.576 14.12C172.796 14.86 173.706 15.83 174.306 17.03L170.376 18.23C170.036 17.65 169.586 17.21 169.026 16.91C168.466 16.59 167.846 16.43 167.166 16.43C166.406 16.43 165.706 16.63 165.066 17.03C164.446 17.41 163.956 17.96 163.596 18.68C163.236 19.38 163.056 20.2 163.056 21.14C163.056 22.06 163.236 22.88 163.596 23.6C163.976 24.3 164.476 24.86 165.096 25.28C165.716 25.68 166.406 25.88 167.166 25.88C167.646 25.88 168.096 25.8 168.516 25.64C168.956 25.48 169.346 25.26 169.686 24.98C170.026 24.7 170.276 24.38 170.436 24.02L174.366 25.22C174.006 26 173.476 26.7 172.776 27.32C172.096 27.94 171.286 28.43 170.346 28.79C169.426 29.13 168.386 29.3 167.226 29.3ZM176.84 29V13.28H190.94V29H186.92V16.79H180.86V29H176.84ZM204.014 29.3C202.794 29.3 201.714 29.03 200.774 28.49C199.854 27.93 199.134 27.18 198.614 26.24V35.39H194.594V13.28H198.104V15.98C198.704 15.06 199.464 14.34 200.384 13.82C201.304 13.28 202.354 13.01 203.534 13.01C204.594 13.01 205.564 13.22 206.444 13.64C207.344 14.06 208.124 14.65 208.784 15.41C209.444 16.15 209.954 17.01 210.314 17.99C210.694 18.95 210.884 19.99 210.884 21.11C210.884 22.63 210.584 24.01 209.984 25.25C209.404 26.49 208.594 27.48 207.554 28.22C206.534 28.94 205.354 29.3 204.014 29.3ZM202.664 25.88C203.284 25.88 203.844 25.75 204.344 25.49C204.844 25.23 205.274 24.88 205.634 24.44C206.014 23.98 206.294 23.47 206.474 22.91C206.674 22.33 206.774 21.73 206.774 21.11C206.774 20.45 206.664 19.84 206.444 19.28C206.244 18.72 205.944 18.23 205.544 17.81C205.144 17.37 204.674 17.03 204.134 16.79C203.614 16.55 203.044 16.43 202.424 16.43C202.044 16.43 201.654 16.5 201.254 16.64C200.874 16.76 200.504 16.94 200.144 17.18C199.784 17.42 199.464 17.7 199.184 18.02C198.924 18.34 198.734 18.69 198.614 19.07V22.76C198.854 23.34 199.174 23.87 199.574 24.35C199.994 24.83 200.474 25.21 201.014 25.49C201.554 25.75 202.104 25.88 202.664 25.88ZM220.897 29.3C219.637 29.3 218.497 29.09 217.477 28.67C216.457 28.23 215.587 27.64 214.867 26.9C214.147 26.14 213.587 25.28 213.187 24.32C212.807 23.34 212.617 22.31 212.617 21.23C212.617 19.73 212.947 18.36 213.607 17.12C214.287 15.88 215.247 14.89 216.487 14.15C217.747 13.39 219.227 13.01 220.927 13.01C222.647 13.01 224.117 13.39 225.337 14.15C226.557 14.89 227.487 15.88 228.127 17.12C228.787 18.34 229.117 19.66 229.117 21.08C229.117 21.32 229.107 21.57 229.087 21.83C229.067 22.07 229.047 22.27 229.027 22.43H216.877C216.957 23.23 217.187 23.93 217.567 24.53C217.967 25.13 218.467 25.59 219.067 25.91C219.687 26.21 220.347 26.36 221.047 26.36C221.847 26.36 222.597 26.17 223.297 25.79C224.017 25.39 224.507 24.87 224.767 24.23L228.217 25.19C227.837 25.99 227.287 26.7 226.567 27.32C225.867 27.94 225.037 28.43 224.077 28.79C223.117 29.13 222.057 29.3 220.897 29.3ZM216.787 19.88H225.007C224.927 19.08 224.697 18.39 224.317 17.81C223.957 17.21 223.477 16.75 222.877 16.43C222.277 16.09 221.607 15.92 220.867 15.92C220.147 15.92 219.487 16.09 218.887 16.43C218.307 16.75 217.827 17.21 217.447 17.81C217.087 18.39 216.867 19.08 216.787 19.88ZM238.886 29.3C237.606 29.3 236.456 29.09 235.436 28.67C234.416 28.23 233.546 27.63 232.826 26.87C232.106 26.09 231.546 25.21 231.146 24.23C230.766 23.25 230.576 22.22 230.576 21.14C230.576 19.66 230.906 18.31 231.566 17.09C232.246 15.85 233.206 14.86 234.446 14.12C235.686 13.38 237.156 13.01 238.856 13.01C240.556 13.01 242.016 13.38 243.236 14.12C244.456 14.86 245.366 15.83 245.966 17.03L242.036 18.23C241.696 17.65 241.246 17.21 240.686 16.91C240.126 16.59 239.506 16.43 238.826 16.43C238.066 16.43 237.366 16.63 236.726 17.03C236.106 17.41 235.616 17.96 235.256 18.68C234.896 19.38 234.716 20.2 234.716 21.14C234.716 22.06 234.896 22.88 235.256 23.6C235.636 24.3 236.136 24.86 236.756 25.28C237.376 25.68 238.066 25.88 238.826 25.88C239.306 25.88 239.756 25.8 240.176 25.64C240.616 25.48 241.006 25.26 241.346 24.98C241.686 24.7 241.936 24.38 242.096 24.02L246.026 25.22C245.666 26 245.136 26.7 244.436 27.32C243.756 27.94 242.946 28.43 242.006 28.79C241.086 29.13 240.046 29.3 238.886 29.3ZM255.673 29.3C254.393 29.3 253.243 29.09 252.223 28.67C251.203 28.23 250.333 27.63 249.613 26.87C248.893 26.09 248.333 25.21 247.933 24.23C247.553 23.25 247.363 22.22 247.363 21.14C247.363 19.66 247.693 18.31 248.353 17.09C249.033 15.85 249.993 14.86 251.233 14.12C252.473 13.38 253.943 13.01 255.643 13.01C257.343 13.01 258.803 13.38 260.023 14.12C261.243 14.86 262.153 15.83 262.753 17.03L258.823 18.23C258.483 17.65 258.033 17.21 257.473 16.91C256.913 16.59 256.293 16.43 255.613 16.43C254.853 16.43 254.153 16.63 253.513 17.03C252.893 17.41 252.403 17.96 252.043 18.68C251.683 19.38 251.503 20.2 251.503 21.14C251.503 22.06 251.683 22.88 252.043 23.6C252.423 24.3 252.923 24.86 253.543 25.28C254.163 25.68 254.853 25.88 255.613 25.88C256.093 25.88 256.543 25.8 256.963 25.64C257.403 25.48 257.793 25.26 258.133 24.98C258.473 24.7 258.723 24.38 258.883 24.02L262.813 25.22C262.453 26 261.923 26.7 261.223 27.32C260.543 27.94 259.733 28.43 258.793 28.79C257.873 29.13 256.833 29.3 255.673 29.3Z" fill="#424888"/>
</svg>
