<svg width="1918" height="1300" viewBox="0 0 1918 1300" fill="none" xmlns="http://www.w3.org/2000/svg">
<path d="M-2 183.013C173.146 0.545584 240.075 0.00108619 371.663 1.87335e-06C495.32 1.87335e-06 688.309 93.9761 809.546 216.392C1097.79 507.443 1503.57 618.264 1671.81 618.264C1776.97 618.264 1854.91 584.877 1918 487.192V1258.78C1826.45 1288.46 1718.82 1329.27 1478.82 1268.68C1154.7 1186.85 996.365 938.76 809.546 875.461C736.557 850.731 429.753 849.494 271.402 905.138C202.124 912.145 50.4536 913.052 -2 860.623V183.013Z" fill="url(#paint0_linear_221_24)"/>
<defs>
<linearGradient id="paint0_linear_221_24" x1="958" y1="0" x2="958" y2="1300" gradientUnits="userSpaceOnUse">
<stop stop-color="#FEFFF7"/>
<stop offset="1" stop-color="#FFF9EF"/>
</linearGradient>
</defs>
</svg>
