<svg width="53" height="56" viewBox="0 0 53 56" fill="none" xmlns="http://www.w3.org/2000/svg">
<path d="M19.2978 32.0623C19.1259 32.0398 17.9528 29.6642 17.9528 29.6642L15.6253 27.8718L14.3779 29.1196L13.2579 30.1829C12.9476 30.4898 12.6614 30.8168 12.3995 31.16L12.2715 33.4431L15.3646 34.9033C15.3646 34.9034 19.4696 32.0849 19.2978 32.0623Z" fill="#FFE0D1"/>
<path d="M23.9909 23.0674L22.3338 21.6816C21.5316 21.0108 20.3587 21.1436 19.714 21.9782C19.0693 22.8127 19.197 24.0332 19.999 24.704L21.6561 26.0898L22.8304 27.0446L25.5073 24.4085L23.9909 23.0674Z" fill="#FABC91"/>
<path d="M15.5284 30.8903C15.7915 30.537 16.0789 30.2004 16.3907 29.8844L17.2349 29.0629L15.7204 27.8718L14.4377 29.1821L13.2859 30.2988C12.9667 30.6211 12.6725 30.9644 12.4031 31.3249L12.2715 33.7224L13.863 34.4897C14.1658 33.1858 14.7324 31.9593 15.5284 30.8903Z" fill="#FAA875"/>
<path d="M19.187 28.807L17.4736 27.4603C16.6441 26.8084 15.4313 26.9375 14.7646 27.7485C14.098 28.5594 14.23 29.7454 15.0593 30.3973L16.7728 31.744L18.9867 33.6626L21.3711 30.6205L19.187 28.807Z" fill="#FABC91"/>
<path d="M21.4217 25.9401L19.7956 24.5717C19.0084 23.9094 17.8573 24.0404 17.2247 24.8646C16.592 25.6887 16.7172 26.8938 17.5044 27.5561L19.1305 28.9245L21.2033 30.7673L23.4392 27.5906L21.4217 25.9401Z" fill="#FABC91"/>
<path d="M25.5073 24.3663L23.9889 23.0036L22.8869 22.0684L21.4156 24.0188C21.2755 24.2046 21.019 24.2346 20.8437 24.0859L20.8341 24.0777C20.0309 23.3961 19.9032 22.1562 20.5487 21.3081C20.563 21.2894 20.5797 21.2718 20.5944 21.2539C20.2195 21.3799 19.8765 21.6328 19.6303 22.0046C19.0634 22.8605 19.2564 24.0421 20.0274 24.6965L21.6513 26.0745L22.8271 27.0446L23.383 26.4891L25.5073 24.3663Z" fill="#FAA875"/>
<path d="M23.4392 27.667L21.4204 26.0561L20.3524 25.1796L19.0218 26.8855C18.8627 27.0895 18.5714 27.1226 18.3724 26.9592L18.223 26.8365C17.5451 26.2802 17.36 25.3293 17.7244 24.563C17.435 24.7358 17.1813 24.997 17.0127 25.3358C16.6174 26.1303 16.855 27.1032 17.5352 27.6616L19.1279 28.9688L21.202 30.7673L21.8336 29.892L23.4392 27.667Z" fill="#FAA875"/>
<path d="M26.2992 34.8406L25.6056 34.6798C24.7502 34.4819 24.1469 33.7169 24.1545 32.8396C24.1593 32.3268 24.3696 31.8634 24.7064 31.5285C25.0442 31.1926 25.5085 30.9852 26.0204 30.9833L29.9425 30.968C30.52 30.9661 31.0833 31.1469 31.5514 31.4847L36.4906 35.0395C37.0329 35.4305 37.4811 35.9367 37.8027 36.5219L39.6467 39.8759L46.1928 45.1374C46.6712 45.5219 46.739 46.2251 46.3427 46.6939L39.0682 55.2993C38.6856 55.752 38.0117 55.8168 37.5498 55.4455L32.6028 51.4688L32.3326 51.4584C30.7293 51.3994 29.1822 50.8504 27.8987 49.8855L24.8006 47.5553C24.8006 47.5553 19.5779 43.6676 19.5779 43.541C19.5779 43.4468 23.9719 37.8169 26.2992 34.8406Z" fill="#FABC91"/>
<path d="M24.7554 34.2283C25.3157 33.4967 25.8461 32.8051 26.2965 32.2182L25.6245 32.0594C25.2648 31.9746 24.9514 31.7841 24.7121 31.5251C24.7106 31.5266 24.7091 31.5277 24.7077 31.5291C24.3709 31.8641 24.1606 32.3274 24.1558 32.8403C24.1511 33.3814 24.3794 33.8794 24.7554 34.2283Z" fill="#F8D3AA"/>
<path d="M46.1942 45.1382L45.3026 44.4215L38.6688 52.4182C38.2981 52.8651 37.6452 52.9292 37.1976 52.5625L32.6071 48.8023C32.4756 48.6946 32.3125 48.6326 32.1426 48.6259C30.5892 48.5676 29.0901 48.0256 27.8465 47.0729L24.8447 44.7722C24.8447 44.7722 22.4133 42.9278 20.9211 41.7544C20.1196 42.795 19.5793 43.5087 19.5793 43.5418C19.5793 43.6683 24.8021 47.5561 24.8021 47.5561L27.9001 49.8863C29.1837 50.8511 30.7308 51.4001 32.3341 51.4591L32.6043 51.4696L37.5513 55.4461C38.0132 55.8175 38.6871 55.7526 39.0697 55.3L46.3442 46.6946C46.7404 46.2258 46.6726 45.5228 46.1942 45.1382Z" fill="#FAA875"/>
<path d="M31.5109 43.6033L31.8467 43.8465C32.8273 44.5566 34.1926 44.3734 34.9511 43.4296L38.8998 38.5168L37.8033 36.5224C37.4817 35.9372 37.0335 35.431 36.4912 35.0399L31.552 31.4852C31.0838 31.1474 30.5206 30.9666 29.943 30.9685L26.021 30.9837C25.5091 30.9856 25.0447 31.1931 24.707 31.5289C24.3701 31.8639 24.1599 32.3272 24.1551 32.8401C24.1475 33.7174 24.7507 34.4824 25.6061 34.6803L26.2998 34.8411C25.9164 35.3314 25.4767 35.8939 25.01 36.4916C25.0649 36.5069 25.1203 36.5211 25.1763 36.5341L25.8712 36.6952L28.0855 37.207C28.3097 39.7122 29.537 42.0175 31.5109 43.6033Z" fill="#FAA875"/>
<path d="M21.26 30.7748L19.1284 28.9647L18.0437 28.0929L16.8523 29.5888C16.6784 29.8071 16.36 29.8425 16.1424 29.6677L15.9352 29.5011C15.3133 29.0011 15.0937 28.1852 15.3201 27.4675C15.1223 27.5845 14.9429 27.7398 14.7929 27.9328C14.1581 28.7493 14.3299 29.9333 15.136 30.5813L16.7721 31.8962L18.9328 33.8112L19.5824 32.9636L21.26 30.7748Z" fill="#FAA875"/>
<path d="M36.4913 35.0395L31.5521 31.4847C31.084 31.1469 30.5207 30.9661 29.9432 30.968L26.0211 30.9833C25.5092 30.9852 25.0449 31.1926 24.7071 31.5285C24.3703 31.8634 24.16 32.3268 24.1553 32.8396C24.1477 33.7169 24.7509 34.4819 25.6063 34.6798L26.2999 34.8406C23.9726 37.8169 19.5786 43.4468 19.5786 43.541C19.5786 43.6676 24.8013 47.5554 24.8013 47.5554L25.913 48.3914C26.0931 48.206 26.2659 48.0118 26.4295 47.8082L36.6157 35.1344C36.5744 35.1024 36.5337 35.07 36.4913 35.0395Z" fill="#FAA875"/>
<path d="M36.352 29.9788C35.4871 29.2843 34.2236 29.4222 33.528 30.2862C33.8268 29.9151 33.9714 29.4707 33.9714 29.0293C33.9714 28.4422 33.7145 27.8589 33.2207 27.4622C32.3567 26.7676 31.0922 26.9055 30.3967 27.7695C30.6954 27.3984 30.8401 26.9541 30.8401 26.5126C30.8401 25.9255 30.5832 25.3432 30.0903 24.9464C29.2254 24.2509 27.9608 24.3888 27.2663 25.2528C27.9608 24.3888 27.8238 23.1243 26.9589 22.4297C26.5879 22.131 26.1435 21.9863 25.702 21.9863C25.114 21.9863 24.5317 22.2432 24.1349 22.7371L18.2371 30.0747L15.5774 33.4093L12.4668 31.3074C11.3965 32.7191 10.7478 34.4164 10.6151 36.2007L10.3401 39.9001L5.10694 46.41C4.77601 46.8216 4.83167 47.4216 5.23253 47.7654L14.4252 55.6483C14.8445 56.008 15.4783 55.9492 15.8243 55.5185L20.5714 49.612C20.6694 49.4911 20.8102 49.4112 20.9644 49.3893C22.677 49.1476 24.2337 48.2628 25.3174 46.9145L36.6592 32.803C36.957 32.4319 37.1026 31.9875 37.1026 31.546C37.1028 30.9579 36.8459 30.3756 36.352 29.9788Z" fill="#FABC91"/>
<path d="M8.38605 47.0325C7.99452 46.6955 7.94019 46.1073 8.26331 45.7038L13.3741 39.322L13.6427 35.6954C13.7219 34.6268 13.99 33.5906 14.4242 32.6301L12.4668 31.3074C11.3965 32.7191 10.7478 34.4164 10.6151 36.2007L10.3401 39.9001L5.10694 46.41C4.77601 46.8216 4.83167 47.4216 5.23253 47.7654L14.4252 55.6483C14.8445 56.0079 15.4783 55.9491 15.8243 55.5185L16.814 54.2872L8.38605 47.0325Z" fill="#FAA875"/>
<path d="M32.6651 29.9418C31.8705 29.3685 30.9322 29.0654 29.9517 29.0654L26.0136 29.0807C25.0144 29.0844 24.0738 29.4746 23.3648 30.1794C22.6563 30.8839 22.2611 31.8226 22.2519 32.8235C22.2363 34.6063 23.4391 36.1321 25.176 36.534L25.8708 36.6951L28.0852 37.2069C28.2256 38.7769 28.7601 40.2683 29.6253 41.5532L36.6516 32.8111L32.6651 29.9418Z" fill="#FAA875"/>
<path d="M37.8025 36.5226L39.1594 38.9908L35.2858 43.9699L33.2354 42.5493L32.7035 42.1212C31.0098 40.7605 30.0032 38.7206 29.9527 36.5473L29.9337 35.6815L26.299 34.8413L25.6054 34.6805C24.75 34.4826 24.1468 33.7176 24.1544 32.8403C24.1591 32.3275 24.3694 31.8641 24.7062 31.5292C25.044 31.1933 25.5083 30.9859 26.0202 30.984L29.9423 30.9688C30.5198 30.9669 31.0831 31.1476 31.5512 31.4854L36.4904 35.0402C37.0328 35.4313 37.4809 35.9374 37.8025 36.5226Z" fill="#FABC91"/>
<path d="M30.2259 0.952477C27.6738 0.0684382 25.1534 0.0663337 22.6644 0.945973C22.0657 1.15756 21.7879 1.85086 22.0632 2.42479L25.4864 9.56311C25.8757 10.3748 27.0274 10.3748 27.4168 9.56311L30.8355 2.43455C31.1123 1.85718 30.8292 1.16139 30.2259 0.952477Z" fill="url(#paint0_linear_221_183)"/>
<path d="M52.36 11.5298C51.0134 9.20047 49.1478 7.57208 46.7634 6.64459C46.1898 6.42146 45.5577 6.77719 45.4087 7.39776L43.5542 15.1161C43.3434 15.9939 44.1966 16.7372 44.9841 16.3621L51.9002 13.0669C52.4602 12.8001 52.6784 12.0804 52.36 11.5298Z" fill="url(#paint1_linear_221_183)"/>
<path d="M0.538521 11.5298C1.88513 9.20047 3.75076 7.57208 6.13523 6.64459C6.70883 6.42146 7.34087 6.77719 7.48993 7.39776L9.34434 15.1161C9.55515 15.9939 8.70201 16.7372 7.91447 16.3621L0.998358 13.0669C0.43854 12.8001 0.2202 12.0804 0.538521 11.5298Z" fill="url(#paint2_linear_221_183)"/>
<path d="M15.6741 33.3982L16.8213 32.0512L15.6382 31.1809L14.505 32.5114C14.2383 32.8247 14.3011 33.2845 14.6433 33.5237C14.967 33.7497 15.4219 33.6944 15.6741 33.3982Z" fill="#FAA875"/>
<defs>
<linearGradient id="paint0_linear_221_183" x1="30.7523" y1="9.41636" x2="21.586" y2="-7.52493" gradientUnits="userSpaceOnUse">
<stop stop-color="#F09642"/>
<stop offset="1" stop-color="#F4E26E"/>
</linearGradient>
<linearGradient id="paint1_linear_221_183" x1="44.1899" y1="9.8971" x2="49.7656" y2="18.1286" gradientUnits="userSpaceOnUse">
<stop stop-color="#272671"/>
<stop offset="1" stop-color="#7BB3CB"/>
</linearGradient>
<linearGradient id="paint2_linear_221_183" x1="1.05952" y1="9.8971" x2="6.63522" y2="18.1286" gradientUnits="userSpaceOnUse">
<stop stop-color="#272671"/>
<stop offset="1" stop-color="#7BB3CB"/>
</linearGradient>
</defs>
</svg>
