<svg width="15" height="13" viewBox="0 0 15 13" fill="none" xmlns="http://www.w3.org/2000/svg">
<g clip-path="url(#clip0_221_247)">
<path d="M8.51359 12.9746H6.10677C5.70476 12.9746 5.37773 12.6917 5.37773 12.344V7.64833H3.97355C3.57153 7.64833 3.24451 7.36537 3.24451 7.01773V5.00562C3.24451 4.65789 3.57153 4.37502 3.97355 4.37502H5.37773V3.36743C5.37773 2.36837 5.74042 1.51838 6.42646 0.9095C7.11559 0.297844 8.07866 -0.0253906 9.21155 -0.0253906L11.0471 -0.0228119C11.4484 -0.0222168 11.7749 0.260651 11.7749 0.607788V2.47598C11.7749 2.82372 11.448 3.10658 11.0461 3.10658L9.81022 3.10698C9.43331 3.10698 9.33734 3.17234 9.31681 3.19238C9.28299 3.2256 9.24274 3.31953 9.24274 3.57889V4.37493H10.9532C11.082 4.37493 11.2067 4.4024 11.3139 4.45417C11.5452 4.56595 11.689 4.77731 11.689 5.00572L11.6881 7.01783C11.6881 7.36537 11.3611 7.64823 10.959 7.64823H9.24274V12.344C9.24274 12.6917 8.9156 12.9746 8.51359 12.9746ZM6.25882 12.2125H8.36154V7.30715C8.36154 7.07496 8.57998 6.88612 8.84829 6.88612H10.807L10.8078 5.13714H8.84818C8.57986 5.13714 8.36154 4.9483 8.36154 4.71611V3.57889C8.36154 3.28114 8.39651 2.94254 8.65634 2.68803C8.9703 2.38037 9.46508 2.34486 9.80999 2.34486L10.8938 2.34447V0.739105L9.21086 0.736725C7.39022 0.736725 6.25882 1.74481 6.25882 3.36743V4.71611C6.25882 4.9482 6.0405 5.13714 5.77218 5.13714H4.12559V6.88612H5.77218C6.0405 6.88612 6.25882 7.07496 6.25882 7.30715V12.2125ZM11.0454 0.739304H11.0455H11.0454Z" fill="#1C2D5A"/>
</g>
<defs>
<clipPath id="clip0_221_247">
<rect width="15" height="13" fill="white"/>
</clipPath>
</defs>
</svg>
