<svg width="14" height="14" viewBox="0 0 14 14" fill="none" xmlns="http://www.w3.org/2000/svg">
<path d="M0.276594 11.4305C1.57276 12.253 3.08126 12.6876 4.63876 12.6876C6.91959 12.6876 9.00968 11.8114 10.5246 10.2206C11.9742 8.69814 12.7716 6.65239 12.7319 4.57631C13.2814 4.10614 13.9278 3.20839 13.9278 2.33339C13.9278 1.99798 13.5638 1.78506 13.2686 1.95598C12.7523 2.25931 12.2816 2.33864 11.7974 2.20273C10.8087 1.23906 9.33693 1.03606 8.09676 1.70456C7.01293 2.28789 6.41034 3.35539 6.46459 4.52206C4.63351 4.29864 2.94184 3.38048 1.76234 1.95364C1.56868 1.72089 1.20118 1.74831 1.04718 2.01198C0.47901 2.98498 0.484844 4.11256 0.978927 5.02314C0.743844 5.06456 0.598594 5.26231 0.598594 5.47639C0.598594 6.39164 1.01043 7.23281 1.67368 7.80681C1.55001 7.92581 1.50918 8.10256 1.56168 8.26006C1.85334 9.13623 2.51368 9.82106 3.33909 10.1641C2.44134 10.5928 1.44851 10.7357 0.56476 10.6272C0.107427 10.5654 -0.118323 11.1802 0.276594 11.4305ZM4.75834 10.314C5.08559 10.0626 4.91176 9.53873 4.50109 9.52998C3.77776 9.51481 3.11918 9.15839 2.70909 8.59781C2.90684 8.58498 3.11159 8.55464 3.30643 8.50214C3.75034 8.38198 3.72934 7.74148 3.27843 7.65106C2.46001 7.48656 1.81776 6.89039 1.57684 6.12273C1.79676 6.17698 2.02076 6.20731 2.24418 6.21139C2.68693 6.21373 2.85434 5.64614 2.49326 5.40873C1.67951 4.87264 1.33243 3.92589 1.56226 3.03573C2.98326 4.47539 4.91118 5.34281 6.95051 5.44081C7.24276 5.45889 7.46209 5.18414 7.39793 4.90589C7.12084 3.70481 7.79168 2.86306 8.51209 2.47514C9.22493 2.09014 10.3694 1.96998 11.2468 2.89048C11.5075 3.16523 12.3872 3.17573 12.8346 3.07131C12.6339 3.44931 12.3253 3.80806 12.0366 4.00989C11.9135 4.09623 11.8429 4.23973 11.8505 4.38964C11.9444 6.30589 11.2304 8.21106 9.89168 9.61631C8.54301 11.0321 6.67809 11.812 4.63934 11.812C3.82851 11.812 3.03343 11.6801 2.28209 11.4258C3.18043 11.252 4.03384 10.8716 4.75834 10.314Z" fill="#1C2D5A"/>
</svg>
