<svg width="15" height="13" viewBox="0 0 15 13" fill="none" xmlns="http://www.w3.org/2000/svg">
<g clip-path="url(#clip0_221_251)">
<path d="M7.59063 10.5625C9.76062 10.5625 8.98688 9.37192 9.15438 9.02958C9.15188 8.77392 9.14937 8.528 9.15938 8.3785C9.29688 8.41208 9.62125 8.55454 10.2913 9.11896C11.3256 10.0235 11.59 10.5625 12.4256 10.5625H13.9637C14.4512 10.5625 14.705 10.3875 14.8319 10.2408C14.9544 10.0988 15.0744 9.84967 14.9431 9.46183C14.6 8.528 12.5988 6.91546 12.4744 6.74538C12.4931 6.71396 12.5231 6.67225 12.5387 6.65058H12.5375C12.9325 6.19829 14.44 4.24071 14.6619 3.45746C14.6625 3.45638 14.6631 3.45475 14.6631 3.45312C14.7831 3.09562 14.6731 2.86379 14.5594 2.73271C14.3881 2.53663 14.1156 2.4375 13.7475 2.4375H12.2094C11.6944 2.4375 11.3038 2.66229 11.1063 3.07233C10.7756 3.80088 9.84688 5.29913 9.15063 5.82942C9.12937 5.07813 9.14375 4.5045 9.155 4.07821C9.1775 3.24675 9.25 2.4375 8.25437 2.4375H5.83687C5.21312 2.4375 4.61625 3.02792 5.2625 3.72883C5.8275 4.34308 5.46562 4.68542 5.5875 6.3895C5.1125 5.94804 4.2675 4.75583 3.67 3.23213C3.5025 2.81992 3.24875 2.43804 2.53437 2.43804H0.99625C0.3725 2.43804 0 2.73271 0 3.22617C0 4.33442 2.83063 10.5625 7.59063 10.5625ZM2.53437 3.25054C2.67 3.25054 2.68375 3.25054 2.78437 3.49808C3.39625 5.05971 4.76875 7.37046 5.77125 7.37046C6.52437 7.37046 6.52437 6.7015 6.52437 6.44963L6.52375 4.44438C6.4825 3.78083 6.20375 3.45042 6.02063 3.25L8.21313 3.25217C8.21437 3.26138 8.20063 5.47029 8.21937 6.00546C8.21937 6.76542 8.91562 7.20092 10.0025 6.24758C11.1494 5.12579 11.9425 3.44879 11.9744 3.38054C12.0213 3.28304 12.0619 3.25 12.2094 3.25H13.7475H13.7537C13.7531 3.25163 13.7531 3.25325 13.7525 3.25487C13.6119 3.82362 12.2238 5.63604 11.7594 6.19883C11.7519 6.2075 11.745 6.21671 11.7381 6.22592C11.5338 6.51517 11.3675 6.83475 11.7663 7.28433H11.7669C11.8031 7.32225 11.8975 7.41108 12.035 7.53458C12.4625 7.917 13.9288 9.22458 14.0588 9.74458C13.9725 9.7565 13.8788 9.74783 12.4256 9.75054C12.1163 9.75054 11.8744 9.34971 10.9513 8.54262C10.1212 7.84279 9.5825 7.55679 9.09188 7.55679C8.13937 7.55679 8.20875 8.22683 8.2175 9.03717C8.22062 9.91575 8.21438 9.63788 8.22125 9.69313C8.16563 9.71208 8.00625 9.75 7.59063 9.75C3.625 9.75 1.0425 4.29488 0.943125 3.25217C0.9775 3.24946 1.45062 3.25108 2.53437 3.25054Z" fill="#1C2D5A"/>
</g>
<defs>
<clipPath id="clip0_221_251">
<rect width="15" height="13" fill="white"/>
</clipPath>
</defs>
</svg>
