<?xml version="1.0" encoding="utf-8"?><svg viewBox="0 0 1920 1506" xmlns="http://www.w3.org/2000/svg" xmlns:xlink="http://www.w3.org/1999/xlink"><style>:root>svg{display:none}:root>svg:target{display:block}</style><svg fill="none" viewBox="0 0 1918 1300" id="advimagebgbottom" xmlns="http://www.w3.org/2000/svg"><path d="M-2 183.013C173.146.546 240.075.001 371.663 0 495.32 0 688.309 93.976 809.546 216.392c288.244 291.051 694.024 401.872 862.264 401.872 105.16 0 183.1-33.387 246.19-131.072v771.588c-91.55 29.68-199.18 70.49-439.18 9.9-324.12-81.83-482.455-329.92-669.274-393.219-72.989-24.73-379.793-25.967-538.144 29.677C202.124 912.145 50.454 913.052-2 860.623v-677.61z" fill="url(#apaint0_linear_221_24)"/><defs><linearGradient id="apaint0_linear_221_24" x1="958" y1="0" x2="958" y2="1300" gradientUnits="userSpaceOnUse"><stop stop-color="#FEFFF7"/><stop offset="1" stop-color="#FFF9EF"/></linearGradient></defs></svg><svg fill="none" viewBox="0 0 1920 1506" id="advimagebgtop" xmlns="http://www.w3.org/2000/svg"><path d="M-2 0c152.127 264.818 526.88 42.074 693.849 42.074 298.071-4.95 460.091 284.618 518.221 414.552 133.42 298.23 435.36 624.924 709.93 700.404V1506H-2V0z" fill="url(#bpaint0_linear_221_23)"/><defs><linearGradient id="bpaint0_linear_221_23" x1="959" y1="0" x2="959" y2="1506" gradientUnits="userSpaceOnUse"><stop stop-color="#FEFFF7"/><stop offset="1" stop-color="#FFF9EF"/></linearGradient></defs></svg><svg fill="none" viewBox="0 0 61 62" id="airplane" xmlns="http://www.w3.org/2000/svg"><g clip-path="url(#cclip0_221_174)"><path d="M54.112 21.167H37.386A6.896 6.896 0 0130.5 14.28a6.896 6.896 0 018.01-6.795 9.36 9.36 0 018.716-5.995c3.929 0 7.462 2.51 8.787 6.171A6.898 6.898 0 0161 14.281a6.896 6.896 0 01-6.887 6.886z" fill="url(#cpaint0_linear_221_174)"/><path d="M59.606 33.636a25.031 25.031 0 00-11.14-2.63H36.06l-11.15-7.87h-9.575l7.871 7.87h-8.073l-8.855-7.87H.454l3.898 8.771-1.4.234v3.306l.63.45a26.416 26.416 0 0015.44 4.948h2.217l-7.2 7.199 1.006.664c.314.208.61.447.88.71l.287.282h5.747l12.544-8.855h13.715c3.393 0 6.695-.678 9.813-2.014l1.44-.617a2.523 2.523 0 001.53-2.32 2.51 2.51 0 00-1.395-2.258zm-39.52-8.533h4.2l8.362 5.903h-6.66l-5.903-5.903zm-16.603 0H5.53l6.641 5.903h-1.354c-.703 0-1.41.06-2.103.174l-2.356.393-2.875-6.47zm55.214 11.302l-1.44.617a22.801 22.801 0 01-9.039 1.855H37.291l1.649-1.164-1.136-1.607-16.47 11.626h-4.2L27.26 37.605l-1.391-1.391-2.664 2.663h-4.185a24.462 24.462 0 01-14.1-4.443v-.627l4.117-.686a10.906 10.906 0 011.779-.147h37.648c3.544 0 7.092.837 10.26 2.421a.555.555 0 01-.029 1.01z" fill="url(#cpaint1_linear_221_174)"/><path d="M20.085 25.103h4.2l8.363 5.903h-6.66l-5.903-5.903z" fill="url(#cpaint2_linear_221_174)"/><path d="M58.697 36.405l-1.44.617a22.801 22.801 0 01-9.039 1.855H37.291l1.649-1.164-1.136-1.607-16.47 11.626h-4.2L27.26 37.605l-1.391-1.391-2.664 2.663h-4.185a24.462 24.462 0 01-14.1-4.443v-.627l4.117-.686a10.906 10.906 0 011.779-.147h37.648c3.544 0 7.092.837 10.26 2.421a.555.555 0 01-.029 1.01z" fill="url(#cpaint3_linear_221_174)"/><path d="M3.483 25.103H5.53l6.641 5.903h-1.354c-.703 0-1.41.06-2.103.174l-2.356.393-2.875-6.47z" fill="url(#cpaint4_linear_221_174)"/><path d="M17.71 61.506H5.903A5.909 5.909 0 010 55.603c0-2.89 2.128-5.339 4.94-5.802a7.905 7.905 0 016.866-4.037 7.879 7.879 0 017.698 6.251 4.897 4.897 0 013.125 4.572 4.925 4.925 0 01-4.92 4.919z" fill="url(#cpaint5_linear_221_174)"/></g><defs><linearGradient id="cpaint0_linear_221_174" x1="60.355" y1="19.663" x2="47.785" y2="-19.948" gradientUnits="userSpaceOnUse"><stop stop-color="#F09642"/><stop offset="1" stop-color="#F4E26E"/></linearGradient><linearGradient id="cpaint1_linear_221_174" x1="-1.11" y1="24.844" x2="54.675" y2="83.703" gradientUnits="userSpaceOnUse"><stop stop-color="#272671"/><stop offset="1" stop-color="#7BB3CB"/></linearGradient><linearGradient id="cpaint2_linear_221_174" x1="-1.11" y1="24.844" x2="54.675" y2="83.703" gradientUnits="userSpaceOnUse"><stop stop-color="#272671"/><stop offset="1" stop-color="#7BB3CB"/></linearGradient><linearGradient id="cpaint3_linear_221_174" x1="-1.11" y1="24.844" x2="54.675" y2="83.703" gradientUnits="userSpaceOnUse"><stop stop-color="#272671"/><stop offset="1" stop-color="#7BB3CB"/></linearGradient><linearGradient id="cpaint4_linear_221_174" x1="-1.11" y1="24.844" x2="54.675" y2="83.703" gradientUnits="userSpaceOnUse"><stop stop-color="#272671"/><stop offset="1" stop-color="#7BB3CB"/></linearGradient><linearGradient id="cpaint5_linear_221_174" x1="22.151" y1="60.302" x2="11.467" y2="29.078" gradientUnits="userSpaceOnUse"><stop stop-color="#F09642"/><stop offset="1" stop-color="#F4E26E"/></linearGradient><clipPath id="cclip0_221_174"><path fill="#fff" transform="translate(0 .998)" d="M0 0h61v61H0z"/></clipPath></defs></svg><svg fill="none" viewBox="0 0 53 56" id="armwrest" xmlns="http://www.w3.org/2000/svg"><path d="M19.298 32.062c-.172-.022-1.345-2.398-1.345-2.398l-2.328-1.792-1.247 1.248-1.12 1.063a9.36 9.36 0 00-.858.977l-.129 2.283 3.094 1.46s4.105-2.818 3.933-2.84z" fill="#FFE0D1"/><path d="M23.99 23.067l-1.656-1.385a1.815 1.815 0 00-2.62.296c-.645.835-.517 2.055.285 2.726l1.657 1.386 1.174.955 2.677-2.637-1.516-1.34z" fill="#FABC91"/><path d="M15.528 30.89c.263-.353.55-.69.863-1.006l.844-.821-1.515-1.191-1.282 1.31-1.152 1.117c-.32.322-.614.665-.883 1.026l-.132 2.397 1.592.768a9.7 9.7 0 011.665-3.6z" fill="#FAA875"/><path d="M19.187 28.807l-1.713-1.347a1.957 1.957 0 00-2.71.288 1.856 1.856 0 00.295 2.65l1.714 1.346 2.214 1.919 2.384-3.042-2.184-1.814z" fill="#FABC91"/><path d="M21.422 25.94l-1.626-1.368c-.788-.663-1.939-.532-2.571.293-.633.824-.508 2.029.28 2.691l1.626 1.368 2.072 1.843 2.236-3.176-2.017-1.65z" fill="#FABC91"/><path d="M25.507 24.366l-1.518-1.362-1.102-.936-1.471 1.95a.392.392 0 01-.572.068l-.01-.008c-.803-.682-.93-1.922-.285-2.77.014-.019.03-.036.045-.054a1.873 1.873 0 00-.964.75c-.567.856-.374 2.038.397 2.692l1.624 1.378 1.176.97.556-.555 2.124-2.123zM23.44 27.667l-2.02-1.61-1.068-.877-1.33 1.706a.455.455 0 01-.65.073l-.149-.122a1.898 1.898 0 01-.499-2.274c-.289.173-.543.434-.711.773-.396.794-.158 1.767.522 2.326l1.593 1.307 2.074 1.798.632-.875 1.605-2.225z" fill="#FAA875"/><path d="M26.3 34.84l-.694-.16a1.873 1.873 0 01.414-3.697l3.922-.015a2.734 2.734 0 011.61.517l4.939 3.554c.542.392.99.898 1.312 1.483l1.844 3.354 6.546 5.261c.478.385.546 1.088.15 1.557l-7.275 8.605a1.092 1.092 0 01-1.518.147l-4.947-3.977-.27-.01a7.86 7.86 0 01-4.434-1.574l-3.098-2.33s-5.223-3.887-5.223-4.014c0-.094 4.394-5.724 6.721-8.7z" fill="#FABC91"/><path d="M24.755 34.228l1.542-2.01-.672-.159a1.804 1.804 0 01-.913-.534l-.004.004a1.869 1.869 0 00.047 2.7z" fill="#F8D3AA"/><path d="M46.194 45.138l-.891-.716-6.634 7.996a1.045 1.045 0 01-1.471.145l-4.59-3.76a.782.782 0 00-.465-.177 7.527 7.527 0 01-4.297-1.553l-3.001-2.3s-2.432-1.845-3.924-3.019c-.801 1.041-1.342 1.755-1.342 1.788 0 .126 5.223 4.014 5.223 4.014l3.098 2.33a7.861 7.861 0 004.434 1.573l.27.01 4.947 3.977a1.092 1.092 0 001.519-.146l7.274-8.605a1.092 1.092 0 00-.15-1.557z" fill="#FAA875"/><path d="M31.51 43.603l.337.243c.98.71 2.346.527 3.104-.416l3.949-4.913-1.097-1.995a4.5 4.5 0 00-1.312-1.482l-4.939-3.555a2.734 2.734 0 00-1.609-.517l-3.922.016c-.512.002-.976.21-1.314.545a1.873 1.873 0 00.9 3.151l.693.161-1.29 1.65c.055.016.11.03.166.043l.695.161 2.215.512a9.25 9.25 0 003.425 6.396zM21.26 30.775l-2.132-1.81-1.084-.872-1.192 1.496a.504.504 0 01-.71.079l-.207-.167a1.883 1.883 0 01-.615-2.034 1.876 1.876 0 00-.527.466c-.635.816-.463 2 .343 2.648l1.636 1.315 2.16 1.915.65-.847 1.678-2.19z" fill="#FAA875"/><path d="M36.491 35.04l-4.939-3.555a2.734 2.734 0 00-1.609-.517l-3.922.015c-.512.002-.976.21-1.314.546a1.873 1.873 0 00.9 3.151l.693.16c-2.327 2.977-6.721 8.607-6.721 8.701 0 .127 5.222 4.014 5.222 4.014l1.112.836c.18-.185.353-.38.517-.583l10.186-12.674c-.042-.032-.082-.064-.125-.095z" fill="#FAA875"/><path d="M36.352 29.979a2.01 2.01 0 00-2.824.307 2.006 2.006 0 00-.307-2.824 2.01 2.01 0 00-2.824.308 2.006 2.006 0 00-.306-2.823 2.009 2.009 0 00-2.825.306 2.008 2.008 0 10-3.131-2.516l-5.898 7.338-2.66 3.334-3.11-2.102a9.234 9.234 0 00-1.852 4.894l-.275 3.7-5.233 6.509a.978.978 0 00.126 1.355l9.192 7.883c.42.36 1.053.301 1.4-.13l4.746-5.906c.098-.12.24-.2.393-.223a6.805 6.805 0 004.353-2.475L36.66 32.803a2.004 2.004 0 00-.307-2.824z" fill="#FABC91"/><path d="M8.386 47.032a.961.961 0 01-.123-1.328l5.111-6.382.269-3.627a9.067 9.067 0 01.781-3.065l-1.957-1.323a9.234 9.234 0 00-1.852 4.894l-.275 3.7-5.233 6.509a.978.978 0 00.126 1.355l9.192 7.883c.42.36 1.053.301 1.4-.13l.989-1.23-8.428-7.255zM32.665 29.942a4.61 4.61 0 00-2.713-.877l-3.938.016c-1 .003-1.94.394-2.65 1.098a3.754 3.754 0 00-1.112 2.645 3.753 3.753 0 002.924 3.71l.695.161 2.214.512a9.25 9.25 0 001.54 4.346l7.027-8.742-3.987-2.87z" fill="#FAA875"/><path d="M37.803 36.523l1.356 2.468-3.873 4.979-2.05-1.42-.532-.429a7.369 7.369 0 01-2.751-5.574l-.02-.865-3.634-.84-.694-.161a1.873 1.873 0 01.415-3.697l3.922-.015a2.734 2.734 0 011.61.516l4.938 3.555c.543.391.99.897 1.313 1.483z" fill="#FABC91"/><path d="M30.226.952C27.674.068 25.153.066 22.664.946a1.075 1.075 0 00-.6 1.479l3.422 7.138a1.07 1.07 0 001.93 0l3.42-7.128a1.076 1.076 0 00-.61-1.483z" fill="url(#dpaint0_linear_221_183)"/><path d="M52.36 11.53c-1.347-2.33-3.212-3.958-5.597-4.885-.573-.224-1.205.132-1.354.753l-1.855 7.718c-.21.878.643 1.621 1.43 1.246l6.916-3.295c.56-.267.778-.987.46-1.537z" fill="url(#dpaint1_linear_221_183)"/><path d="M.539 11.53C1.885 9.2 3.75 7.572 6.135 6.645c.574-.224 1.206.132 1.355.753l1.854 7.718c.211.878-.642 1.621-1.43 1.246L.998 13.067C.438 12.8.22 12.08.538 11.53z" fill="url(#dpaint2_linear_221_183)"/><path d="M15.674 33.398l1.147-1.347-1.183-.87-1.133 1.33a.682.682 0 00.138 1.013.78.78 0 001.031-.126z" fill="#FAA875"/><defs><linearGradient id="dpaint0_linear_221_183" x1="30.752" y1="9.416" x2="21.586" y2="-7.525" gradientUnits="userSpaceOnUse"><stop stop-color="#F09642"/><stop offset="1" stop-color="#F4E26E"/></linearGradient><linearGradient id="dpaint1_linear_221_183" x1="44.19" y1="9.897" x2="49.766" y2="18.129" gradientUnits="userSpaceOnUse"><stop stop-color="#272671"/><stop offset="1" stop-color="#7BB3CB"/></linearGradient><linearGradient id="dpaint2_linear_221_183" x1="1.06" y1="9.897" x2="6.635" y2="18.129" gradientUnits="userSpaceOnUse"><stop stop-color="#272671"/><stop offset="1" stop-color="#7BB3CB"/></linearGradient></defs></svg><svg fill="none" viewBox="0 0 30 37" id="boxwait" xmlns="http://www.w3.org/2000/svg"><path d="M28.593 12.81h0a.955.955 0 01.607.893s0 0 0 0V30.07H29a.763.763 0 01-.48.708l.073-17.969zm0 0l-6.83-2.665A7.2 7.2 0 0020.8 3.82a7.12 7.12 0 00-2.534-2.22 7.066 7.066 0 00-6.53 0 7.12 7.12 0 00-2.534 2.22 7.2 7.2 0 00-.965 6.325L1.407 12.81h0a.955.955 0 00-.607.894s0 0 0 0V30.07l27.793-17.26zm-8.82 10.632v.2a.949.949 0 00.694-.302s0 0 0 0l1.904-2.034.92.602h0a.95.95 0 001.338-.314.963.963 0 00.134-.489v0-5.014l2.53-.987v14.309l-11.34 4.427V19.53l2.866-1.119.676 4.977-.075.185s0 0 0 0a.942.942 0 00.353.068v-.2zm0 0a.749.749 0 00.548-.238m-.549.238l.55-.238m0 0l2.017-2.157-2.018 2.157zm1.206-3.797l-.802.857v-2.596l2.132-.832v2.5l-.114-.075h0a.95.95 0 00-1.216.146h0zm-6.746-9.066h0l3.654-3.307a.957.957 0 00.285-1.044.96.96 0 00-.868-.646.95.95 0 00-.694.265l-3.034 2.748-1.309-1.114s0 0 0 0a.95.95 0 00-1.345.113.963.963 0 00.112 1.35h0l1.944 1.654a.95.95 0 001.255-.02zm6.157 1.539l4.672 1.823-1.895.74-3.689-1.43c.341-.345.647-.725.912-1.133zm-1.258 4.139l-2.877-1.133c.48-.126.945-.303 1.388-.528l2.883 1.117-1.393.544zm-4.68-13.281c1.027 0 2.031.306 2.886.882a5.228 5.228 0 011.915 2.35 5.27 5.27 0 01-1.127 5.706 5.186 5.186 0 01-2.661 1.432 5.163 5.163 0 01-3.003-.298 5.206 5.206 0 01-2.332-1.928 5.263 5.263 0 01.648-6.61A5.185 5.185 0 0115 2.738zM4.387 13.703l2.096-.819 10.568 4.16-2.052.802-10.612-4.143zm9.658 20.137L2.708 29.413V15.105l11.338 4.426V33.84z" fill="url(#epaint0_linear_221_489)" stroke="url(#epaint1_linear_221_489)" stroke-width=".4"/><defs><linearGradient id="epaint0_linear_221_489" x1="4.5" y1="1" x2="15" y2="36" gradientUnits="userSpaceOnUse"><stop offset=".104" stop-color="#F09642"/><stop offset="1" stop-color="#F0DF42"/></linearGradient><linearGradient id="epaint1_linear_221_489" x1="5.667" y1="1" x2="26.855" y2="25.72" gradientUnits="userSpaceOnUse"><stop stop-color="#F09642"/><stop offset="1" stop-color="#F0DF42"/></linearGradient></defs></svg><svg fill="none" viewBox="0 0 15 13" id="facebook" xmlns="http://www.w3.org/2000/svg"><g clip-path="url(#fclip0_221_247)"><path d="M8.514 12.975H6.107c-.402 0-.73-.283-.73-.631V7.648H3.975c-.402 0-.73-.283-.73-.63V5.006c0-.348.328-.631.73-.631h1.404V3.367c0-.999.362-1.849 1.048-2.458.69-.611 1.653-.934 2.786-.934l1.835.002c.401 0 .728.284.728.63v1.869c0 .348-.327.63-.729.63l-1.236.001c-.377 0-.473.065-.493.085-.034.034-.074.128-.074.387v.796h1.71c.129 0 .254.027.36.08.232.11.376.322.376.55v2.013c0 .347-.328.63-.73.63H9.243v4.696c0 .348-.327.63-.73.63zm-2.255-.762h2.103V7.307c0-.232.218-.42.486-.42h1.959v-1.75H8.849c-.268 0-.486-.189-.486-.42V3.578c0-.298.035-.636.294-.891.314-.308.81-.343 1.154-.343h1.084V.738L9.21.737c-1.82 0-2.952 1.008-2.952 2.63v1.35c0 .231-.219.42-.487.42H4.126v1.75h1.646c.268 0 .487.188.487.42v4.905zM11.045.739z" fill="#1C2D5A"/></g><defs><clipPath id="fclip0_221_247"><path fill="#fff" d="M0 0h15v13H0z"/></clipPath></defs></svg><svg fill="none" viewBox="0 0 55 59" id="hand" xmlns="http://www.w3.org/2000/svg"><path d="M34.655 29.498c7.908 0 14.32-6.411 14.32-14.32C48.974 7.27 42.562.86 34.654.86s-14.32 6.411-14.32 14.32c0 7.908 6.412 14.319 14.32 14.319z" fill="#FCCF23"/><path d="M35.816 14.154V8.607a2.831 2.831 0 011.67 2.576 1.163 1.163 0 002.325 0 5.163 5.163 0 00-3.995-5.02V5.05a1.162 1.162 0 00-2.325 0v1.114a5.152 5.152 0 000 10.04v5.547a2.832 2.832 0 01-1.67-2.577 1.162 1.162 0 00-2.325 0 5.163 5.163 0 003.995 5.02v1.113a1.162 1.162 0 002.325 0v-1.113a5.151 5.151 0 000-10.04zm-3.995-2.97a2.831 2.831 0 011.67-2.577v5.152a2.83 2.83 0 01-1.67-2.576zm3.995 10.567v-5.154a2.823 2.823 0 010 5.154z" fill="#FCA40B"/><path d="M.484 34.842h10.447v22.836H.484V34.842z" fill="url(#gpaint0_linear_221_166)"/><path d="M10.93 38.951a13.165 13.165 0 0115.393-.176l.195.138h7.065a6.574 6.574 0 016.574 6.574l11.059-8.414a2.053 2.053 0 012.822 2.945L42.35 54.112a11.122 11.122 0 01-11.867 3.52l-12.5-3.89-7.053.2v-14.99z" fill="#FABC91"/><path d="M40.159 46.648H27.308a1.162 1.162 0 110-2.324h12.85a1.162 1.162 0 010 2.324z" fill="#FAA875"/><defs><linearGradient id="gpaint0_linear_221_166" x1="1.261" y1="42.511" x2="14.542" y2="52.378" gradientUnits="userSpaceOnUse"><stop stop-color="#272671"/><stop offset="1" stop-color="#7BB3CB"/></linearGradient></defs></svg><svg fill="none" viewBox="0 0 37 35" id="handtree" xmlns="http://www.w3.org/2000/svg"><g clip-path="url(#hclip0_221_494)" stroke-width=".4"><path d="M26.994 24.093a2.992 2.992 0 00-2.35-1.114H18.94c-1.24 0-2.43-.316-3.444-.91-1.453-.853-3.796-1.998-6.707-2.61-2.63-.553-4.803.235-6.33 1.178-1.526.94-2.417 2.042-2.495 2.14l27.03 1.316zm0 0l4.742-5.169c.993-1.25 2.608-2.01 4.295-2.01h.367c.266 0 .519.127.67.345m-10.074 6.834l10.073-6.834m0 0c.151.22.176.498.064.74h0l-4.444 9.552c-.998 2.148-3.028 3.765-5.426 4.332h0l-.77.182m10.576-14.806L26.492 32.065m0 0l-4.536 1.716h0a10.134 10.134 0 01-3.579.647c-1.314 0-2.628-.25-3.846-.752l-5.705-2.345h0a22.427 22.427 0 00-6.428-1.585l.019-.2-.019.2-1.873-.177s0 0 0 0l25.967 2.496zM1.407 28.104v-4.582c.688-.751 3.369-3.328 7.039-2.558 2.691.566 4.864 1.627 6.213 2.418h0c1.268.745 2.749 1.137 4.281 1.137h5.705c.746 0 1.334.572 1.334 1.251 0 .68-.589 1.251-1.334 1.251h-7.96c-1.184 0-2.355.18-3.476.533 0 0 0 0 0 0l-.03.01-.198.06.068.196.187.542h0l.005.012.221.531.07.17.175-.056a9.897 9.897 0 012.979-.457h7.959c1.607 0 2.934-1.236 2.94-2.782l5.389-5.875.005-.005.004-.006a3.85 3.85 0 012.127-1.331l-3.89 8.36h0c-.794 1.71-2.418 3.008-4.344 3.464h0l-.82.194h-.001a.845.845 0 00-.102.03v.001l-4.586 1.735.07.187-.07-.187a8.534 8.534 0 01-6.203-.087h0L9.46 29.916a24.1 24.1 0 00-6.904-1.702l-1.15-.11z" fill="url(#hpaint0_linear_221_494)" stroke="url(#hpaint1_linear_221_494)"/><path d="M20.55 16.354h0a.786.786 0 01-.4-.428h0a7.022 7.022 0 01-.378-1.904c-.063-1.047.099-2.378.996-3.514 1.306-1.654 3.731-2.363 7.126-2.184l-7.344 8.03zm0 0c1.162.55 2.232.831 3.197.831m-3.197-.831l3.197.831m0 0c.809 0 1.542-.198 2.189-.598 1.517-.937 2.188-2.793 2.487-4.392.3-1.609.235-3.02.229-3.14l-4.905 8.13zm4.904-8.13c-.02-.403-.356-.71-.757-.73l.758.73zm-1.991 3.66c-.303 1.105-.805 2.09-1.593 2.577-.819.506-1.977.477-3.496-.18a5.783 5.783 0 01-.205-1.54c.007-.705.169-1.484.682-2.134.842-1.065 2.493-1.628 5.008-1.6-.017.792-.119 1.866-.396 2.877z" fill="url(#hpaint2_linear_221_494)" stroke="url(#hpaint3_linear_221_494)"/><path d="M17.227 9.289a.791.791 0 00.446-.382h0c1.14-2.207 1.25-4.093.22-5.553C16.805 1.808 14.666 1.14 12.825.85A18.834 18.834 0 009.208.646h0c-.402.023-.736.33-.756.733h0c-.172 3.514.67 6.011 2.58 7.335h0c1.121.777 2.399.998 3.493.998 1.454 0 2.609-.39 2.702-.423zm0 0s0 0 0 0L17.16 9.1m.066.189s0 0 0 0l-.066-.189m0 0a8.75 8.75 0 01-2.636.412c-1.07 0-2.303-.216-3.379-.962L9.219.846C9.479.832 15.653.52 17.73 3.47c.967 1.373.888 3.17-.235 5.345a.592.592 0 01-.334.285zm-.598-4.883h0c.61.867.587 2.094-.182 3.71a7.594 7.594 0 01-1.835.244c-.845.003-1.785-.16-2.574-.706-1.279-.886-1.953-2.638-1.936-5.298.928.003 2.217.093 3.436.379 1.317.308 2.501.833 3.091 1.671z" fill="url(#hpaint4_linear_221_494)" stroke="url(#hpaint5_linear_221_494)"/><path d="M19.16 24.315h-.001c-.418-.038-.75-.384-.727-.806l.728.806zm0 0a.87.87 0 00.074.003m-.074-.003l.074.003m-6.661-18.56h0a.759.759 0 01-.416-1.02l.416 1.02zm0 0c3.054 1.264 4.632 4.188 5.412 7.342.779 3.147.75 6.478.626 8.489M12.573 5.757L18.61 21.59M13.209 4.343h0c3.795 1.57 6.149 5.47 6.856 11.192.03.248.058.494.081.737 1.666-3.47 3.941-4.732 4.109-4.821M13.209 4.343l11.828 8.453s0 0 0 0a.754.754 0 00.305-1.053h0a.822.822 0 00-1.087-.292M13.209 4.343c-.397-.164-.871.003-1.052.394l1.052-.394zm11.046 7.108l.094.177-.095-.177s0 0 0 0zm-5.02 12.867a.793.793 0 00.793-.663l-.794.663zm-.624-2.729a23.362 23.362 0 00-.18 1.92l.18-1.92z" fill="url(#hpaint6_linear_221_494)" stroke="url(#hpaint7_linear_221_494)"/></g><defs><linearGradient id="hpaint0_linear_221_494" x1="4.625" y1="17.114" x2="6.671" y2="35.541" gradientUnits="userSpaceOnUse"><stop offset=".104" stop-color="#F09642"/><stop offset="1" stop-color="#F0DF42"/></linearGradient><linearGradient id="hpaint1_linear_221_494" x1="6.167" y1="17.114" x2="12.209" y2="36.165" gradientUnits="userSpaceOnUse"><stop stop-color="#F09642"/><stop offset="1" stop-color="#F0DF42"/></linearGradient><linearGradient id="hpaint2_linear_221_494" x1="21.023" y1="8.497" x2="23.119" y2="17.247" gradientUnits="userSpaceOnUse"><stop offset=".104" stop-color="#F09642"/><stop offset="1" stop-color="#F0DF42"/></linearGradient><linearGradient id="hpaint3_linear_221_494" x1="21.377" y1="8.497" x2="26.225" y2="15.578" gradientUnits="userSpaceOnUse"><stop stop-color="#F09642"/><stop offset="1" stop-color="#F0DF42"/></linearGradient><linearGradient id="hpaint4_linear_221_494" x1="9.851" y1=".83" x2="11.782" y2="9.882" gradientUnits="userSpaceOnUse"><stop offset=".104" stop-color="#F09642"/><stop offset="1" stop-color="#F0DF42"/></linearGradient><linearGradient id="hpaint5_linear_221_494" x1="10.259" y1=".83" x2="14.985" y2="8.587" gradientUnits="userSpaceOnUse"><stop stop-color="#F09642"/><stop offset="1" stop-color="#F0DF42"/></linearGradient><linearGradient id="hpaint6_linear_221_494" x1="13.908" y1="4.48" x2="20.783" y2="23.385" gradientUnits="userSpaceOnUse"><stop offset=".104" stop-color="#F09642"/><stop offset="1" stop-color="#F0DF42"/></linearGradient><linearGradient id="hpaint7_linear_221_494" x1="14.447" y1="4.48" x2="26.469" y2="16.049" gradientUnits="userSpaceOnUse"><stop stop-color="#F09642"/><stop offset="1" stop-color="#F0DF42"/></linearGradient><clipPath id="hclip0_221_494"><path fill="#fff" d="M0 0h37v35H0z"/></clipPath></defs></svg><svg fill="none" viewBox="0 0 14 14" id="instagram" xmlns="http://www.w3.org/2000/svg"><path d="M10.21 0H3.79C1.7 0 0 1.7 0 3.79v6.42C0 12.3 1.7 14 3.79 14h6.42C12.3 14 14 12.3 14 10.21V3.79C14 1.7 12.3 0 10.21 0zm2.97 10.21a2.972 2.972 0 01-2.97 2.97H3.79a2.972 2.972 0 01-2.97-2.97V3.79A2.972 2.972 0 013.79.82h6.42a2.972 2.972 0 012.97 2.97v6.42z" fill="#1C2D5A"/><path d="M7 3.172A3.832 3.832 0 003.174 7 3.832 3.832 0 007 10.828 3.832 3.832 0 0010.829 7 3.832 3.832 0 007 3.172zm0 6.835A3.01 3.01 0 013.994 7a3.01 3.01 0 013.008-3.007A3.01 3.01 0 0110.008 7a3.01 3.01 0 01-3.007 3.007zM10.92 1.812a1.132 1.132 0 000 2.263 1.132 1.132 0 000-2.262zm0 1.442a.31.31 0 11.002-.622.31.31 0 01-.001.622z" fill="#1C2D5A"/></svg><svg fill="none" viewBox="0 0 45 55" id="leaflet" xmlns="http://www.w3.org/2000/svg"><path d="M3.373.998C13.62 1.996 21.119 11.112 20.12 21.36l-1.566 16.081C8.307 36.443.81 27.327 1.807 17.08L3.373.998z" fill="url(#jpaint0_linear_221_157)"/><path d="M44.405 18.644C32.675 16.903 21.754 25 20.012 36.731L17.8 51.635c11.73 1.741 22.652-6.356 24.393-18.087l2.213-14.904z" fill="url(#jpaint1_linear_221_157)"/><mask id="ja" style="mask-type:alpha" maskUnits="userSpaceOnUse" x="17" y="18" width="28" height="34"><path d="M44.405 18.644C32.675 16.903 21.754 25 20.012 36.731L17.8 51.635c11.73 1.741 22.652-6.356 24.393-18.087l2.213-14.904z" fill="url(#jpaint2_linear_221_157)"/></mask><g mask="url(#ja)"><path d="M38.159 32.818c1.83-2.957 4.789-7.953 6.231-14.909 2.38 6.454.94 31.493-4.819 31.298-5.758-.196-22.241 11.047-21.985 3.506-.462-11.92 16.263-12.936 20.573-19.895z" fill="url(#jpaint3_linear_221_157)"/></g><defs><linearGradient id="jpaint0_linear_221_157" x1="18.421" y1="34.755" x2="-15.758" y2="-10.609" gradientUnits="userSpaceOnUse"><stop stop-color="#F09642"/><stop offset="1" stop-color="#F4E26E"/></linearGradient><linearGradient id="jpaint1_linear_221_157" x1="17.799" y1="51.534" x2="53.842" y2="7.412" gradientUnits="userSpaceOnUse"><stop stop-color="#F09642"/><stop offset="1" stop-color="#F0DF42" stop-opacity=".85"/></linearGradient><linearGradient id="jpaint2_linear_221_157" x1="17.799" y1="51.534" x2="41.414" y2="15.491" gradientUnits="userSpaceOnUse"><stop stop-color="#F09642"/><stop offset="1" stop-color="#F4E26E"/></linearGradient><linearGradient id="jpaint3_linear_221_157" x1="26.665" y1="52.701" x2="54.72" y2="41.562" gradientUnits="userSpaceOnUse"><stop stop-color="#272671"/><stop offset="1" stop-color="#7BB3CB"/></linearGradient></defs></svg><svg fill="none" viewBox="0 0 28 37" id="medal" xmlns="http://www.w3.org/2000/svg"><path d="M13.188 21.755h-.218a1.061 1.061 0 01-.117-.007 9.082 9.082 0 01-6.223-2.79 8.73 8.73 0 01-2.425-6.288A8.75 8.75 0 017 6.532a9.104 9.104 0 016.387-2.431 9.09 9.09 0 016.283 2.68 8.737 8.737 0 012.54 6.243 8.745 8.745 0 01-2.68 6.187 9.098 9.098 0 01-6.34 2.544s0 0 0 0zm0 0v-.2.2zm13.704 5.74c.305.282.366.69.26 1.034a1.014 1.014 0 01-.796.715l-3.319.65-.663 3.25c-.07.406-.383.68-.728.783-.345.103-.758.044-1.046-.253l-2.96-2.9v4.389c.012.412-.24.742-.559.91a1.035 1.035 0 01-1.075-.048l-2.817-1.84-2.818 1.84c-.34.236-.756.215-1.075.047-.319-.167-.571-.497-.559-.91V24.278C4.101 22.521.8 18.106.8 12.944.8 6.244 6.361.8 13.19.8c6.827 0 12.388 5.444 12.388 12.144l1.315 14.552zm0 0l-5.537-5.426a12.145 12.145 0 003.07-4.015 11.923 11.923 0 001.152-5.11l1.315 14.552zM13.77 32.084h0a1.063 1.063 0 00-1.162 0l-1.77 1.156v-8.37a12.66 12.66 0 004.702 0v8.37l-1.77-1.156zm.67-17.51l-.769-.39h0a1.064 1.064 0 00-.965 0l-.769.39.141-.83h0a1.017 1.017 0 00-.037-.491l-.19.063.19-.063a1.03 1.03 0 00-.263-.417s0 0 0 0l-.61-.588.85-.126s0 0 0 0a1.06 1.06 0 00.783-.558l.387-.76.388.76.178-.09-.178.09c.076.149.187.277.323.374.136.097.294.16.46.185 0 0 0 0 0 0l.85.125-.61.588s0 0 0 0c-.12.116-.21.26-.263.417l.19.063-.19-.063a1.018 1.018 0 00-.037.49h0l.14.832zm-8.138-1.629c0-1.333.404-2.636 1.16-3.745a6.857 6.857 0 013.09-2.485 7.02 7.02 0 013.98-.384 6.932 6.932 0 013.527 1.847 6.703 6.703 0 011.883 3.452 6.615 6.615 0 01-.391 3.895 6.776 6.776 0 01-2.535 3.027 6.99 6.99 0 01-8.696-.842 6.682 6.682 0 01-2.018-4.765zm-3.4 0c0-5.553 4.61-10.077 10.287-10.077 5.676 0 10.287 4.524 10.287 10.077S18.865 23.022 13.19 23.022C7.512 23.022 2.9 18.497 2.9 12.944zM21.94 28.002c-.203.04-.39.137-.537.281a1.028 1.028 0 00-.288.53l-.416 2.04-3.059-2.997v-3.579a12.459 12.459 0 002.001-.97l4.376 4.288-2.077.407zm-8.752-11.738l2.148 1.092c.374.205.796.129 1.096-.085.3-.213.508-.587.424-1.005l-.395-2.333 1.72-1.66c.317-.289.374-.71.259-1.059a1.014 1.014 0 00-.84-.704l-2.39-.353-1.081-2.118c-.183-.385-.572-.566-.94-.566-.37 0-.758.182-.94.566l-1.081 2.118-2.392.353c-.425.05-.723.356-.839.704-.115.349-.058.77.259 1.058l1.72 1.66-.395 2.334c-.084.418.123.791.423 1.005.3.214.722.29 1.097.085l2.147-1.092z" fill="url(#kpaint0_linear_221_502)" stroke="url(#kpaint1_linear_221_502)" stroke-width=".4"/><defs><linearGradient id="kpaint0_linear_221_502" x1="4.25" y1="1" x2="15.411" y2="35.544" gradientUnits="userSpaceOnUse"><stop offset=".104" stop-color="#F09642"/><stop offset="1" stop-color="#F0DF42"/></linearGradient><linearGradient id="kpaint1_linear_221_502" x1="5.334" y1="1" x2="26.706" y2="24.153" gradientUnits="userSpaceOnUse"><stop stop-color="#F09642"/><stop offset="1" stop-color="#F0DF42"/></linearGradient></defs></svg><svg fill="none" viewBox="0 0 25 25" id="plus" xmlns="http://www.w3.org/2000/svg"><path d="M21.95 10.45h-7.4v-7.4a2.05 2.05 0 00-4.1 0v7.4h-7.4a2.05 2.05 0 000 4.1h7.4v7.4a2.05 2.05 0 004.1 0v-7.4h7.4a2.05 2.05 0 000-4.1z" fill="url(#lpaint0_linear_221_66)" stroke="url(#lpaint1_linear_221_66)" stroke-width="2"/><defs><linearGradient id="lpaint0_linear_221_66" x1="2" y1="2" x2="23" y2="24.5" gradientUnits="userSpaceOnUse"><stop stop-color="#F0A542"/><stop stop-color="#F0A542"/><stop offset="1" stop-color="#F0DF42"/></linearGradient><linearGradient id="lpaint1_linear_221_66" x1="5.5" y1="2" x2="17.5" y2="19.5" gradientUnits="userSpaceOnUse"><stop stop-color="#F09642"/><stop offset="1" stop-color="#F0DF42"/></linearGradient></defs></svg><svg fill="none" viewBox="0 0 89 80" id="solutionimg1" xmlns="http://www.w3.org/2000/svg"><path d="M69 52.367C69 70.857 54.496 80 35.802 80 17.108 80 0 65.654 0 47.163 0 28.674 9.113 22.75 17.576 22.75c8.094 0 15.2 7.624 22.132 10.945C48.784 38.045 69 41.883 69 52.367z" fill="#F09642"/><g clip-path="url(#mclip0_221_430)"><path fill="var(--gear-color)" d="M87.802 25.457l-6.71-.737a25.035 25.035 0 00-1.896-4.52l4.217-5.213c.43-.533.387-1.3-.1-1.783l-7.662-7.57a1.365 1.365 0 00-1.802-.1l-5.271 4.17a25.625 25.625 0 00-4.57-1.875l-.745-6.637A1.349 1.349 0 0061.917 0H51.083c-.69 0-1.27.513-1.346 1.192l-.745 6.63a25.634 25.634 0 00-4.57 1.875l-5.27-4.17a1.365 1.365 0 00-1.803.098l-7.661 7.579a1.329 1.329 0 00-.1 1.783l4.223 5.213a25.028 25.028 0 00-1.896 4.52l-6.71.737A1.345 1.345 0 0024 26.788v10.716c0 .682.52 1.256 1.205 1.331l6.703.737a25.05 25.05 0 001.896 4.52l-4.217 5.214c-.43.532-.387 1.3.1 1.782l7.662 7.579c.49.48 1.266.518 1.803.09l5.27-4.169a25.615 25.615 0 004.57 1.875l.745 6.637a1.349 1.349 0 001.346 1.192h10.834a1.35 1.35 0 001.346-1.185l.745-6.637a25.637 25.637 0 004.57-1.875l5.27 4.17a1.365 1.365 0 001.803-.098l7.654-7.579c.487-.482.53-1.25.1-1.782l-4.216-5.214a25.042 25.042 0 001.896-4.52l6.71-.737A1.345 1.345 0 0089 37.504V26.788c0-.68-.515-1.253-1.198-1.33zm-1.51 10.848l-6.401.705a1.35 1.35 0 00-1.16.987 22.5 22.5 0 01-2.325 5.558 1.328 1.328 0 00.114 1.51l4.026 4.977-5.946 5.881-5.032-3.982a1.366 1.366 0 00-1.526-.112 23.026 23.026 0 01-5.62 2.3c-.54.142-.936.597-.998 1.146l-.712 6.338h-8.41l-.719-6.338a1.344 1.344 0 00-.998-1.146 23.022 23.022 0 01-5.62-2.3 1.366 1.366 0 00-1.526.112l-5.032 3.982-5.946-5.88 4.026-4.971c.35-.432.395-1.032.114-1.51a22.505 22.505 0 01-2.325-5.559 1.35 1.35 0 00-1.16-.987l-6.408-.704v-8.318l6.408-.711a1.35 1.35 0 001.16-.988 22.497 22.497 0 012.325-5.558 1.328 1.328 0 00-.114-1.51l-4.026-4.977 5.946-5.881 5.04 3.982c.436.345 1.042.39 1.525.112a23.025 23.025 0 015.62-2.3c.54-.141.936-.597.998-1.146l.712-6.338h8.403l.712 6.338c.062.55.458 1.005.998 1.147a23.022 23.022 0 015.62 2.3c.484.277 1.09.232 1.526-.113l5.032-3.982 5.946 5.888-4.026 4.977a1.328 1.328 0 00-.113 1.51 22.499 22.499 0 012.325 5.558 1.35 1.35 0 001.16.987l6.407.705v8.311z"/><path fill="var(--gear-incolor)" d="M86.292 36.305l-6.401.705a1.35 1.35 0 00-1.16.987 22.5 22.5 0 01-2.325 5.558 1.328 1.328 0 00.114 1.51l4.026 4.977-5.946 5.881-5.032-3.982a1.366 1.366 0 00-1.526-.112 23.026 23.026 0 01-5.62 2.3c-.54.142-.936.597-.998 1.146l-.712 6.338h-8.41l-.719-6.338a1.344 1.344 0 00-.998-1.146 23.022 23.022 0 01-5.62-2.3 1.366 1.366 0 00-1.526.112l-5.032 3.982-5.946-5.88 4.026-4.971c.35-.432.395-1.032.114-1.51a22.505 22.505 0 01-2.325-5.559 1.35 1.35 0 00-1.16-.987l-6.408-.704v-8.318l6.408-.711a1.35 1.35 0 001.16-.988 22.497 22.497 0 012.325-5.558 1.328 1.328 0 00-.114-1.51l-4.026-4.977 5.946-5.881 5.04 3.982c.436.345 1.042.39 1.525.112a23.025 23.025 0 015.62-2.3c.54-.141.936-.597.998-1.146l.712-6.338h8.403l.712 6.338c.062.55.458 1.005.998 1.147a23.022 23.022 0 015.62 2.3c.484.277 1.09.232 1.526-.113l5.032-3.982 5.946 5.888-4.026 4.977a1.328 1.328 0 00-.113 1.51 22.499 22.499 0 012.325 5.558 1.35 1.35 0 001.16.987l6.407.705v8.311z"/><path fill="var(--arrow-color)" d="M73.042 22.99c-5.112-9.038-16.664-12.265-25.801-7.208-9.138 5.056-12.4 16.483-7.288 25.52a1.365 1.365 0 002.138.293l8.847-8.75 3.125 4.123a1.365 1.365 0 002.04.143l8.523-8.429v4.804h2.708v-8.037c0-.74-.606-1.34-1.354-1.34h-8.125v2.68h4.856l-7.418 7.337-3.125-4.123a1.358 1.358 0 00-.988-.536 1.387 1.387 0 00-1.053.393l-8.61 8.514a15.903 15.903 0 012.408-16.383c5.678-6.852 15.897-7.854 22.826-2.238 6.927 5.616 7.94 15.724 2.263 22.576a16.273 16.273 0 01-1.68 1.745v-7.91h-2.708v9.866c-.868.5-1.775.914-2.708 1.242v-8.429h-2.709v9.129c-.894.151-1.8.229-2.708.23v-5.34h-2.708v5.123a16.27 16.27 0 01-2.709-.689v-7.113h-2.708v5.88a16.346 16.346 0 01-2.187-1.495l-1.721 2.07a19.116 19.116 0 0021.287 1.873c9.137-5.057 12.4-16.483 7.287-25.521z"/></g><defs><clipPath id="mclip0_221_430"><path fill="#fff" transform="translate(24)" d="M0 0h65v64.292H0z"/></clipPath></defs></svg><svg fill="none" viewBox="0 0 86 79" id="solutionimg2" xmlns="http://www.w3.org/2000/svg"><path d="M63.558 11.784c6.762 2.224 18.384 12.237 14.208 31.62-6.144 18.587-25.555 31.06-43.327 25.215-17.773-5.846-20.471-16.78-17.69-25.193 2.66-8.049 18.678-3.249 24.149-9.09 7.162-7.65 12.583-25.867 22.66-22.552z" fill="#C4EC8E"/><mask id="na" maskUnits="userSpaceOnUse" x="0" y="-.001" width="60" height="60" fill="#000"><path fill="#fff" d="M0-.001h60v60H0z"/><path d="M45.563 20.232c-2.3 0-4.547.676-6.46 1.944a11.559 11.559 0 00-4.28 5.18 11.462 11.462 0 00-.662 6.666 11.514 11.514 0 003.181 5.91 11.652 11.652 0 005.953 3.157c2.255.446 4.592.217 6.716-.656a11.608 11.608 0 005.217-4.25 11.48 11.48 0 001.96-6.412 11.51 11.51 0 00-3.41-8.156 11.681 11.681 0 00-8.215-3.383zm0 21.156a9.738 9.738 0 01-5.383-1.621 9.632 9.632 0 01-3.568-4.316 9.55 9.55 0 01-.55-5.556 9.595 9.595 0 012.65-4.924 9.71 9.71 0 014.96-2.631 9.754 9.754 0 015.598.547 9.672 9.672 0 014.347 3.542 9.566 9.566 0 011.633 5.342 9.592 9.592 0 01-2.84 6.797 9.735 9.735 0 01-6.847 2.82z"/><path d="M45.563 28.886H47.5a.972.972 0 00.685-.281.958.958 0 000-1.36.973.973 0 00-.685-.282h-.969v-.962c0-.255-.102-.5-.283-.68a.972.972 0 00-1.37 0 .958.958 0 00-.284.68v1.127a2.9 2.9 0 00-1.537 1.26 2.867 2.867 0 00.633 3.665 2.92 2.92 0 001.873.68c.256 0 .503.101.684.282a.958.958 0 010 1.36.973.973 0 01-.684.281h-1.938a.973.973 0 00-.685.282.958.958 0 000 1.36c.182.18.428.281.685.281h.969v.962c0 .255.102.5.283.68a.973.973 0 001.37 0 .958.958 0 00.284-.68v-1.127a2.901 2.901 0 001.537-1.26 2.867 2.867 0 00-.633-3.665 2.918 2.918 0 00-1.873-.68.972.972 0 01-.684-.281.958.958 0 010-1.36.973.973 0 01.684-.282z"/><path d="M54.638 43.95l-19.624 5.083-4.378-1.739 2.422-.598a3.16 3.16 0 001.863-1.301 3.12 3.12 0 00-.627-4.172 3.177 3.177 0 00-2.163-.706l-16.58.87-3.895-.002v-.959c0-.255-.102-.5-.284-.68a.973.973 0 00-.684-.282h-6.38l6.78-6.731h7.35a.975.975 0 00.684-.282L33.37 18.308h8.318a.975.975 0 00.684-.282L56.22 4.282V7.73c0 .255.102.5.283.68a.972.972 0 001.37 0 .958.958 0 00.284-.68V1.96c0-.255-.102-.5-.283-.68A.972.972 0 0057.188 1h-5.813a.972.972 0 00-.685.281.958.958 0 000 1.36c.182.18.428.282.685.282h3.474L41.286 16.385H32.97a.974.974 0 00-.685.281L18.036 30.81h-7.349a.973.973 0 00-.684.281l-8.72 8.655a.958.958 0 00-.283.68v17.31c0 .255.102.5.284.68.181.18.428.281.685.281h8.719a.972.972 0 00.684-.281.958.958 0 00.284-.68v-1.089l5.813-.819 16.291 3.805c.19.044.388.031.57-.038l22.583-8.623a3.71 3.71 0 002.021-1.853c.41-.852.477-1.827.186-2.725a3.7 3.7 0 00-1.751-2.107 3.745 3.745 0 00-2.73-.337zM9.718 56.774h-6.78V41.388h6.78v15.386zm5.909-13.464l16.603-.873a1.232 1.232 0 011.11.589 1.207 1.207 0 01-.32 1.6 1.218 1.218 0 01-.431.203l-9.542 2.357a.97.97 0 00-.73.79.957.957 0 00.46.97.972.972 0 00.738.106l3.904-.964 7.171 2.847c.192.076.404.09.604.038l19.932-5.162c.441-.113.909-.055 1.308.163s.698.58.838 1.01c.139.43.107.896-.089 1.304a1.779 1.779 0 01-.967.889l-22.303 8.516-16.178-3.778a.97.97 0 00-.358-.016l-5.72.806V43.308l3.97.002z"/></mask><path d="M45.563 20.232c-2.3 0-4.547.676-6.46 1.944a11.559 11.559 0 00-4.28 5.18 11.462 11.462 0 00-.662 6.666 11.514 11.514 0 003.181 5.91 11.652 11.652 0 005.953 3.157c2.255.446 4.592.217 6.716-.656a11.608 11.608 0 005.217-4.25 11.48 11.48 0 001.96-6.412 11.51 11.51 0 00-3.41-8.156 11.681 11.681 0 00-8.215-3.383zm0 21.156a9.738 9.738 0 01-5.383-1.621 9.632 9.632 0 01-3.568-4.316 9.55 9.55 0 01-.55-5.556 9.595 9.595 0 012.65-4.924 9.71 9.71 0 014.96-2.631 9.754 9.754 0 015.598.547 9.672 9.672 0 014.347 3.542 9.566 9.566 0 011.633 5.342 9.592 9.592 0 01-2.84 6.797 9.735 9.735 0 01-6.847 2.82z" fill="var(--gear-color)"/><path d="M45.563 28.886H47.5a.972.972 0 00.685-.281.958.958 0 000-1.36.973.973 0 00-.685-.282h-.969v-.962c0-.255-.102-.5-.283-.68a.972.972 0 00-1.37 0 .958.958 0 00-.284.68v1.127a2.9 2.9 0 00-1.537 1.26 2.867 2.867 0 00.633 3.665 2.92 2.92 0 001.873.68c.256 0 .503.101.684.282a.958.958 0 010 1.36.973.973 0 01-.684.281h-1.938a.973.973 0 00-.685.282.958.958 0 000 1.36c.182.18.428.281.685.281h.969v.962c0 .255.102.5.283.68a.973.973 0 001.37 0 .958.958 0 00.284-.68v-1.127a2.901 2.901 0 001.537-1.26 2.867 2.867 0 00-.633-3.665 2.918 2.918 0 00-1.873-.68.972.972 0 01-.684-.281.958.958 0 010-1.36.973.973 0 01.684-.282z" fill="var(--gear-color)"/><path d="M54.638 43.95l-19.624 5.083-4.378-1.739 2.422-.598a3.16 3.16 0 001.863-1.301 3.12 3.12 0 00-.627-4.172 3.177 3.177 0 00-2.163-.706l-16.58.87-3.895-.002v-.959c0-.255-.102-.5-.284-.68a.973.973 0 00-.684-.282h-6.38l6.78-6.731h7.35a.975.975 0 00.684-.282L33.37 18.308h8.318a.975.975 0 00.684-.282L56.22 4.282V7.73c0 .255.102.5.283.68a.972.972 0 001.37 0 .958.958 0 00.284-.68V1.96c0-.255-.102-.5-.283-.68A.972.972 0 0057.188 1h-5.813a.972.972 0 00-.685.281.958.958 0 000 1.36c.182.18.428.282.685.282h3.474L41.286 16.385H32.97a.974.974 0 00-.685.281L18.036 30.81h-7.349a.973.973 0 00-.684.281l-8.72 8.655a.958.958 0 00-.283.68v17.31c0 .255.102.5.284.68.181.18.428.281.685.281h8.719a.972.972 0 00.684-.281.958.958 0 00.284-.68v-1.089l5.813-.819 16.291 3.805c.19.044.388.031.57-.038l22.583-8.623a3.71 3.71 0 002.021-1.853c.41-.852.477-1.827.186-2.725a3.7 3.7 0 00-1.751-2.107 3.745 3.745 0 00-2.73-.337zM9.718 56.774h-6.78V41.388h6.78v15.386zm5.909-13.464l16.603-.873a1.232 1.232 0 011.11.589 1.207 1.207 0 01-.32 1.6 1.218 1.218 0 01-.431.203l-9.542 2.357a.97.97 0 00-.73.79.957.957 0 00.46.97.972.972 0 00.738.106l3.904-.964 7.171 2.847c.192.076.404.09.604.038l19.932-5.162c.441-.113.909-.055 1.308.163s.698.58.838 1.01c.139.43.107.896-.089 1.304a1.779 1.779 0 01-.967.889l-22.303 8.516-16.178-3.778a.97.97 0 00-.358-.016l-5.72.806V43.308l3.97.002z" fill="var(--gear-color)"/><path d="M45.563 20.232c-2.3 0-4.547.676-6.46 1.944a11.559 11.559 0 00-4.28 5.18 11.462 11.462 0 00-.662 6.666 11.514 11.514 0 003.181 5.91 11.652 11.652 0 005.953 3.157c2.255.446 4.592.217 6.716-.656a11.608 11.608 0 005.217-4.25 11.48 11.48 0 001.96-6.412 11.51 11.51 0 00-3.41-8.156 11.681 11.681 0 00-8.215-3.383zm0 21.156a9.738 9.738 0 01-5.383-1.621 9.632 9.632 0 01-3.568-4.316 9.55 9.55 0 01-.55-5.556 9.595 9.595 0 012.65-4.924 9.71 9.71 0 014.96-2.631 9.754 9.754 0 015.598.547 9.672 9.672 0 014.347 3.542 9.566 9.566 0 011.633 5.342 9.592 9.592 0 01-2.84 6.797 9.735 9.735 0 01-6.847 2.82z" stroke-width=".6" mask="url(#na)" stroke="var(--gear-color)"/><path d="M45.563 28.886H47.5a.972.972 0 00.685-.281.958.958 0 000-1.36.973.973 0 00-.685-.282h-.969v-.962c0-.255-.102-.5-.283-.68a.972.972 0 00-1.37 0 .958.958 0 00-.284.68v1.127a2.9 2.9 0 00-1.537 1.26 2.867 2.867 0 00.633 3.665 2.92 2.92 0 001.873.68c.256 0 .503.101.684.282a.958.958 0 010 1.36.973.973 0 01-.684.281h-1.938a.973.973 0 00-.685.282.958.958 0 000 1.36c.182.18.428.281.685.281h.969v.962c0 .255.102.5.283.68a.973.973 0 001.37 0 .958.958 0 00.284-.68v-1.127a2.901 2.901 0 001.537-1.26 2.867 2.867 0 00-.633-3.665 2.918 2.918 0 00-1.873-.68.972.972 0 01-.684-.281.958.958 0 010-1.36.973.973 0 01.684-.282z" stroke-width=".6" mask="url(#na)" stroke="var(--gear-color)"/><path d="M54.638 43.95l-19.624 5.083-4.378-1.739 2.422-.598a3.16 3.16 0 001.863-1.301 3.12 3.12 0 00-.627-4.172 3.177 3.177 0 00-2.163-.706l-16.58.87-3.895-.002v-.959c0-.255-.102-.5-.284-.68a.973.973 0 00-.684-.282h-6.38l6.78-6.731h7.35a.975.975 0 00.684-.282L33.37 18.308h8.318a.975.975 0 00.684-.282L56.22 4.282V7.73c0 .255.102.5.283.68a.972.972 0 001.37 0 .958.958 0 00.284-.68V1.96c0-.255-.102-.5-.283-.68A.972.972 0 0057.188 1h-5.813a.972.972 0 00-.685.281.958.958 0 000 1.36c.182.18.428.282.685.282h3.474L41.286 16.385H32.97a.974.974 0 00-.685.281L18.036 30.81h-7.349a.973.973 0 00-.684.281l-8.72 8.655a.958.958 0 00-.283.68v17.31c0 .255.102.5.284.68.181.18.428.281.685.281h8.719a.972.972 0 00.684-.281.958.958 0 00.284-.68v-1.089l5.813-.819 16.291 3.805c.19.044.388.031.57-.038l22.583-8.623a3.71 3.71 0 002.021-1.853c.41-.852.477-1.827.186-2.725a3.7 3.7 0 00-1.751-2.107 3.745 3.745 0 00-2.73-.337zM9.718 56.774h-6.78V41.388h6.78v15.386zm5.909-13.464l16.603-.873a1.232 1.232 0 011.11.589 1.207 1.207 0 01-.32 1.6 1.218 1.218 0 01-.431.203l-9.542 2.357a.97.97 0 00-.73.79.957.957 0 00.46.97.972.972 0 00.738.106l3.904-.964 7.171 2.847c.192.076.404.09.604.038l19.932-5.162c.441-.113.909-.055 1.308.163s.698.58.838 1.01c.139.43.107.896-.089 1.304a1.779 1.779 0 01-.967.889l-22.303 8.516-16.178-3.778a.97.97 0 00-.358-.016l-5.72.806V43.308l3.97.002z" stroke-width=".6" mask="url(#na)" stroke="var(--gear-color)"/></svg><svg fill="none" viewBox="0 0 101 78" id="solutionimg3" xmlns="http://www.w3.org/2000/svg"><path d="M11.91 23.936c-.925-9.78 27.655-17.208 40.796-13.58 19.309 5.983 43.261 30.842 37.48 52.195-1.985 7.33-10.74 13.692-22.67 10.496-11.41-3.058-17.913-20.566-26.646-27.02-11.435-8.45-27.534-7.017-28.96-22.09z" fill="#F7D880"/><mask id="oa" maskUnits="userSpaceOnUse" x="6" y="5" width="54" height="50" fill="#000"><path fill="#fff" d="M6 5h54v50H6z"/><path d="M54.667 11.2h-4.334V9.467a3.467 3.467 0 10-6.933 0V11.2h-6.933V9.467a3.467 3.467 0 00-6.934 0V11.2H22.6V9.467a3.466 3.466 0 10-6.933 0V11.2h-4.334A4.333 4.333 0 007 15.533V50.2a4.333 4.333 0 004.333 4.333H35.6a.867.867 0 100-1.733H11.333a2.608 2.608 0 01-2.6-2.6V23.333h48.534v14.734a.867.867 0 001.733 0V15.533a4.333 4.333 0 00-4.333-4.333zm-9.534-1.733a1.734 1.734 0 013.467 0v5.2a1.733 1.733 0 11-3.467 0v-5.2zm-13.866 0a1.734 1.734 0 113.466 0v5.2a1.733 1.733 0 11-3.466 0v-5.2zm-13.867 0a1.733 1.733 0 113.467 0v5.2a1.733 1.733 0 01-3.467 0v-5.2zM57.267 21.6H8.733v-6.067a2.608 2.608 0 012.6-2.6h4.334v1.734a3.467 3.467 0 006.933 0v-1.734h6.933v1.734a3.467 3.467 0 006.934 0v-1.734H43.4v1.734a3.467 3.467 0 106.933 0v-1.734h4.334a2.608 2.608 0 012.6 2.6V21.6z"/></mask><path d="M54.667 11.2h-4.334V9.467a3.467 3.467 0 10-6.933 0V11.2h-6.933V9.467a3.467 3.467 0 00-6.934 0V11.2H22.6V9.467a3.466 3.466 0 10-6.933 0V11.2h-4.334A4.333 4.333 0 007 15.533V50.2a4.333 4.333 0 004.333 4.333H35.6a.867.867 0 100-1.733H11.333a2.608 2.608 0 01-2.6-2.6V23.333h48.534v14.734a.867.867 0 001.733 0V15.533a4.333 4.333 0 00-4.333-4.333zm-9.534-1.733a1.734 1.734 0 013.467 0v5.2a1.733 1.733 0 11-3.467 0v-5.2zm-13.866 0a1.734 1.734 0 113.466 0v5.2a1.733 1.733 0 11-3.466 0v-5.2zm-13.867 0a1.733 1.733 0 113.467 0v5.2a1.733 1.733 0 01-3.467 0v-5.2zM57.267 21.6H8.733v-6.067a2.608 2.608 0 012.6-2.6h4.334v1.734a3.467 3.467 0 006.933 0v-1.734h6.933v1.734a3.467 3.467 0 006.934 0v-1.734H43.4v1.734a3.467 3.467 0 106.933 0v-1.734h4.334a2.608 2.608 0 012.6 2.6V21.6z" fill="var(--gear-color)"/><path d="M54.667 11.2h-4.334V9.467a3.467 3.467 0 10-6.933 0V11.2h-6.933V9.467a3.467 3.467 0 00-6.934 0V11.2H22.6V9.467a3.466 3.466 0 10-6.933 0V11.2h-4.334A4.333 4.333 0 007 15.533V50.2a4.333 4.333 0 004.333 4.333H35.6a.867.867 0 100-1.733H11.333a2.608 2.608 0 01-2.6-2.6V23.333h48.534v14.734a.867.867 0 001.733 0V15.533a4.333 4.333 0 00-4.333-4.333zm-9.534-1.733a1.734 1.734 0 013.467 0v5.2a1.733 1.733 0 11-3.467 0v-5.2zm-13.866 0a1.734 1.734 0 113.466 0v5.2a1.733 1.733 0 11-3.466 0v-5.2zm-13.867 0a1.733 1.733 0 113.467 0v5.2a1.733 1.733 0 01-3.467 0v-5.2zM57.267 21.6H8.733v-6.067a2.608 2.608 0 012.6-2.6h4.334v1.734a3.467 3.467 0 006.933 0v-1.734h6.933v1.734a3.467 3.467 0 006.934 0v-1.734H43.4v1.734a3.467 3.467 0 106.933 0v-1.734h4.334a2.608 2.608 0 012.6 2.6V21.6z" stroke-width=".8" mask="url(#oa)" stroke="var(--gear-color)"/><path d="M31.468 29.4a1.933 1.933 0 00-1.933-1.933h-3.467a1.933 1.933 0 00-1.933 1.934V32a1.933 1.933 0 001.933 1.933h3.467a1.934 1.934 0 001.933-1.933v-2.6zm-5.2 2.4v-2.2h3.067v2.2h-3.067zM21.065 29.4a1.934 1.934 0 00-1.934-1.933h-3.466a1.933 1.933 0 00-1.934 1.934V32a1.933 1.933 0 001.934 1.933h3.466a1.934 1.934 0 001.934-1.933v-2.6zm-5.2 2.4v-2.2h3.066v2.2h-3.066zM50.333 33.934a1.933 1.933 0 001.933-1.933v-2.6a1.933 1.933 0 00-1.933-1.934h-3.467a1.933 1.933 0 00-1.933 1.934V32a1.933 1.933 0 001.933 1.933h3.467zm-3.267-4.333h3.067v2.2h-3.067v-2.2zM31.468 37.199a1.933 1.933 0 00-1.933-1.933h-3.467a1.933 1.933 0 00-1.933 1.933v2.6a1.933 1.933 0 001.933 1.933h3.467a1.933 1.933 0 001.933-1.933v-2.6zm-5.2 2.4v-2.2h3.067v2.2h-3.067zM21.065 37.199a1.933 1.933 0 00-1.934-1.933h-3.466a1.933 1.933 0 00-1.934 1.933v2.6a1.933 1.933 0 001.934 1.933h3.466a1.933 1.933 0 001.934-1.933v-2.6zm-5.2 2.4v-2.2h3.066v2.2h-3.066zM29.535 43.066h-3.467A1.933 1.933 0 0024.135 45v2.6a1.933 1.933 0 001.933 1.934h3.467a1.933 1.933 0 001.933-1.934V45a1.933 1.933 0 00-1.933-1.933zM26.268 47.4v-2.2h3.067v2.2h-3.067zM36.467 33.934h3.467a1.934 1.934 0 001.933-1.933v-2.6a1.934 1.934 0 00-1.933-1.934h-3.467a1.933 1.933 0 00-1.933 1.934V32a1.934 1.934 0 001.933 1.933zm.2-4.333h3.067v2.2h-3.067v-2.2zM34.534 39.799a1.934 1.934 0 001.933 1.933 1.067 1.067 0 00.2-2.114v-2.219h3.267a1.066 1.066 0 100-2.133h-3.467a1.933 1.933 0 00-1.933 1.933v2.6zM19.131 43.066h-3.466A1.933 1.933 0 0013.73 45v2.6a1.933 1.933 0 001.934 1.934h3.466a1.933 1.933 0 001.934-1.934V45a1.933 1.933 0 00-1.934-1.933zM15.865 47.4v-2.2h3.066v2.2h-3.066z" stroke-width=".4" fill="var(--gear-color)" stroke="var(--gear-color)"/><path d="M47.735 35.266h0A11.467 11.467 0 1059.2 46.732v0a11.48 11.48 0 00-11.466-11.466zm0 20.8a9.333 9.333 0 119.333-9.334 9.344 9.344 0 01-9.334 9.334z" stroke-width=".4" fill="var(--gear-color)" stroke="var(--gear-color)"/><path d="M52.6 42.957h0l-.002.002-6.6 6.6-2.922-2.923h0l-.002-.003a1.067 1.067 0 00-1.508 1.509h0l.002.002 3.676 3.677h0a1.067 1.067 0 001.509 0h0l7.353-7.353h0l.003-.003a1.066 1.066 0 00-1.509-1.508z" stroke-width=".4" fill="var(--gear-color)" stroke="var(--gear-color)"/></svg><svg fill="none" viewBox="0 0 43 43" id="triangle" xmlns="http://www.w3.org/2000/svg"><path d="M30.437 39.945L3.3 13.01 40.195 2.976l-9.758 36.97z" stroke="url(#ppaint0_linear_221_112)" stroke-width="3"/><defs><linearGradient id="ppaint0_linear_221_112" x1=".399" y1="12.245" x2="48.889" y2="25.043" gradientUnits="userSpaceOnUse"><stop stop-color="#F09642"/><stop offset="1" stop-color="#FDFA7B"/></linearGradient></defs></svg><svg fill="none" viewBox="0 0 14 14" id="twitter" xmlns="http://www.w3.org/2000/svg"><path d="M.277 11.43a8.125 8.125 0 004.362 1.258c2.28 0 4.37-.877 5.886-2.467a8.005 8.005 0 002.207-5.645c.55-.47 1.196-1.368 1.196-2.243a.438.438 0 00-.66-.377c-.516.303-.986.383-1.47.247-.99-.964-2.461-1.167-3.701-.498-1.084.583-1.687 1.65-1.632 2.817a7.25 7.25 0 01-4.703-2.568.438.438 0 00-.715.058A3.049 3.049 0 00.98 5.023a.455.455 0 00-.38.453c0 .916.411 1.757 1.075 2.33a.437.437 0 00-.112.454 3.14 3.14 0 001.777 1.904 5.094 5.094 0 01-2.774.463c-.458-.062-.683.553-.288.803zm4.481-1.116a.438.438 0 00-.257-.784 2.282 2.282 0 01-1.792-.932c.198-.013.403-.043.597-.096.444-.12.423-.76-.028-.85a2.246 2.246 0 01-1.701-1.53c.22.055.444.085.667.09.443.002.61-.566.25-.803a2.174 2.174 0 01-.932-2.373A8.134 8.134 0 006.951 5.44a.437.437 0 00.447-.535c-.277-1.201.394-2.043 1.114-2.43.713-.386 1.857-.506 2.735.414.26.275 1.14.286 1.588.181-.201.378-.51.737-.798.939a.437.437 0 00-.187.38 7.114 7.114 0 01-1.958 5.226c-1.349 1.416-3.214 2.196-5.253 2.196-.81 0-1.606-.132-2.357-.386a5.908 5.908 0 002.476-1.112z" fill="#1C2D5A"/></svg><svg fill="none" viewBox="0 0 15 13" id="vk" xmlns="http://www.w3.org/2000/svg"><g clip-path="url(#rclip0_221_251)"><path d="M7.59 10.563c2.17 0 1.397-1.191 1.564-1.533-.002-.256-.005-.502.005-.651.138.033.462.176 1.132.74 1.035.905 1.299 1.444 2.135 1.444h1.538c.487 0 .741-.176.868-.322.122-.142.242-.391.111-.78-.343-.933-2.344-2.546-2.469-2.716.02-.031.05-.073.065-.094h-.002c.395-.453 1.903-2.41 2.125-3.194a.01.01 0 00.001-.004c.12-.357.01-.59-.104-.72-.17-.196-.443-.296-.811-.296h-1.539c-.515 0-.905.225-1.103.635-.33.729-1.26 2.227-1.955 2.757a30.091 30.091 0 01.004-1.75c.023-.832.095-1.641-.9-1.641H5.836c-.624 0-1.22.59-.574 1.29.564.615.203.957.325 2.661-.476-.441-1.32-1.633-1.918-3.157-.167-.412-.421-.794-1.136-.794H.996c-.623 0-.996.295-.996.788 0 1.108 2.83 7.337 7.59 7.337zM2.535 3.25c.136 0 .15 0 .25.247C3.396 5.06 4.77 7.37 5.771 7.37c.753 0 .753-.668.753-.92V4.444c-.042-.663-.32-.994-.503-1.194l2.192.002c.001.01-.012 2.218.006 2.753 0 .76.697 1.196 1.784.243 1.146-1.122 1.94-2.8 1.971-2.867.047-.098.088-.131.235-.131h1.545c0 .002 0 .003-.002.005-.14.569-1.528 2.381-1.993 2.944l-.02.027c-.205.29-.372.609.027 1.058.037.038.132.127.269.25.428.383 1.894 1.69 2.024 2.21-.086.013-.18.004-1.633.007-.31 0-.552-.401-1.475-1.208-.83-.7-1.369-.986-1.86-.986-.952 0-.882.67-.873 1.48.003.879-.004.6.003.656-.055.02-.215.057-.63.057-3.966 0-6.549-5.455-6.648-6.498.035-.003.508 0 1.591-.001z" fill="#1C2D5A"/></g><defs><clipPath id="rclip0_221_251"><path fill="#fff" d="M0 0h15v13H0z"/></clipPath></defs></svg></svg>