<svg width="40" height="41" viewBox="0 0 40 41" fill="none" xmlns="http://www.w3.org/2000/svg">
<g clip-path="url(#clip0_17_67)">
<path d="M32.584 4.9298C32.5608 4.90662 32.5144 4.88345 32.4913 4.8371C32.5144 4.88345 32.5608 4.90662 32.584 4.9298Z" fill="#FFFAF7"/>
<path d="M32.1437 4.58214C32.2596 4.67484 32.3754 4.76754 32.4913 4.83707C32.3754 4.76754 32.2596 4.67484 32.1437 4.58214C32.1205 4.55897 32.0742 4.53579 32.051 4.51262L32.0046 4.48944L32.051 4.51262C32.0742 4.53579 32.1205 4.55897 32.1437 4.58214Z" fill="#FFFAF7"/>
<path d="M31.9583 4.44314L31.8887 4.39679L31.9583 4.44314Z" fill="#FFFAF7"/>
<path d="M31.7033 4.25773C31.7265 4.28091 31.7265 4.28091 31.7497 4.30408C31.7497 4.28091 31.7265 4.28091 31.7033 4.25773L31.657 4.23456L31.7033 4.25773Z" fill="#FFFAF7"/>
<path d="M31.6802 4.23456C31.6339 4.21139 31.6107 4.18821 31.5875 4.16504C31.6107 4.18821 31.6339 4.21139 31.6802 4.23456Z" fill="#FFFAF7"/>
<path d="M31.263 3.95649C31.2167 3.93331 31.1935 3.91014 31.1472 3.88696C31.1935 3.91014 31.2399 3.93331 31.263 3.95649Z" fill="#FFFAF7"/>
<path d="M23.2909 0.758307C23.2213 0.735132 23.1286 0.735132 23.0591 0.711957C23.0128 0.711957 22.9896 0.711957 22.9432 0.688782C22.9896 0.688782 23.0128 0.688782 23.0591 0.711957C23.1286 0.711957 23.2213 0.735132 23.2909 0.758307Z" fill="#FFFAF7"/>
<path d="M28.4589 2.3574C28.2503 2.2647 28.0649 2.172 27.8795 2.10248C28.0881 2.172 28.2735 2.2647 28.4589 2.3574Z" fill="#FFFAF7"/>
<path d="M30.7764 3.63202C30.8227 3.65519 30.8691 3.67837 30.8922 3.70154C30.8691 3.67837 30.8227 3.65519 30.7764 3.63202Z" fill="#FFFAF7"/>
<path d="M26.0719 1.40721C26.0255 1.38404 25.9792 1.38404 25.9328 1.36086C25.8865 1.33769 25.8401 1.33769 25.7938 1.31451C25.8401 1.33769 25.8865 1.33769 25.9328 1.36086C25.956 1.38404 26.0023 1.40721 26.0719 1.40721Z" fill="#FFFAF7"/>
<path d="M25.3071 1.19865C25.2839 1.17548 25.2607 1.17548 25.2375 1.17548H25.2144H25.2375C25.2607 1.17548 25.2839 1.17548 25.3071 1.19865Z" fill="#FFFAF7"/>
<path d="M27.7404 2.03296C27.8099 2.05613 27.8563 2.07931 27.8795 2.10248C27.8331 2.07931 27.8099 2.05613 27.7404 2.03296Z" fill="#FFFAF7"/>
<path d="M30.2665 3.30754L30.3592 3.37706C30.4287 3.42341 30.4983 3.44659 30.5446 3.49294C30.4751 3.44659 30.4287 3.42341 30.3592 3.37706L30.2665 3.30754C30.2433 3.30754 30.2433 3.28436 30.2202 3.28436C30.2433 3.30754 30.2433 3.30754 30.2665 3.30754Z" fill="#FFFAF7"/>
<path d="M32.7462 5.06882C32.6999 5.02247 32.6535 4.99929 32.6072 4.95294C32.6535 4.99929 32.6999 5.02247 32.7462 5.06882Z" fill="#FFFAF7"/>
<path d="M29.9884 3.14529C30.0348 3.16846 30.0811 3.19164 30.1275 3.21481C30.0811 3.19164 30.0348 3.16846 29.9884 3.14529L29.9652 3.12211C29.9421 3.12211 29.9421 3.09894 29.9189 3.09894C29.9421 3.09894 29.9421 3.12211 29.9652 3.12211L29.9884 3.14529Z" fill="#FFFAF7"/>
<path d="M28.5052 2.38054L28.6674 2.47324C28.7369 2.49641 28.8065 2.54276 28.8528 2.56594C28.7833 2.54276 28.7138 2.49641 28.6674 2.47324L28.5052 2.38054C28.5052 2.35736 28.5052 2.38054 28.5052 2.38054C28.5052 2.38054 28.5052 2.35736 28.5052 2.38054Z" fill="#FFFAF7"/>
<path d="M27.022 1.7548C27.1611 1.80115 27.3233 1.87068 27.5087 1.9402C27.5319 1.9402 27.5319 1.9402 27.555 1.96338C27.5319 1.96338 27.5319 1.96338 27.5087 1.9402C27.3233 1.87068 27.1611 1.80115 27.022 1.7548L26.9293 1.73163H26.9061H26.9293L27.022 1.7548Z" fill="#FFFAF7"/>
<path d="M0.208557 17.5833C0.208557 17.5602 0.208557 17.5138 0.231732 17.4906V17.4675V17.4906C0.208557 17.5138 0.208557 17.537 0.208557 17.5833Z" fill="#FFFAF7"/>
<path d="M0.115845 18.2554C0.115845 18.2323 0.115845 18.2091 0.115845 18.1859C0.13902 18.2091 0.115845 18.2323 0.115845 18.2554Z" fill="#FFFAF7"/>
<path d="M0.0463683 19.0202V18.997C0.0463683 18.997 0.0463683 18.997 0.0463683 19.0202C0.0463683 19.0897 0.0231934 19.1824 0.0231934 19.2519C0.0463683 19.1592 0.0463683 19.0897 0.0463683 19.0202Z" fill="#FFFAF7"/>
<path d="M10.4519 27.2009C10.4519 27.2241 10.4751 27.2473 10.4751 27.2473C10.4519 27.2473 10.4519 27.2241 10.4519 27.2009Z" fill="#FFFAF7"/>
<path d="M20.7416 0.503357C21.1819 0.526532 21.6454 0.549707 22.0857 0.596057C21.6454 0.549707 21.2051 0.503357 20.7416 0.503357Z" fill="#FFFAF7"/>
<path d="M24.1947 0.920532C24.3337 0.943707 24.4496 0.966882 24.5655 1.01323C24.4496 0.966882 24.3106 0.943707 24.1947 0.920532Z" fill="#FFFAF7"/>
<path d="M28.8992 2.56598C29.2004 2.70503 29.4785 2.86725 29.7566 3.02948C29.4785 2.86725 29.2004 2.70503 28.8992 2.56598Z" fill="#FFFAF7"/>
<path d="M33.0243 5.30059C32.978 5.27742 32.9548 5.23107 32.9085 5.20789L32.8389 5.13837L32.9085 5.20789C32.9548 5.23107 33.0012 5.27742 33.0243 5.30059Z" fill="#FFFAF7"/>
<path d="M13.4647 9.19403C15.1796 7.36321 17.2654 5.92636 19.6292 5.02254C20.3476 4.74444 21.0661 4.51269 21.8077 4.35046C21.0661 4.53586 20.3476 4.74444 19.6292 5.02254C17.2422 5.94954 15.1564 7.36321 13.4647 9.19403Z" fill="#FFFAF7"/>
<path d="M17.0104 34.6632C15.0406 33.4813 13.3256 31.8822 11.9815 29.9587C11.4948 29.2635 11.0776 28.545 10.7068 27.7803C11.0776 28.5219 11.4948 29.2635 11.9815 29.9587C13.3256 31.8591 15.0406 33.4581 17.0104 34.6632Z" fill="#FFFAF7"/>
<path d="M4.28737 30.7467C1.5759 28.0584 0.0695249 24.4895 0 20.6888V20.6424V20.5729C0 20.5497 0 20.5266 0 20.5266C0 20.5497 0 20.5729 0 20.5729C0 20.5961 0 20.6193 0 20.6424V20.6888C0.0695249 24.4895 1.5759 28.0584 4.28737 30.7467C6.99884 33.4118 10.591 34.895 14.4148 34.895C15.0174 34.895 15.6199 34.8487 16.2225 34.7792C15.6199 34.8487 15.0174 34.895 14.4148 34.895C10.591 34.895 6.99884 33.4118 4.28737 30.7467Z" fill="#FFFAF7"/>
<path d="M33.4647 5.69459C33.511 5.74094 33.5342 5.76411 33.5805 5.78729C33.5574 5.76411 33.511 5.74094 33.4647 5.69459L33.4183 5.64824L33.3951 5.62506L33.4183 5.64824L33.4647 5.69459Z" fill="#FFFAF7"/>
<path d="M34.0209 6.20446C33.9977 6.18129 33.9745 6.15811 33.9513 6.13494C33.9282 6.11176 33.8818 6.06541 33.8586 6.04224C33.8818 6.06541 33.9282 6.11176 33.9513 6.13494C33.9513 6.15811 33.9977 6.18129 34.0209 6.20446Z" fill="#FFFAF7"/>
<path d="M33.7196 5.92632C33.6964 5.90314 33.6501 5.87997 33.6269 5.83362C33.6501 5.85679 33.6732 5.90314 33.7196 5.92632Z" fill="#FFFAF7"/>
<path d="M0.23175 17.4211V17.4675C0.23175 17.4906 0.23175 17.537 0.208575 17.5602V17.5833C0.208575 17.6065 0.208575 17.6297 0.208575 17.6529V17.6992V17.7224V17.7456V17.7687C0.208575 17.8383 0.1854 17.9078 0.1854 17.9773C0.1854 18.0468 0.162225 18.0932 0.162225 18.1627C0.162225 18.1859 0.162225 18.2091 0.162225 18.2322C0.162225 18.3018 0.13905 18.3713 0.13905 18.4408C0.13905 18.4872 0.13905 18.5567 0.115875 18.603V18.6494C0.115875 18.6726 0.115875 18.6957 0.115875 18.7189C0.115875 18.7421 0.115875 18.7653 0.115875 18.7884C0.115875 18.8116 0.115875 18.8116 0.115875 18.8348C0.115875 18.858 0.115875 18.858 0.115875 18.8811C0.115875 18.9043 0.115875 18.9275 0.115875 18.9507V18.9738C0.115875 19.0434 0.0926999 19.1361 0.0926999 19.2056C0.0926999 19.2519 0.0926999 19.2751 0.0926999 19.3215C0.0926999 19.3678 0.0926999 19.391 0.0926999 19.4373C0.0926999 19.4373 0.0926999 19.4373 0.0926999 19.4605V19.4837V19.5069V19.53C0.0926999 19.5764 0.0926999 19.6227 0.0926999 19.6691C0.0926999 19.6923 0.0926999 19.7154 0.0926999 19.7154C0.0926999 19.8081 0.0926999 19.8777 0.0926999 19.9472C0.0926999 19.9704 0.0926999 19.9704 0.0926999 19.9935V20.0167C0.0926999 20.0862 0.0926999 20.1558 0.0926999 20.2021V20.2485V20.2716V20.3412C0 20.4107 0 20.4107 0 20.4339C0 20.457 0 20.457 0 20.4802C0 20.5034 0 20.5034 0 20.5266C0 20.5497 0 20.5729 0 20.5729V20.6424V20.6888C0.0463499 24.4895 1.5759 28.0584 4.28737 30.7235C6.99884 33.3887 10.591 34.8719 14.4148 34.8719C15.0174 34.8719 15.6199 34.8255 16.2225 34.756C16.5006 34.7328 16.7555 34.6865 17.0336 34.6401C15.0637 33.4582 13.3488 31.8591 12.0046 29.9356C11.518 29.2403 11.1008 28.5219 10.73 27.7571C10.6373 27.5949 10.5678 27.4095 10.4983 27.2473C10.4983 27.2241 10.4751 27.2009 10.4751 27.2009C9.54809 25.092 9.06141 22.8209 9.06141 20.4802C9.06141 17.0735 10.0811 13.8058 12.0278 11.0016C12.4681 10.3527 12.9548 9.75019 13.4878 9.19399C15.2028 7.36317 17.2885 5.92632 19.6524 5.0225C20.3708 4.7444 21.0892 4.51265 21.8308 4.35043C23.0591 4.04915 24.3337 3.9101 25.6315 3.9101C28.6443 3.9101 31.5411 4.72123 34.0672 6.20442C34.044 6.18125 34.0209 6.15807 33.9977 6.1349C33.9745 6.11172 33.9282 6.06537 33.905 6.0422L33.8818 6.01902C33.8586 5.99585 33.8123 5.97267 33.7891 5.92632C33.7659 5.90315 33.7196 5.87997 33.6964 5.83362C33.6964 5.83362 33.6964 5.83362 33.6732 5.81045C33.6269 5.78727 33.6037 5.74092 33.5574 5.71775L33.511 5.6714L33.4878 5.64822C33.4415 5.60187 33.3951 5.55553 33.3256 5.50918C33.2561 5.46283 33.2097 5.41648 33.1634 5.37013C33.1402 5.34695 33.117 5.34695 33.117 5.32378C33.0707 5.3006 33.0475 5.25425 33.0012 5.23108L32.9316 5.16155L32.8853 5.1152L32.8621 5.09203L32.8389 5.06885C32.7926 5.0225 32.7462 4.99933 32.6999 4.95298C32.6767 4.9298 32.6304 4.90663 32.6072 4.86028C32.4913 4.76758 32.3754 4.67488 32.2827 4.60535C32.2596 4.58218 32.2132 4.559 32.19 4.53583L32.1437 4.51265L32.1205 4.48948C32.1205 4.48948 32.1205 4.48948 32.0973 4.48948L32.0278 4.44313L32.0046 4.41995L31.9119 4.35043L31.8888 4.32725C31.8656 4.30408 31.8656 4.30408 31.8424 4.2809L31.8192 4.25773C31.7961 4.23455 31.7497 4.21138 31.7265 4.1882L31.7034 4.16503C31.6107 4.0955 31.5411 4.04915 31.4484 3.97963C31.4021 3.95645 31.3789 3.93328 31.3326 3.9101L31.3094 3.88693C31.263 3.84058 31.1935 3.8174 31.1472 3.77105C31.124 3.77105 31.124 3.74788 31.1008 3.74788C31.0545 3.7247 31.0081 3.70153 30.9849 3.67835C30.9154 3.632 30.8691 3.60883 30.7995 3.56248C30.73 3.51613 30.6837 3.49295 30.6141 3.4466L30.5214 3.37708C30.4983 3.37708 30.4983 3.3539 30.4751 3.3539C30.4519 3.3539 30.4287 3.33073 30.4056 3.33073C30.3824 3.33073 30.3824 3.30755 30.3592 3.30755C30.3129 3.28438 30.2665 3.2612 30.2202 3.23803L30.197 3.21485C30.1738 3.21485 30.1738 3.19168 30.1506 3.19168C30.1043 3.1685 30.0579 3.14533 30.0348 3.12215C30.0348 3.12215 30.0348 3.12215 30.0116 3.12215C29.7335 2.95993 29.4322 2.82088 29.1541 2.65865H29.1309C29.0614 2.63548 28.9919 2.58913 28.9455 2.56595L28.5052 2.38055C28.5052 2.38055 28.5052 2.38055 28.482 2.38055C28.2735 2.28785 28.0881 2.19515 27.9027 2.12563C27.8563 2.10245 27.81 2.07928 27.7636 2.07928H27.7404H27.7173L27.6477 2.0561C27.6246 2.0561 27.6014 2.03293 27.555 2.03293C27.5319 2.03293 27.5319 2.03293 27.5087 2.00975C27.3233 1.94023 27.1611 1.8707 27.022 1.82435L26.9293 1.80118H26.9061L26.8134 1.778C26.5585 1.6853 26.3268 1.5926 26.0487 1.52308C26.0487 1.52308 26.0487 1.52308 26.0255 1.52308C25.9791 1.4999 25.9328 1.4999 25.8864 1.47673C25.8401 1.45356 25.7937 1.45355 25.7474 1.43038C25.7242 1.43038 25.6779 1.40721 25.6547 1.40721C25.5388 1.38403 25.4461 1.33768 25.3302 1.31451C25.3071 1.31451 25.3071 1.31451 25.2839 1.31451C25.2839 1.17546 25.2607 1.17546 25.2375 1.17546H25.2144H25.1912C24.9826 1.12911 24.774 1.05958 24.5423 1.01323C24.4264 0.990056 24.2874 0.966881 24.1715 0.920531C23.9629 0.874181 23.7312 0.827831 23.5226 0.781481C23.4531 0.758306 23.3604 0.758306 23.2908 0.735131C23.2213 0.711956 23.1286 0.711956 23.0591 0.688781C23.0127 0.688781 22.9896 0.688781 22.9432 0.665606C22.8969 0.665606 22.8505 0.642431 22.8042 0.642431C22.5724 0.619256 22.3407 0.572906 22.1089 0.549731C21.6686 0.503381 21.2051 0.480206 20.7648 0.457031C20.5098 0.480206 20.2549 0.480206 20 0.480206C19.5829 0.480206 19.1425 0.503381 18.7254 0.526556C18.679 0.526556 18.6327 0.526556 18.5863 0.526556C18.1228 0.549731 17.6593 0.596081 17.1958 0.665606C17.1031 0.688781 17.0336 0.688781 16.9409 0.711956L0.23175 17.4211Z" fill="#005FA3"/>
<path d="M39.7682 23.5161V23.493C39.7682 23.4698 39.7682 23.4466 39.7914 23.4003V23.3771C39.7914 23.3307 39.8146 23.3076 39.8146 23.2612V23.238V23.2149C39.8146 23.1917 39.8146 23.1917 39.8146 23.1917L39.8378 23.0758L39.8609 22.9831C39.8609 22.8904 39.8841 22.8209 39.8841 22.7514C39.8841 22.6818 39.9073 22.6123 39.9073 22.5428C39.9073 22.4733 39.9305 22.4269 39.9305 22.3806V22.3342C39.9305 22.2879 39.9305 22.2647 39.9305 22.2183V22.1952V22.172C39.9305 22.1256 39.9305 22.0793 39.9536 22.0098V21.9866C39.9536 21.9171 39.9768 21.8475 39.9768 21.7548C39.9768 21.6853 39.9768 21.5926 40 21.5231V21.4999V21.4767V21.4536C40 21.384 40 21.3145 40 21.2682C40 21.1755 40 21.1059 40 21.0132V20.9669C40 20.8974 40 20.851 40 20.7815V20.6424C40 20.5961 40 20.5497 40 20.4802C40 20.4339 40 20.3643 40 20.318V20.2716C39.9536 16.4709 38.4241 12.902 35.7126 10.2369C33.0011 7.57176 29.409 6.08856 25.5852 6.08856C24.7045 6.08856 23.8239 6.15809 22.9896 6.32031C24.9594 7.50224 26.6744 9.10131 28.0185 11.0248C29.9652 13.8058 30.9849 17.0735 30.9849 20.5034C30.9849 23.9101 29.9652 27.1778 28.0185 29.982C26.1182 32.6934 23.4762 34.7792 20.394 35.9611C18.4936 36.7027 16.4774 37.0735 14.4148 37.0735C11.4021 37.0735 8.5052 36.2624 5.97913 34.7792H6.0023C6.02548 34.8024 6.02548 34.8023 6.04865 34.8255L6.095 34.8719C6.11818 34.895 6.16453 34.9414 6.1877 34.9646C6.23405 35.0109 6.30358 35.0805 6.3731 35.1268C6.41945 35.1731 6.4658 35.1963 6.48898 35.2427C6.5585 35.3122 6.62803 35.3817 6.72073 35.4512C6.76708 35.4976 6.81343 35.5439 6.85978 35.5903L6.88295 35.6135L7.022 35.7294L7.04517 35.7525C7.09152 35.7757 7.1147 35.8221 7.16105 35.8452L7.18422 35.8684L7.2074 35.8916C7.23057 35.9147 7.27692 35.9611 7.32327 35.9843H7.34645H7.36962C7.3928 36.0074 7.43915 36.0306 7.46232 36.0538C7.5782 36.1465 7.6709 36.216 7.78677 36.3087C7.80995 36.3319 7.83312 36.3551 7.8563 36.3551C7.87947 36.3782 7.90265 36.4014 7.949 36.4246C7.97217 36.4478 7.97217 36.4478 7.99535 36.4478L8.01852 36.4709C8.06487 36.4941 8.11122 36.5405 8.15757 36.5636L8.20392 36.5868C8.2271 36.61 8.25027 36.61 8.27345 36.6332C8.29662 36.6563 8.34297 36.6795 8.36615 36.7027L8.4125 36.7259C8.5052 36.7954 8.57472 36.8417 8.66742 36.9113C8.71377 36.9344 8.73695 36.9576 8.7833 36.9808L8.80647 37.004L8.89917 37.0735L8.99187 37.143C9.03822 37.1662 9.08457 37.2125 9.1541 37.2357C9.20045 37.2589 9.26997 37.3052 9.31632 37.3284H9.50172L9.73347 37.537C9.75665 37.5602 9.803 37.5833 9.84935 37.6065C9.91887 37.6529 9.9884 37.6992 10.0579 37.7224C10.1043 37.7456 10.1738 37.7919 10.2201 37.8151C10.5214 37.9773 10.8227 38.1395 11.124 38.2786C11.1935 38.3018 11.263 38.3481 11.3325 38.3713C11.3325 38.3713 11.3557 38.3713 11.3557 38.3945C11.4252 38.4176 11.4716 38.464 11.5411 38.4872C11.7265 38.5799 11.9119 38.6726 12.1205 38.7421C12.1668 38.7653 12.2132 38.7884 12.2595 38.8116C12.2827 38.8116 12.2827 38.8348 12.3059 38.8348C12.3754 38.858 12.4218 38.8811 12.4913 38.9043C12.6535 38.9738 12.8157 39.0202 12.978 39.0897C13.0243 39.1129 13.0938 39.1361 13.1402 39.1592C13.3951 39.2519 13.65 39.3446 13.8818 39.4142C13.9281 39.4373 13.9745 39.4373 14.0208 39.4605C14.0904 39.4837 14.1599 39.5069 14.2526 39.53L14.3221 39.5532C14.4148 39.5764 14.5075 39.5996 14.577 39.6227C14.6234 39.6459 14.6697 39.6459 14.7161 39.6691C15.2723 39.8081 15.8285 39.9472 16.3847 40.0399C16.4542 40.0631 16.5237 40.0631 16.6164 40.0862C16.7091 40.1094 16.7787 40.1094 16.8482 40.1326C16.9177 40.1558 17.0104 40.1558 17.0799 40.1558C18.0069 40.2948 18.9339 40.3412 19.8841 40.3412C20.8111 40.3412 21.7613 40.2716 22.6883 40.1558H22.7115C22.781 40.1558 22.8505 40.1326 22.9432 40.1326L39.6524 23.4234C39.7682 23.5161 39.7682 23.5161 39.7682 23.5161Z" fill="#222222"/>
</g>
<defs>
<clipPath id="clip0_17_67">
<rect width="40" height="40" fill="white" transform="translate(0 0.480225)"/>
</clipPath>
</defs>
</svg>
