<svg width="1620" height="434" viewBox="0 0 1620 434" fill="none" xmlns="http://www.w3.org/2000/svg">
<rect width="1620" height="434" rx="50" fill="#006270"/>
<mask id="mask0_19_6" style="mask-type:alpha" maskUnits="userSpaceOnUse" x="0" y="0" width="1620" height="434">
<rect width="1620" height="434" rx="50" fill="#FCC91B"/>
</mask>
<g mask="url(#mask0_19_6)">
<g opacity="0.02">
<path d="M1326.22 25.7098C1312.4 11.8871 1289.98 11.8871 1276.15 25.7098L900.556 401.167C886.73 414.989 886.73 437.399 900.556 451.221C914.383 465.044 936.799 465.044 950.626 451.221L1326.19 75.7647C1340.05 61.942 1340.05 39.5325 1326.22 25.7098Z" fill="white"/>
<path d="M1134.65 384.321C1127.41 377.081 1115.68 377.081 1108.44 384.321L911.869 580.831C904.627 588.072 904.627 599.8 911.869 607.04C919.112 614.281 930.844 614.281 938.086 607.04L1134.65 410.531C1141.9 403.29 1141.9 391.562 1134.65 384.321Z" fill="white"/>
<path d="M1239.82 -165.833C1232.64 -173.014 1221.03 -173.014 1213.84 -165.833L1019.1 28.8513C1011.92 36.0319 1011.92 47.6406 1019.1 54.8212C1026.28 62.0018 1037.9 62.0018 1045.08 54.8212L1239.82 -139.863C1246.97 -147.044 1246.97 -158.653 1239.82 -165.833Z" fill="white"/>
<path d="M991.208 -182.2C984.205 -189.201 972.893 -189.201 965.889 -182.2L776.056 7.57816C769.052 14.5793 769.052 25.8888 776.056 32.8899C783.059 39.891 794.372 39.891 801.375 32.8899L991.208 -156.888C998.212 -163.859 998.212 -175.199 991.208 -182.2Z" fill="white"/>
<path d="M714.613 23.5259C702.013 10.9299 681.543 10.9299 668.943 23.5259L326.326 366.012C313.727 378.608 313.727 399.072 326.326 411.668C338.926 424.264 359.397 424.264 371.996 411.668L714.613 69.1527C727.243 56.5567 727.243 36.1219 714.613 23.5259Z" fill="white"/>
<path d="M1657.89 175.306C1637.71 155.141 1605.03 155.141 1584.86 175.306L1037.12 722.888C1016.95 743.054 1016.95 775.726 1037.12 795.891C1057.29 816.057 1089.97 816.057 1110.14 795.891L1657.86 248.339C1678.03 228.174 1678.03 195.472 1657.89 175.306Z" fill="white"/>
<path d="M299.301 335.075C289.545 325.321 273.743 325.321 263.986 335.075L-0.907194 599.89C-10.6637 609.643 -10.6637 625.441 -0.907194 635.195C8.84936 644.948 24.6514 644.948 34.4079 635.195L299.301 370.379C309.028 360.626 309.028 344.798 299.301 335.075Z" fill="white"/>
<path d="M251.237 -185.76C243.695 -193.299 231.484 -193.299 223.972 -185.76L19.414 18.7385C11.8721 26.2782 11.8721 38.4852 19.414 45.9949C26.9559 53.5346 39.1665 53.5346 46.6785 45.9949L251.237 -158.503C258.749 -166.013 258.749 -178.22 251.237 -185.76Z" fill="white"/>
<path d="M609.685 296.958C597.534 284.811 577.842 284.811 565.691 296.958L235.794 626.758C223.643 638.905 223.643 658.592 235.794 670.739C247.945 682.886 267.637 682.886 279.788 670.739L609.685 340.939C621.836 328.792 621.836 309.105 609.685 296.958Z" fill="white"/>
<path d="M790.421 -224.026C779.976 -234.468 763.037 -234.468 752.592 -224.026L468.904 59.5782C458.459 70.0201 458.459 86.9544 468.904 97.3962C479.349 107.838 496.288 107.838 506.733 97.3962L790.421 -186.208C800.866 -196.65 800.866 -213.584 790.421 -224.026Z" fill="white"/>
<path d="M805.864 398.084C800.207 392.43 791.02 392.43 785.333 398.084L631.443 551.929C625.787 557.584 625.787 566.769 631.443 572.454C637.099 578.108 646.287 578.108 651.974 572.454L805.864 418.579C811.55 412.924 811.55 403.739 805.864 398.084Z" fill="white"/>
<path d="M1585.55 -15.3098C1571.99 -28.8632 1550 -28.8632 1536.44 -15.3098L1168.2 352.817C1154.65 366.37 1154.65 388.361 1168.2 401.914C1181.76 415.468 1203.76 415.468 1217.32 401.914L1585.55 33.7877C1599.11 20.2044 1599.11 -1.75637 1585.55 -15.3098Z" fill="white"/>
<path d="M291.849 191.403C279.968 179.525 260.694 179.525 248.813 191.403L-74.0815 514.172C-85.9629 526.05 -85.9629 545.318 -74.0815 557.196C-62.2 569.074 -42.9263 569.074 -31.0449 557.196L291.819 234.427C303.731 222.549 303.731 203.281 291.849 191.403Z" fill="white"/>
<path d="M709.885 -391.784C688.247 -413.415 653.141 -413.415 631.503 -391.784L43.7156 195.831C22.0776 217.462 22.0776 252.557 43.7156 274.189C65.3536 295.821 100.459 295.821 122.097 274.189L709.885 -313.425C731.523 -335.057 731.523 -370.152 709.885 -391.784Z" fill="white"/>
<path d="M1628.2 -334.189C1611.95 -350.435 1585.61 -350.435 1569.39 -334.189L1128.25 106.821C1112 123.067 1112 149.396 1128.25 165.612C1144.5 181.858 1170.84 181.858 1187.06 165.612L1628.2 -275.398C1644.45 -291.614 1644.45 -317.943 1628.2 -334.189Z" fill="white"/>
<path d="M1089.37 -47.5922C1072.52 -64.4367 1045.2 -64.4367 1028.35 -47.5922L570.719 409.873C553.869 426.718 553.869 454.034 570.719 470.879C587.568 487.723 614.893 487.723 631.742 470.879L1089.37 13.3832C1106.22 -3.43137 1106.22 -30.7476 1089.37 -47.5922Z" fill="white"/>
</g>
</g>
</svg>
