<svg width="58" height="58" viewBox="0 0 58 58" fill="none" xmlns="http://www.w3.org/2000/svg">
<path d="M53.3721 32.7224C55.5733 19.1817 46.3381 6.43522 32.7447 4.25238C19.1513 2.06953 6.34721 11.2769 4.14601 24.8176C1.94482 38.3583 11.18 51.1047 24.7734 53.2876C38.3668 55.4704 51.1709 46.2631 53.3721 32.7224Z" fill="url(#paint0_linear_21_69)"/>
<path opacity="0.51" d="M28.6983 3.92871C25.2236 3.92871 21.9227 4.62103 18.9692 5.91913C20.7934 5.48643 22.7045 5.22681 24.6156 5.22681C37.6455 5.22681 48.2432 15.7847 48.2432 28.7657C48.2432 41.7467 37.6455 52.3046 24.6156 52.3046C22.6176 52.3046 20.7934 52.045 18.9692 51.6123C21.9227 52.9104 25.2236 53.6027 28.6983 53.6027C42.4232 53.6027 53.6289 42.5256 53.6289 28.7657C53.6289 15.0058 42.51 3.92871 28.6983 3.92871Z" fill="#343739"/>
<path d="M42.749 31.4299C44.2355 23.7325 39.176 16.2975 31.4483 14.8233C23.7206 13.3491 16.251 18.3941 14.7645 26.0914C13.278 33.7888 18.3375 41.2239 26.0652 42.698C33.793 44.1722 41.2625 39.1273 42.749 31.4299Z" stroke="#90999E" stroke-width="3.1457" stroke-miterlimit="10"/>
<path d="M36.1688 28.7657C36.1688 32.8331 32.8679 36.2081 28.6983 36.2081C24.6156 36.2081 21.2278 32.9196 21.2278 28.7657C21.2278 24.6983 24.5287 21.3232 28.6983 21.3232C32.8679 21.3232 36.1688 24.6118 36.1688 28.7657Z" fill="#90999E"/>
<path d="M28.6982 14.4866V42.9583" stroke="#90999E" stroke-width="3.1457" stroke-miterlimit="10"/>
<path d="M14.4521 28.7656H43.0312" stroke="#90999E" stroke-width="3.1457" stroke-miterlimit="10"/>
<path d="M18.448 38.6314L38.601 18.4675" stroke="#90999E" stroke-width="3.1457" stroke-miterlimit="10"/>
<path d="M18.6218 18.7271L38.7748 38.8043" stroke="#90999E" stroke-width="3.1457" stroke-miterlimit="10"/>
<path d="M39.991 17.9482C41.9021 20.5444 42.9445 23.6599 42.9445 27.035C42.9445 35.6024 35.9083 42.6122 27.3085 42.6122C22.8783 42.6122 18.8825 40.7948 16.0159 37.8525C18.8825 41.7468 23.4864 44.343 28.6984 44.343C37.2981 44.343 44.3343 37.3332 44.3343 28.7658C44.3343 24.5253 42.6839 20.7175 39.991 17.9482Z" fill="#90999E"/>
<g opacity="0.49">
<path opacity="0.49" d="M18.1874 9.12109C16.3632 10.5057 14.7127 12.0635 13.236 13.7077C11.7593 15.352 10.4563 17.1693 9.41387 19.0732C8.37147 20.9771 7.50281 23.054 6.98161 25.2176C6.63415 26.256 6.46041 27.3811 6.28668 28.5061C6.11295 29.0253 6.11295 29.6311 6.11295 30.1503C6.02608 30.7561 6.02608 31.2754 5.93921 31.8811C5.85235 31.2754 5.76548 30.7561 5.67862 30.1503C5.59175 29.5446 5.50488 29.0253 5.50488 28.4195V26.6887C5.50488 26.0829 5.67862 25.5637 5.67862 24.9579C5.76548 23.7464 6.19981 22.7079 6.46041 21.4963C6.63415 20.9771 6.89475 20.3713 7.15535 19.8521C7.32908 19.3328 7.67654 18.8136 7.93714 18.2943C9.06641 16.2174 10.5431 14.3135 12.2805 12.7558C14.1047 11.2846 16.1026 9.98649 18.1874 9.12109Z" fill="white"/>
</g>
<defs>
<linearGradient id="paint0_linear_21_69" x1="27.5" y1="5.67945" x2="27.4536" y2="54.0307" gradientUnits="userSpaceOnUse">
<stop offset="0.572917" stop-color="#343739"/>
<stop offset="1" stop-color="#395364"/>
</linearGradient>
</defs>
</svg>
