<svg width="17" height="18" viewBox="0 0 17 18" fill="none" xmlns="http://www.w3.org/2000/svg">
<g clip-path="url(#clip0_17_22)">
<path d="M8.4882 0.480225C5.05271 0.480225 2.25781 3.27512 2.25781 6.71061C2.25781 8.2888 3.25222 10.5186 5.21354 13.3381C6.64711 15.3992 8.05708 16.9941 8.11648 17.061L8.4882 17.4802L8.86005 17.061C8.91932 16.9941 10.3293 15.3992 11.763 13.3381C13.7242 10.5186 14.7187 8.2888 14.7187 6.71061C14.7187 3.27512 11.9237 0.480225 8.4882 0.480225ZM10.9525 12.7625C9.98351 14.1565 9.00414 15.3563 8.4882 15.9683C7.97355 15.3579 6.99782 14.1628 6.02948 12.7706C4.21226 10.1582 3.2517 8.0626 3.2517 6.71061C3.2517 3.82323 5.60082 1.47411 8.4882 1.47411C11.3757 1.47411 13.7247 3.82323 13.7247 6.71061C13.7247 8.06117 12.7661 10.1539 10.9525 12.7625Z" fill="#005FA3"/>
<path d="M8.48821 2.7829C6.46062 2.7829 4.8111 4.43242 4.8111 6.46001C4.8111 8.48761 6.46062 10.1373 8.48821 10.1373C10.5159 10.1373 12.1655 8.48761 12.1655 6.46001C12.1655 4.43242 10.5159 2.7829 8.48821 2.7829ZM8.48821 9.14337C7.00873 9.14337 5.80499 7.93963 5.80499 6.46001C5.80499 4.98053 7.00873 3.77679 8.48821 3.77679C9.96783 3.77679 11.1716 4.98053 11.1716 6.46001C11.1716 7.93963 9.96783 9.14337 8.48821 9.14337Z" fill="#005FA3"/>
</g>
<defs>
<clipPath id="clip0_17_22">
<rect width="17" height="17" fill="white" transform="translate(0 0.480225)"/>
</clipPath>
</defs>
</svg>
