<svg width="23" height="18" viewBox="0 0 23 18" fill="none" xmlns="http://www.w3.org/2000/svg">
<path d="M19.6115 0.480225H2.73165C1.22485 0.480225 0 1.70508 0 3.21187V14.7486C0 16.2554 1.22485 17.4802 2.73165 17.4802H19.6069C21.1137 17.4802 22.3385 16.2554 22.3385 14.7486V3.21649C22.3431 1.7097 21.1183 0.480225 19.6115 0.480225ZM21.0952 14.7486C21.0952 15.5667 20.4296 16.2323 19.6115 16.2323H2.73165C1.91354 16.2323 1.24796 15.5667 1.24796 14.7486V3.21649C1.24796 2.39839 1.91354 1.73281 2.73165 1.73281H19.6069C20.425 1.73281 21.0905 2.39839 21.0905 3.21649V14.7486H21.0952Z" fill="#005FA3"/>
<path d="M14.088 8.83696L19.5513 3.93756C19.8055 3.70645 19.8287 3.31357 19.5975 3.05474C19.3664 2.80052 18.9736 2.77741 18.7147 3.00852L11.1807 9.77062L9.71093 8.45795C9.7063 8.45333 9.70168 8.4487 9.70168 8.44408C9.66933 8.41173 9.63697 8.384 9.59999 8.35626L3.61903 3.0039C3.36019 2.77279 2.96731 2.7959 2.73621 3.05474C2.50511 3.31357 2.52822 3.70645 2.78705 3.93756L8.31506 8.87856L2.81016 14.0322C2.56057 14.2679 2.54671 14.6608 2.78243 14.915C2.90723 15.0444 3.07362 15.1137 3.24002 15.1137C3.39255 15.1137 3.54507 15.0583 3.66525 14.9473L9.25334 9.71978L10.7694 11.074C10.8896 11.1804 11.0375 11.2312 11.1854 11.2312C11.3333 11.2312 11.4858 11.1757 11.6014 11.0694L13.159 9.67356L18.7147 14.952C18.8349 15.0675 18.9921 15.123 19.1446 15.123C19.311 15.123 19.4728 15.0583 19.5975 14.9289C19.8333 14.6793 19.824 14.2818 19.5744 14.046L14.088 8.83696Z" fill="#005FA3"/>
</svg>
