<svg width="10" height="15" viewBox="0 0 10 15" fill="none" xmlns="http://www.w3.org/2000/svg">
<path d="M8.8373 0H1.1627C0.523313 0 0 0.455571 0 1.01314V13.9864C0 14.544 0.523313 15 1.1627 15H8.8373C9.47669 15 10 14.5449 10 13.9869V1.01314C10 0.455571 9.47669 0 8.8373 0ZM3.77238 0.730286H6.22762C6.30533 0.730286 6.36829 0.785143 6.36829 0.853286C6.36829 0.921 6.30533 0.975857 6.22762 0.975857H3.77238C3.69467 0.975857 3.63171 0.921 3.63171 0.853286C3.63171 0.785143 3.69467 0.730286 3.77238 0.730286ZM5 14.4934C4.67883 14.4934 4.41865 14.2667 4.41865 13.9864C4.41865 13.7061 4.67883 13.4799 5 13.4799C5.32117 13.4799 5.58135 13.7061 5.58135 13.9864C5.58135 14.2667 5.32117 14.4934 5 14.4934ZM9.19093 13.125H0.809069V1.60671H9.19093V13.125Z" fill="#005FA3"/>
</svg>
