<svg width="17" height="25" viewBox="0 0 17 25" fill="none" xmlns="http://www.w3.org/2000/svg">
<path d="M15.0234 0H1.97659C0.889632 0 0 0.759286 0 1.68857V23.3107C0 24.24 0.889632 25 1.97659 25H15.0234C16.1104 25 17 24.2414 17 23.3114V1.68857C17 0.759286 16.1104 0 15.0234 0ZM6.41304 1.21714H10.587C10.7191 1.21714 10.8261 1.30857 10.8261 1.42214C10.8261 1.535 10.7191 1.62643 10.587 1.62643H6.41304C6.28094 1.62643 6.17391 1.535 6.17391 1.42214C6.17391 1.30857 6.28094 1.21714 6.41304 1.21714ZM8.5 24.1557C7.95401 24.1557 7.51171 23.7779 7.51171 23.3107C7.51171 22.8436 7.95401 22.4664 8.5 22.4664C9.04599 22.4664 9.48829 22.8436 9.48829 23.3107C9.48829 23.7779 9.04599 24.1557 8.5 24.1557ZM15.6246 21.875H1.37542V2.67786H15.6246V21.875Z" fill="white"/>
</svg>
