<svg width="17" height="18" viewBox="0 0 17 18" fill="none" xmlns="http://www.w3.org/2000/svg">
<path d="M8.5 0.480225C3.80558 0.480225 0 4.28581 0 8.98022C0 13.6746 3.80558 17.4802 8.5 17.4802C13.1944 17.4802 17 13.6746 17 8.98022C16.994 4.28831 13.1919 0.486241 8.5 0.480225ZM8.86465 16.7327V15.2376C8.86465 15.0362 8.70138 14.873 8.5 14.873C8.29862 14.873 8.13535 15.0362 8.13535 15.2376V16.7327C4.13691 16.5418 0.938428 13.3433 0.747533 9.34488H2.2426C2.44398 9.34488 2.60725 9.1816 2.60725 8.98022C2.60725 8.77885 2.44398 8.61557 2.2426 8.61557H0.747533C0.938428 4.61714 4.13691 1.41865 8.13535 1.22776V2.72282C8.13535 2.9242 8.29862 3.08747 8.5 3.08747C8.70138 3.08747 8.86465 2.9242 8.86465 2.72282V1.22776C12.8631 1.41865 16.0616 4.61714 16.2525 8.61557H14.7574C14.556 8.61557 14.3928 8.77885 14.3928 8.98022C14.3928 9.1816 14.556 9.34488 14.7574 9.34488H14.761H16.2561C16.0651 13.3446 12.8645 16.5436 8.86465 16.7327Z" fill="#005FA3"/>
<path d="M12.3471 12.3715L8.86465 8.83072V5.15139C8.86465 4.95002 8.70137 4.78674 8.5 4.78674C8.29862 4.78674 8.13535 4.95002 8.13535 5.15139V8.98023C8.13576 9.0759 8.17373 9.16756 8.24109 9.23548L11.8256 12.882C11.9666 13.026 12.1976 13.0284 12.3416 12.8875C12.4856 12.7465 12.488 12.5155 12.3471 12.3715Z" fill="#005FA3"/>
</svg>
